{"glyphs":{"0":{"ha":918,"x_min":67,"x_max":850,"o":"m 715 504 q 647 814 715 708 q 458 919 579 919 q 269 815 336 919 q 201 504 201 710 q 269 192 201 297 q 458 88 336 88 q 648 192 581 88 q 715 504 715 297 m 752 888 q 801 819 752 888 q 850 504 850 750 q 752 120 850 258 q 458 -18 654 -18 q 165 120 263 -18 q 67 504 67 258 q 165 888 67 750 q 458 1025 263 1025 q 752 888 654 1025 z "},"1":{"ha":511,"x_min":17,"x_max":376,"o":"m 376 0 l 250 0 l 250 788 l 17 788 l 17 874 q 192 903 132 876 q 290 1007 251 929 l 376 1007 l 376 0 z "},"2":{"ha":819,"x_min":42,"x_max":767,"o":"m 419 1025 q 651 956 563 1025 q 739 761 739 886 q 710 624 739 693 q 637 494 682 554 q 519 365 592 433 q 378 242 447 296 q 214 118 308 188 l 767 118 l 767 0 l 42 0 l 42 114 q 469 474 333 329 q 606 744 606 618 q 556 872 606 825 q 417 919 506 919 q 265 865 326 919 q 200 693 203 810 l 69 693 q 163 934 67 843 q 419 1025 258 1025 z "},"3":{"ha":815,"x_min":32,"x_max":754,"o":"m 232 144 q 260 116 232 144 q 392 88 289 88 q 557 138 494 88 q 619 282 619 189 q 329 474 619 474 l 308 474 l 308 589 l 325 589 q 526 628 460 589 q 593 756 593 668 q 538 876 593 833 q 397 919 482 919 q 242 866 299 919 q 178 724 186 813 l 47 724 q 151 942 58 860 q 400 1025 244 1025 q 635 963 543 1025 q 726 769 726 900 q 684 629 726 690 q 563 536 642 568 q 754 283 754 474 q 649 60 754 139 q 390 -18 544 -18 q 133 71 222 -18 q 32 297 44 160 l 163 297 q 232 144 175 200 z "},"4":{"ha":867,"x_min":24,"x_max":836,"o":"m 524 833 l 164 368 l 524 368 l 524 833 m 836 368 l 836 249 l 651 249 l 651 0 l 524 0 l 524 249 l 24 249 l 24 368 l 522 1007 l 651 1007 l 651 368 l 836 368 z "},"5":{"ha":843,"x_min":61,"x_max":778,"o":"m 419 88 q 579 153 514 88 q 644 331 644 218 q 577 508 644 447 q 418 569 510 569 q 294 535 346 569 q 224 458 243 501 l 97 465 l 163 1007 l 740 1007 l 740 889 l 265 889 l 231 603 q 447 679 311 679 q 682 585 586 679 q 778 332 778 492 q 674 74 778 167 q 419 -18 569 -18 q 166 70 256 -18 q 61 292 76 158 l 192 292 q 419 88 225 88 z "},"6":{"ha":854,"x_min":67,"x_max":788,"o":"m 274 494 q 243 460 274 494 q 213 322 213 426 q 272 153 213 218 q 432 88 332 88 q 590 153 528 88 q 653 322 653 219 q 591 494 653 426 q 433 561 529 561 q 274 494 335 561 m 444 919 q 266 815 329 919 q 197 531 203 710 q 463 671 278 671 q 696 575 604 671 q 788 329 788 479 q 689 83 788 185 q 433 -18 590 -18 q 67 468 67 -18 q 88 675 67 579 q 153 851 108 771 q 276 978 197 932 q 460 1025 354 1025 q 675 953 597 1025 q 771 774 753 881 l 633 774 q 572 881 621 842 q 444 919 522 919 z "},"7":{"ha":713,"x_min":15,"x_max":713,"o":"m 15 889 l 15 1007 l 713 1007 l 713 889 q 414 510 524 738 q 286 0 304 282 l 133 0 q 262 496 150 268 q 565 889 374 724 l 15 889 z "},"8":{"ha":869,"x_min":67,"x_max":801,"o":"m 190 953 q 236 989 190 953 q 435 1025 282 1025 q 679 953 588 1025 q 771 768 771 881 q 737 638 771 700 q 632 536 703 575 q 761 431 721 500 q 801 283 801 363 q 698 63 801 143 q 435 -18 594 -18 q 170 63 274 -18 q 67 283 67 143 q 107 432 67 363 q 238 536 147 501 q 133 638 167 575 q 99 768 99 700 q 190 953 99 881 m 605 428 q 573 456 605 428 q 435 483 542 483 q 265 428 328 483 q 201 283 201 372 q 264 141 201 194 q 435 88 326 88 q 605 141 542 88 q 668 283 668 194 q 605 428 668 372 m 643 753 q 586 874 643 828 q 435 919 529 919 q 282 874 339 919 q 225 753 225 828 q 283 626 225 676 q 435 576 340 576 q 585 626 528 576 q 643 753 643 676 z "},"9":{"ha":847,"x_min":58,"x_max":779,"o":"m 632 685 q 572 855 632 790 q 414 919 513 919 q 255 853 317 919 q 193 685 193 788 q 255 514 193 581 q 413 447 317 447 q 572 514 511 447 q 632 685 632 581 m 400 88 q 578 192 514 88 q 649 476 643 297 q 382 336 568 336 q 150 432 242 336 q 58 679 58 528 q 157 924 58 824 q 413 1025 256 1025 q 779 539 779 1025 q 758 331 779 428 q 692 155 736 235 q 569 28 647 75 q 386 -18 490 -18 q 171 54 249 -18 q 75 233 93 126 l 213 233 q 274 126 225 165 q 400 88 322 88 z "}," ":{"ha":329,"x_min":0,"x_max":0,"o":""},"!":{"ha":340,"x_min":90,"x_max":250,"o":"m 210 294 l 131 294 l 103 703 l 103 1007 l 238 1007 l 238 703 l 210 294 m 250 0 l 90 0 l 90 160 l 250 160 l 250 0 z "},"\"":{"ha":429,"x_min":38,"x_max":392,"o":"m 250 1007 l 392 1007 l 364 674 l 278 674 l 250 1007 m 38 1007 l 179 1007 l 151 674 l 65 674 l 38 1007 z "},"#":{"ha":925,"x_min":31,"x_max":896,"o":"m 90 747 l 288 747 l 324 1007 l 426 1007 l 390 747 l 607 747 l 643 1007 l 746 1007 l 710 747 l 896 747 l 882 649 l 696 649 l 663 407 l 850 407 l 836 308 l 649 308 l 607 0 l 504 0 l 546 308 l 329 308 l 288 0 l 185 0 l 226 308 l 31 308 l 44 407 l 240 407 l 274 649 l 76 649 l 90 747 m 376 649 l 343 407 l 560 407 l 593 649 l 376 649 z "},"$":{"ha":815,"x_min":46,"x_max":771,"o":"m 365 1126 l 442 1126 l 442 1025 q 667 930 585 1014 q 747 710 749 846 l 617 710 q 565 860 614 810 q 442 919 517 910 l 442 575 l 463 569 q 577 532 531 551 q 672 480 624 513 q 746 396 721 447 q 771 276 771 344 q 678 67 771 143 q 442 -17 585 -8 l 442 -135 l 365 -135 l 365 -17 q 132 88 221 -6 q 46 319 43 182 l 176 319 q 233 157 179 215 q 365 89 288 99 l 365 465 l 335 474 q 144 578 215 506 q 72 761 72 650 q 158 943 72 874 q 365 1025 243 1013 l 365 1126 m 640 257 q 592 378 640 339 q 442 444 544 417 l 442 88 q 583 137 526 93 q 640 257 640 181 m 203 763 q 242 660 203 700 q 364 596 281 619 l 365 594 l 365 921 q 250 875 297 915 q 203 763 203 835 z "},"%":{"ha":1386,"x_min":51,"x_max":1340,"o":"m 278 431 q 110 510 168 431 q 51 724 51 590 q 110 937 51 857 q 278 1017 168 1017 q 448 937 389 1017 q 507 724 507 857 q 448 510 507 590 q 278 431 389 431 m 278 507 q 401 724 401 507 q 278 942 401 942 q 188 885 219 942 q 157 724 157 828 q 188 563 157 619 q 278 507 219 507 m 417 0 l 276 0 l 971 1007 l 1111 1007 l 417 0 m 1111 -10 q 943 70 1001 -10 q 885 283 885 150 q 943 497 885 417 q 1111 576 1001 576 q 1281 497 1222 576 q 1340 283 1340 417 q 1281 70 1340 150 q 1111 -10 1222 -10 m 1111 67 q 1235 283 1235 67 q 1111 501 1235 501 q 1022 444 1053 501 q 990 283 990 388 q 1022 123 990 179 q 1111 67 1053 67 z "},"&":{"ha":976,"x_min":39,"x_max":1021,"o":"m 374 -18 q 131 66 222 -18 q 39 276 39 150 q 107 467 39 389 q 293 585 175 544 q 182 813 182 714 q 258 967 182 908 q 453 1026 333 1026 q 635 974 558 1026 q 711 810 711 921 q 503 549 711 633 l 707 332 q 756 546 747 426 l 886 546 q 796 239 871 371 l 1021 0 l 839 0 l 717 131 q 374 -18 576 -18 m 374 92 q 636 215 533 92 l 367 504 q 174 282 174 435 q 233 144 174 197 q 374 92 292 92 m 317 822 q 425 632 317 740 l 428 628 q 547 701 503 654 q 590 808 590 749 q 553 894 590 867 q 456 921 515 921 q 357 896 397 921 q 317 822 317 871 z "},"'":{"ha":217,"x_min":38,"x_max":179,"o":"m 38 1007 l 179 1007 l 151 674 l 65 674 l 38 1007 z "},"(":{"ha":340,"x_min":44,"x_max":340,"o":"m 44 382 q 101 735 44 574 q 236 1007 158 896 l 340 1007 q 175 382 175 743 q 340 -243 175 24 l 236 -243 q 101 31 158 -131 q 44 382 44 192 z "},")":{"ha":340,"x_min":0,"x_max":296,"o":"m 296 382 q 239 31 296 192 q 104 -243 182 -131 l 0 -243 q 165 382 165 24 q 0 1007 165 742 l 104 1007 q 239 735 182 896 q 296 382 296 574 z "},"*":{"ha":489,"x_min":15,"x_max":474,"o":"m 285 1007 l 285 842 l 442 901 l 474 824 l 314 768 l 410 633 l 346 585 l 243 725 l 149 585 l 75 632 l 172 768 l 15 824 l 43 901 l 200 842 l 200 1007 l 285 1007 z "},"+":{"ha":942,"x_min":94,"x_max":849,"o":"m 535 0 l 408 0 l 408 314 l 94 314 l 94 433 l 408 433 l 408 739 l 535 739 l 535 433 l 849 433 l 849 314 l 535 314 l 535 0 z "},",":{"ha":340,"x_min":85,"x_max":250,"o":"m 90 0 l 90 160 l 250 160 l 250 -11 l 165 -193 l 85 -193 l 158 0 l 90 0 z "},"-":{"ha":563,"x_min":60,"x_max":501,"o":"m 501 321 l 60 321 l 60 440 l 501 440 l 501 321 z "},".":{"ha":340,"x_min":90,"x_max":250,"o":"m 250 0 l 90 0 l 90 160 l 250 160 l 250 0 z "},"/":{"ha":524,"x_min":0,"x_max":524,"o":"m 126 0 l 0 0 l 396 1007 l 524 1007 l 126 0 z "},":":{"ha":340,"x_min":90,"x_max":250,"o":"m 250 588 l 90 588 l 90 747 l 250 747 l 250 588 m 250 0 l 90 0 l 90 160 l 250 160 l 250 0 z "},";":{"ha":340,"x_min":85,"x_max":250,"o":"m 90 0 l 90 160 l 250 160 l 250 -11 l 165 -193 l 85 -193 l 158 0 l 90 0 m 250 588 l 90 588 l 90 747 l 250 747 l 250 588 z "},"<":{"ha":942,"x_min":108,"x_max":821,"o":"m 108 426 l 821 742 l 821 606 l 267 372 l 821 143 l 821 8 l 108 318 l 108 426 z "},"=":{"ha":942,"x_min":124,"x_max":819,"o":"m 819 461 l 124 461 l 124 582 l 819 582 l 819 461 m 819 181 l 124 181 l 124 300 l 819 300 l 819 181 z "},">":{"ha":942,"x_min":122,"x_max":835,"o":"m 835 426 l 835 318 l 122 8 l 122 143 l 676 372 l 122 606 l 122 742 l 835 426 z "},"?":{"ha":693,"x_min":18,"x_max":672,"o":"m 358 1025 q 580 962 488 1025 q 672 781 672 899 q 485 494 672 613 q 392 420 415 449 q 368 338 368 392 l 368 294 l 239 294 l 239 342 q 277 473 239 424 q 411 583 315 522 q 540 775 540 665 q 489 880 540 840 q 356 919 438 919 q 199 861 250 919 q 144 726 149 803 l 18 726 q 114 942 18 860 q 358 1025 210 1025 m 386 0 l 226 0 l 226 160 l 386 160 l 386 0 z "},"@":{"ha":1179,"x_min":64,"x_max":1100,"o":"m 853 213 q 755 246 796 213 q 706 340 714 279 q 494 217 642 217 q 348 279 407 217 q 289 465 289 342 q 367 690 289 593 q 574 788 446 788 q 733 682 690 788 l 744 764 l 843 764 l 803 461 q 861 313 781 313 q 955 379 917 313 q 993 558 993 446 q 888 819 993 728 q 607 910 782 910 q 296 788 417 910 q 175 481 175 665 q 276 197 175 307 q 553 86 378 86 q 822 146 704 86 l 861 50 q 553 -18 717 -18 q 200 124 336 -18 q 64 485 64 267 q 221 857 64 707 q 610 1007 378 1007 q 856 961 749 1007 q 1032 813 964 915 q 1100 564 1100 711 q 1027 307 1100 401 q 853 213 954 213 m 575 683 q 455 619 500 683 q 410 464 410 554 q 525 318 410 318 q 650 385 604 318 q 696 547 696 451 q 665 648 696 613 q 575 683 633 683 z "},"A":{"ha":917,"x_min":0,"x_max":917,"o":"m 0 0 l 374 1007 l 538 1007 l 917 0 l 764 0 l 685 218 l 222 218 l 144 0 l 0 0 m 451 864 l 265 339 l 640 339 l 451 864 z "},"B":{"ha":933,"x_min":119,"x_max":878,"o":"m 119 0 l 119 1007 l 482 1007 q 836 758 836 1007 q 807 626 836 686 q 725 536 778 565 q 878 297 878 472 q 778 73 878 146 q 517 0 679 0 l 119 0 m 261 464 l 261 119 l 518 119 q 732 296 732 119 q 678 424 732 383 q 510 464 624 464 l 261 464 m 261 888 l 261 576 l 504 576 q 693 739 693 576 q 643 851 693 814 q 504 888 593 888 l 261 888 z "},"C":{"ha":1008,"x_min":71,"x_max":964,"o":"m 826 321 l 964 321 q 814 70 932 158 q 528 -18 696 -18 q 193 127 315 -18 q 71 506 71 272 q 199 882 71 739 q 539 1025 326 1025 q 811 935 697 1025 q 958 686 925 846 l 821 686 q 723 845 799 785 q 532 906 647 906 q 304 800 393 906 q 215 506 215 694 q 304 209 215 317 q 536 101 393 101 q 727 160 653 101 q 826 321 801 219 z "},"D":{"ha":1014,"x_min":119,"x_max":943,"o":"m 799 504 q 775 675 799 603 q 715 788 751 747 q 622 851 679 828 q 513 881 565 874 q 390 888 461 888 l 261 888 l 261 119 l 390 119 q 513 126 461 119 q 622 156 565 133 q 715 220 679 179 q 775 333 751 261 q 799 504 799 404 m 119 1007 l 394 1007 q 615 981 519 1007 q 787 899 711 956 q 903 743 863 843 q 943 504 943 643 q 798 117 943 233 q 394 0 653 0 l 119 0 l 119 1007 z "},"E":{"ha":851,"x_min":119,"x_max":803,"o":"m 119 0 l 119 1007 l 803 1007 l 803 885 l 261 885 l 261 579 l 771 579 l 771 457 l 261 457 l 261 122 l 803 122 l 803 0 l 119 0 z "},"F":{"ha":778,"x_min":119,"x_max":774,"o":"m 119 0 l 119 1007 l 774 1007 l 774 885 l 261 885 l 261 579 l 744 579 l 744 457 l 261 457 l 261 0 l 119 0 z "},"G":{"ha":1069,"x_min":71,"x_max":963,"o":"m 539 1025 q 811 942 697 1025 q 956 714 925 858 l 818 714 q 720 854 792 803 q 532 906 649 906 q 304 800 393 906 q 215 506 215 694 q 303 210 215 318 q 532 101 390 101 q 635 114 586 101 q 730 155 685 126 q 802 237 775 183 q 829 365 829 290 l 829 392 l 563 392 l 563 514 l 963 514 l 963 0 l 851 0 l 844 126 q 526 -18 754 -18 q 192 127 314 -18 q 71 506 71 272 q 199 882 71 739 q 539 1025 326 1025 z "},"H":{"ha":1051,"x_min":119,"x_max":932,"o":"m 790 1007 l 932 1007 l 932 0 l 790 0 l 790 457 l 261 457 l 261 0 l 119 0 l 119 1007 l 261 1007 l 261 579 l 790 579 l 790 1007 z "},"I":{"ha":381,"x_min":119,"x_max":261,"o":"m 261 1007 l 261 0 l 119 0 l 119 1007 l 261 1007 z "},"J":{"ha":767,"x_min":15,"x_max":647,"o":"m 506 321 l 506 1007 l 647 1007 l 647 319 q 564 69 647 156 q 331 -18 481 -18 q 98 66 181 -18 q 15 311 15 150 l 147 311 q 199 154 147 211 q 331 97 251 97 q 506 321 506 97 z "},"K":{"ha":925,"x_min":119,"x_max":935,"o":"m 261 1007 l 261 500 l 715 1007 l 892 1007 l 515 596 l 935 0 l 765 0 l 419 492 l 261 317 l 261 0 l 119 0 l 119 1007 l 261 1007 z "},"L":{"ha":793,"x_min":119,"x_max":793,"o":"m 261 1007 l 261 122 l 793 122 l 793 0 l 119 0 l 119 1007 l 261 1007 z "},"M":{"ha":1228,"x_min":119,"x_max":1108,"o":"m 689 0 l 539 0 l 261 878 l 261 0 l 119 0 l 119 1007 l 357 1007 l 614 168 l 871 1007 l 1108 1007 l 1108 0 l 967 0 l 967 878 l 689 0 z "},"N":{"ha":1049,"x_min":119,"x_max":929,"o":"m 929 0 l 722 0 l 261 860 l 261 0 l 119 0 l 119 1007 l 328 1007 l 788 150 l 788 1007 l 929 1007 l 929 0 z "},"O":{"ha":1086,"x_min":71,"x_max":1015,"o":"m 308 799 q 261 746 308 799 q 215 504 215 693 q 308 208 215 315 q 543 101 400 101 q 778 208 686 101 q 871 504 871 315 q 778 799 871 693 q 543 906 686 906 q 308 799 400 906 m 887 880 q 951 807 887 880 q 1015 504 1015 735 q 887 128 1015 274 q 543 -18 758 -18 q 199 128 328 -18 q 71 504 71 274 q 199 880 71 735 q 543 1025 328 1025 q 887 880 758 1025 z "},"P":{"ha":883,"x_min":119,"x_max":853,"o":"m 119 1007 l 435 1007 q 746 942 639 1007 q 853 703 853 876 q 823 550 853 611 q 735 456 793 489 q 605 411 676 424 q 435 399 533 399 l 261 399 l 261 0 l 119 0 l 119 1007 m 446 888 l 261 888 l 261 522 l 446 522 q 551 528 511 522 q 631 551 592 533 q 690 606 671 568 q 708 703 708 643 q 690 801 708 763 q 632 857 671 839 q 551 881 593 875 q 446 888 508 888 z "},"Q":{"ha":1086,"x_min":71,"x_max":1015,"o":"m 1015 504 q 896 139 1015 282 l 1015 19 l 929 -67 l 806 57 q 543 -18 694 -18 q 199 128 328 -18 q 71 504 71 274 q 199 880 71 735 q 543 1025 328 1025 q 887 880 758 1025 q 1015 504 1015 735 m 308 799 q 261 746 308 799 q 215 504 215 693 q 308 208 215 315 q 543 101 400 101 q 713 150 635 101 l 619 243 l 706 331 l 799 236 q 871 504 871 342 q 778 799 871 693 q 543 906 686 906 q 308 799 400 906 z "},"R":{"ha":943,"x_min":119,"x_max":892,"o":"m 733 0 l 515 425 q 439 424 489 424 l 261 424 l 261 0 l 119 0 l 119 1007 l 439 1007 q 609 995 539 1007 q 739 953 679 983 q 828 863 799 922 q 858 717 858 804 q 658 447 858 501 l 892 0 l 733 0 m 450 888 l 261 888 l 261 543 l 450 543 q 555 548 514 543 q 635 569 596 553 q 694 622 675 586 q 713 714 713 658 q 699 792 713 760 q 663 842 685 824 q 606 872 642 861 q 535 885 569 882 q 450 888 500 888 z "},"S":{"ha":890,"x_min":44,"x_max":842,"o":"m 78 750 q 136 906 78 840 q 274 998 194 971 q 442 1025 354 1025 q 691 956 588 1025 q 824 750 794 888 l 686 750 q 592 868 663 831 q 436 906 521 906 q 292 869 361 906 q 222 758 222 833 q 386 604 222 640 l 503 578 q 598 554 557 567 q 688 518 639 542 q 767 465 736 494 q 820 389 799 436 q 842 283 842 342 q 730 63 842 143 q 458 -18 618 -18 q 173 71 282 -18 q 44 313 64 160 l 183 313 q 461 101 224 101 q 634 148 572 101 q 696 271 696 194 q 640 385 696 346 q 479 449 585 424 l 354 475 q 156 568 235 501 q 78 750 78 635 z "},"T":{"ha":797,"x_min":0,"x_max":797,"o":"m 328 0 l 328 885 l 0 885 l 0 1007 l 797 1007 l 797 885 l 469 885 l 469 0 l 328 0 z "},"U":{"ha":1015,"x_min":104,"x_max":911,"o":"m 104 1007 l 246 1007 l 246 394 q 306 174 246 243 q 506 104 367 104 q 708 180 646 104 q 769 410 769 256 l 769 1007 l 911 1007 l 911 421 q 816 89 911 196 q 506 -18 721 -18 q 199 80 293 -18 q 104 410 104 178 l 104 1007 z "},"V":{"ha":886,"x_min":15,"x_max":872,"o":"m 15 1007 l 171 1007 l 450 146 l 724 1007 l 872 1007 l 531 0 l 361 0 l 15 1007 z "},"W":{"ha":1281,"x_min":22,"x_max":1258,"o":"m 725 1007 l 924 161 l 1110 1007 l 1258 1007 l 1007 0 l 835 0 l 640 828 l 450 0 l 278 0 l 22 1007 l 178 1007 l 372 161 l 558 1007 l 725 1007 z "},"X":{"ha":911,"x_min":0,"x_max":911,"o":"m 0 0 l 374 518 l 25 1007 l 193 1007 l 458 635 l 726 1007 l 886 1007 l 538 524 l 911 0 l 744 0 l 453 407 l 160 0 l 0 0 z "},"Y":{"ha":867,"x_min":0,"x_max":867,"o":"m 0 1007 l 156 1007 l 431 515 l 711 1007 l 867 1007 l 497 390 l 497 0 l 356 0 l 356 393 l 0 1007 z "},"Z":{"ha":879,"x_min":57,"x_max":839,"o":"m 817 1007 l 817 885 l 225 122 l 839 122 l 839 0 l 57 0 l 57 122 l 650 885 l 103 885 l 103 1007 l 817 1007 z "},"[":{"ha":439,"x_min":113,"x_max":425,"o":"m 113 1007 l 425 1007 l 425 900 l 235 900 l 235 -136 l 425 -136 l 425 -243 l 113 -243 l 113 1007 z "},"\\":{"ha":524,"x_min":0,"x_max":524,"o":"m 126 1007 l 524 0 l 396 0 l 0 1007 l 126 1007 z "},"]":{"ha":439,"x_min":14,"x_max":326,"o":"m 14 1007 l 326 1007 l 326 -243 l 14 -243 l 14 -136 l 204 -136 l 204 900 l 14 900 l 14 1007 z "},"^":{"ha":613,"x_min":-31,"x_max":642,"o":"m 357 1007 l 642 469 l 506 469 l 303 849 l 104 469 l -31 469 l 249 1007 l 357 1007 z "},"_":{"ha":636,"x_min":44,"x_max":592,"o":"m 592 -121 l 44 -121 l 44 -1 l 592 -1 l 592 -121 z "},"`":{"ha":349,"x_min":31,"x_max":318,"o":"m 211 846 l 31 1007 l 192 1007 l 318 846 l 211 846 z "},"a":{"ha":776,"x_min":56,"x_max":706,"o":"m 571 313 l 571 360 q 288 307 381 342 q 196 200 196 272 q 235 114 196 146 q 340 82 274 82 q 506 136 440 82 q 571 313 571 190 m 313 -18 q 129 40 203 -18 q 56 197 56 97 q 90 307 56 261 q 195 383 124 353 q 351 429 267 413 q 561 460 436 446 l 561 478 q 392 660 561 660 q 269 621 314 660 q 221 511 225 582 l 90 511 q 187 694 99 626 q 390 763 275 763 q 617 688 544 763 q 688 454 689 613 l 686 282 q 706 0 685 100 l 578 0 q 568 103 569 54 q 313 -18 497 -18 z "},"b":{"ha":835,"x_min":100,"x_max":790,"o":"m 284 581 q 252 545 284 581 q 221 371 221 510 q 284 161 221 232 q 439 90 347 90 q 595 165 538 90 q 653 371 653 239 q 595 577 653 503 q 439 651 538 651 q 284 581 347 651 m 100 1007 l 226 1007 l 226 629 q 471 760 301 760 q 698 654 606 760 q 790 371 790 549 q 698 87 790 192 q 471 -18 606 -18 q 226 113 301 -18 l 226 0 l 100 0 l 100 1007 z "},"c":{"ha":774,"x_min":49,"x_max":731,"o":"m 410 760 q 623 681 539 760 q 722 497 707 601 l 594 497 q 528 606 581 564 q 401 649 475 649 q 249 578 311 649 q 186 374 186 507 q 249 166 186 239 q 401 93 311 93 q 532 137 478 93 q 600 243 586 181 l 731 243 q 617 58 710 135 q 397 -18 525 -18 q 143 90 238 -18 q 49 372 49 199 q 147 651 49 542 q 410 760 246 760 z "},"d":{"ha":839,"x_min":49,"x_max":739,"o":"m 613 629 l 613 1007 l 739 1007 l 739 0 l 613 0 l 613 113 q 368 -18 538 -18 q 141 87 233 -18 q 49 371 49 192 q 141 654 49 549 q 368 760 233 760 q 613 629 538 760 m 555 161 q 586 197 555 161 q 618 371 618 232 q 555 581 618 510 q 400 651 492 651 q 244 577 301 651 q 186 371 186 503 q 244 165 186 239 q 400 90 301 90 q 555 161 492 90 z "},"e":{"ha":807,"x_min":49,"x_max":760,"o":"m 760 332 l 185 332 q 256 156 188 218 q 415 93 325 93 q 619 217 565 93 l 750 217 q 635 49 724 115 q 415 -18 546 -18 q 146 92 243 -18 q 49 372 49 201 q 151 653 49 547 q 411 760 254 760 q 675 637 579 760 q 760 332 771 514 m 411 651 q 258 599 321 651 q 186 440 194 546 l 626 440 q 565 588 624 525 q 411 651 507 651 z "},"f":{"ha":435,"x_min":28,"x_max":399,"o":"m 132 747 l 132 801 q 170 965 132 922 q 333 1007 208 1007 l 399 1007 l 399 901 l 336 901 q 272 884 286 901 q 258 808 258 867 l 258 747 l 399 747 l 399 646 l 258 646 l 258 0 l 132 0 l 132 646 l 28 646 l 28 747 l 132 747 z "},"g":{"ha":829,"x_min":49,"x_max":729,"o":"m 603 629 l 603 747 l 729 747 l 729 100 q 658 -162 729 -85 q 400 -261 572 -261 q 191 -203 271 -261 q 93 -32 111 -144 l 228 -32 q 401 -150 254 -150 q 554 -94 503 -150 q 591 -33 579 -67 q 603 71 603 1 l 603 142 q 365 13 528 13 q 142 113 235 13 q 49 386 49 214 q 142 659 49 558 q 365 760 235 760 q 603 629 528 760 m 608 386 q 548 585 608 519 q 397 651 488 651 q 244 581 303 651 q 186 386 186 511 q 244 190 186 260 q 397 119 303 119 q 549 185 489 119 q 608 386 608 251 z "},"h":{"ha":803,"x_min":100,"x_max":714,"o":"m 226 1007 l 226 635 q 468 760 303 760 q 714 472 714 760 l 714 0 l 588 0 l 588 435 q 555 594 588 538 q 424 650 522 650 q 278 588 331 650 q 226 406 226 525 l 226 0 l 100 0 l 100 1007 l 226 1007 z "},"i":{"ha":326,"x_min":100,"x_max":226,"o":"m 100 747 l 226 747 l 226 0 l 100 0 l 100 747 m 100 1007 l 226 1007 l 226 854 l 100 854 l 100 1007 z "},"j":{"ha":326,"x_min":-14,"x_max":226,"o":"m 100 -40 l 100 747 l 226 747 l 226 -37 q 191 -200 226 -157 q 50 -243 156 -243 l -14 -243 l -14 -137 l 22 -137 q 85 -119 71 -137 q 100 -40 100 -100 m 100 1007 l 226 1007 l 226 854 l 100 854 l 100 1007 z "},"k":{"ha":701,"x_min":100,"x_max":722,"o":"m 100 1007 l 226 1007 l 226 411 l 528 747 l 683 747 l 399 438 l 722 0 l 568 0 l 314 344 l 226 250 l 226 0 l 100 0 l 100 1007 z "},"l":{"ha":326,"x_min":100,"x_max":226,"o":"m 226 1007 l 226 0 l 100 0 l 100 1007 l 226 1007 z "},"m":{"ha":1249,"x_min":100,"x_max":1160,"o":"m 226 406 l 226 0 l 100 0 l 100 747 l 226 747 l 226 635 q 451 760 303 760 q 667 628 614 760 q 918 760 751 760 q 1160 472 1160 760 l 1160 0 l 1033 0 l 1033 435 q 1001 593 1033 536 q 874 650 968 650 q 742 587 790 650 q 693 406 693 524 l 693 0 l 567 0 l 567 435 q 534 593 567 536 q 407 650 501 650 q 275 587 324 650 q 226 406 226 524 z "},"n":{"ha":803,"x_min":100,"x_max":714,"o":"m 226 747 l 226 635 q 468 760 303 760 q 714 472 714 760 l 714 0 l 588 0 l 588 435 q 555 594 588 538 q 424 650 522 650 q 278 588 331 650 q 226 406 226 525 l 226 0 l 100 0 l 100 747 l 226 747 z "},"o":{"ha":819,"x_min":51,"x_max":768,"o":"m 186 371 q 250 162 186 231 q 410 93 314 93 q 569 164 504 93 q 633 371 633 235 q 569 580 633 511 q 410 649 506 649 q 250 581 314 649 q 186 371 186 514 m 158 660 q 212 710 158 660 q 410 760 265 760 q 661 660 554 760 q 768 371 768 560 q 661 82 768 182 q 410 -18 554 -18 q 158 82 265 -18 q 51 371 51 182 q 158 660 51 560 z "},"p":{"ha":839,"x_min":100,"x_max":790,"o":"m 100 747 l 226 747 l 226 629 q 471 760 301 760 q 698 654 606 760 q 790 371 790 549 q 698 87 790 192 q 471 -18 606 -18 q 226 113 301 -18 l 226 -243 l 100 -243 l 100 747 m 284 581 q 252 545 284 581 q 221 371 221 510 q 284 161 221 232 q 439 90 347 90 q 595 165 538 90 q 653 371 653 239 q 595 577 653 503 q 439 651 538 651 q 284 581 347 651 z "},"q":{"ha":839,"x_min":49,"x_max":739,"o":"m 613 629 l 613 747 l 739 747 l 739 -243 l 613 -243 l 613 113 q 368 -18 538 -18 q 141 87 233 -18 q 49 371 49 192 q 141 654 49 549 q 368 760 233 760 q 613 629 538 760 m 555 161 q 586 197 555 161 q 618 371 618 232 q 555 581 618 510 q 400 651 492 651 q 244 577 301 651 q 186 371 186 503 q 244 165 186 239 q 400 90 301 90 q 555 161 492 90 z "},"r":{"ha":493,"x_min":100,"x_max":472,"o":"m 472 750 l 472 615 q 401 621 438 621 q 269 567 313 621 q 226 392 226 514 l 226 0 l 100 0 l 100 747 l 224 747 l 224 617 q 435 751 281 744 q 472 750 457 751 z "},"s":{"ha":729,"x_min":44,"x_max":669,"o":"m 660 529 l 528 529 q 351 653 499 653 q 242 629 289 653 q 194 558 194 606 q 223 492 194 515 q 308 457 251 469 l 414 436 q 601 363 532 414 q 669 214 669 313 q 583 44 669 106 q 365 -18 497 -18 q 142 58 226 -18 q 44 242 57 135 l 178 242 q 368 89 211 89 q 492 119 443 89 q 542 200 542 149 q 501 281 542 253 q 390 324 461 308 l 279 346 q 126 413 185 367 q 67 553 67 458 q 152 705 67 649 q 365 761 238 761 q 564 699 486 761 q 660 529 642 638 z "},"t":{"ha":451,"x_min":18,"x_max":404,"o":"m 136 747 l 136 935 l 263 935 l 263 747 l 404 747 l 404 646 l 263 646 l 263 203 q 276 124 263 142 q 340 106 289 106 l 404 106 l 404 0 l 313 0 q 170 36 204 0 q 136 188 136 72 l 136 646 l 18 646 l 18 747 l 136 747 z "},"u":{"ha":789,"x_min":89,"x_max":689,"o":"m 563 0 l 563 107 q 328 -18 486 -18 q 89 269 89 -18 l 89 747 l 215 747 l 215 307 q 247 148 215 204 q 372 92 278 92 q 513 154 464 92 q 563 336 563 217 l 563 747 l 689 747 l 689 0 l 563 0 z "},"v":{"ha":676,"x_min":0,"x_max":676,"o":"m 140 747 l 343 175 l 546 747 l 676 747 l 394 0 l 282 0 l 0 747 l 140 747 z "},"w":{"ha":1000,"x_min":7,"x_max":993,"o":"m 286 194 l 435 747 l 565 747 l 714 194 l 857 747 l 993 747 l 778 0 l 663 0 l 497 601 l 338 0 l 222 0 l 7 747 l 143 747 l 286 194 z "},"x":{"ha":722,"x_min":11,"x_max":711,"o":"m 686 747 l 432 390 l 711 0 l 560 0 l 357 285 l 156 0 l 11 0 l 286 385 l 28 747 l 179 747 l 361 490 l 544 747 l 686 747 z "},"y":{"ha":647,"x_min":0,"x_max":647,"o":"m 515 747 l 647 747 l 381 -32 q 324 -160 350 -119 q 251 -222 299 -201 q 121 -243 204 -243 l 56 -243 l 56 -137 l 107 -137 q 209 -117 178 -137 q 264 -15 240 -96 l 269 0 l 0 747 l 140 747 l 331 171 l 515 747 z "},"z":{"ha":678,"x_min":46,"x_max":633,"o":"m 46 0 l 46 110 l 478 638 l 74 638 l 74 747 l 625 747 l 625 638 l 194 110 l 633 110 l 633 0 l 46 0 z "},"{":{"ha":403,"x_min":15,"x_max":389,"o":"m 389 -243 l 324 -243 q 160 -201 199 -243 q 121 -37 121 -158 l 121 189 q 100 297 121 261 q 15 332 79 332 l 15 433 q 100 469 79 433 q 121 576 121 504 l 121 801 q 160 965 121 922 q 324 1007 199 1007 l 389 1007 l 389 900 l 326 900 q 263 881 278 900 q 249 803 249 863 l 249 574 q 220 441 249 483 q 132 385 192 399 l 132 381 q 220 324 192 367 q 249 192 249 282 l 249 -39 q 263 -117 249 -99 q 326 -136 278 -136 l 389 -136 l 389 -243 z "},"|":{"ha":354,"x_min":119,"x_max":235,"o":"m 119 1007 l 235 1007 l 235 -125 l 119 -125 l 119 1007 z "},"}":{"ha":403,"x_min":14,"x_max":388,"o":"m 14 -243 l 14 -136 l 76 -136 q 140 -117 125 -136 q 154 -39 154 -99 l 154 192 q 183 324 154 282 q 271 381 211 367 l 271 385 q 183 441 211 399 q 154 574 154 483 l 154 803 q 140 881 154 863 q 76 900 125 900 l 14 900 l 14 1007 l 79 1007 q 243 965 204 1007 q 282 801 282 922 l 282 576 q 303 469 282 504 q 388 433 324 433 l 388 332 q 303 297 324 332 q 282 189 282 261 l 282 -37 q 243 -201 282 -158 q 79 -243 204 -243 l 14 -243 z "},"~":{"ha":942,"x_min":100,"x_max":842,"o":"m 628 397 q 693 423 667 397 q 724 493 719 449 l 842 493 q 778 344 835 400 q 628 288 721 288 q 463 335 568 288 q 314 382 358 382 q 247 357 274 382 q 218 288 221 332 l 100 288 q 163 437 106 381 q 314 493 219 493 q 489 445 386 493 q 628 397 592 397 z "}," ":{"ha":329,"x_min":0,"x_max":0,"o":""},"¡":{"ha":340,"x_min":90,"x_max":250,"o":"m 238 46 l 238 -243 l 103 -243 l 103 46 l 131 453 l 210 453 l 238 46 m 250 588 l 90 588 l 90 747 l 250 747 l 250 588 z "},"¢":{"ha":758,"x_min":49,"x_max":722,"o":"m 360 872 l 424 872 l 424 760 q 622 676 546 754 q 714 497 699 599 l 586 497 q 531 600 574 560 q 424 647 489 640 l 424 94 q 535 143 492 101 q 592 243 578 185 l 722 243 q 624 68 706 142 q 424 -17 542 -6 l 424 -135 l 360 -135 l 360 -17 q 131 101 214 -6 q 49 372 49 208 q 131 635 49 531 q 360 757 214 740 l 360 872 m 186 374 q 234 181 186 251 q 360 96 282 110 l 360 644 q 234 563 282 632 q 186 374 186 493 z "},"£":{"ha":793,"x_min":28,"x_max":756,"o":"m 414 918 q 279 881 338 918 q 221 765 221 844 q 234 690 221 731 q 258 625 247 649 q 296 550 269 601 l 564 550 l 564 460 l 336 460 q 356 357 356 401 q 208 133 356 222 l 210 131 q 304 149 261 149 q 420 122 340 149 q 551 94 500 94 q 718 132 628 94 l 756 22 q 563 -24 675 -24 q 419 4 510 -24 q 272 32 328 32 q 69 -24 167 32 l 28 78 q 85 110 56 90 q 147 161 114 129 q 201 239 181 193 q 222 336 222 285 q 197 460 222 396 l 29 460 l 29 550 l 156 550 q 120 624 131 601 q 98 689 110 646 q 86 771 86 732 q 185 962 86 899 q 419 1025 283 1025 q 668 935 578 1025 q 756 700 758 846 l 625 700 q 414 918 619 918 z "},"¤":{"ha":883,"x_min":75,"x_max":808,"o":"m 110 481 q 171 674 110 589 l 75 771 l 143 839 l 238 744 q 438 813 325 813 q 642 742 553 813 l 740 839 l 808 771 l 708 671 q 769 481 769 582 q 708 290 769 375 l 808 192 l 740 124 l 642 221 q 438 153 551 153 q 239 219 325 153 l 143 124 l 75 192 l 171 289 q 110 481 110 374 m 225 481 q 285 321 225 385 q 436 257 344 257 q 595 321 532 257 q 658 481 658 385 q 595 644 658 578 q 436 710 532 710 q 285 644 344 710 q 225 481 225 578 z "},"¥":{"ha":838,"x_min":-7,"x_max":844,"o":"m 714 154 l 476 154 l 476 0 l 349 0 l 349 154 l 122 154 l 122 243 l 349 243 l 349 349 l 122 349 l 122 438 l 314 438 l -7 1007 l 142 1007 l 417 486 l 697 1007 l 844 1007 l 513 438 l 714 438 l 714 349 l 476 349 l 476 243 l 714 243 l 714 154 z "},"¦":{"ha":315,"x_min":100,"x_max":215,"o":"m 100 1007 l 215 1007 l 215 583 l 100 583 l 100 1007 m 100 299 l 215 299 l 215 -125 l 100 -125 l 100 299 z "},"§":{"ha":806,"x_min":51,"x_max":756,"o":"m 400 -151 q 509 -125 468 -151 q 550 -50 550 -99 q 523 25 550 -6 q 417 100 496 56 l 236 196 q 51 438 51 296 q 102 561 51 508 q 232 640 153 614 q 119 829 119 714 q 200 974 119 924 q 390 1025 281 1025 q 590 965 513 1025 q 682 803 667 904 l 550 803 q 385 919 529 919 q 285 897 322 919 q 249 835 249 874 q 274 769 249 797 q 361 708 299 742 l 551 606 q 705 499 654 553 q 756 365 756 444 q 709 233 756 292 q 583 140 663 174 q 679 -31 679 69 q 598 -197 679 -137 q 397 -257 517 -257 q 185 -188 267 -257 q 94 1 104 -119 l 225 1 q 400 -151 250 -151 m 486 503 l 332 585 q 222 529 268 565 q 176 446 176 493 q 201 372 176 404 q 286 308 226 340 l 476 206 l 490 197 q 629 343 629 258 q 597 426 629 390 q 486 503 564 461 z "},"¨":{"ha":507,"x_min":31,"x_max":476,"o":"m 31 869 l 31 1007 l 157 1007 l 157 869 l 31 869 m 349 1007 l 476 1007 l 476 869 l 349 869 l 349 1007 z "},"©":{"ha":1146,"x_min":53,"x_max":1093,"o":"m 53 501 q 203 878 53 731 q 574 1025 353 1025 q 943 878 793 1025 q 1093 501 1093 731 q 943 128 1093 274 q 574 -18 793 -18 q 203 128 353 -18 q 53 501 53 274 m 156 501 q 276 194 156 313 q 574 75 396 75 q 872 193 754 75 q 990 501 990 311 q 872 813 990 693 q 574 932 754 932 q 276 812 396 932 q 156 501 156 692 m 572 315 q 713 419 685 315 l 818 392 q 731 273 794 319 q 572 226 668 226 q 379 303 447 226 q 311 515 311 379 q 382 725 311 650 q 576 800 453 800 q 733 751 672 800 q 814 624 793 703 l 710 594 q 659 682 696 651 q 572 713 622 713 q 465 663 506 713 q 425 515 425 613 q 465 367 425 418 q 572 315 506 315 z "},"ª":{"ha":479,"x_min":40,"x_max":428,"o":"m 335 667 q 194 599 299 599 q 81 632 122 599 q 40 721 40 665 q 62 790 40 761 q 126 834 83 818 q 213 858 168 850 q 321 871 258 867 l 321 889 q 232 969 321 969 q 177 951 200 969 q 151 897 154 933 l 53 897 q 108 1003 57 963 q 240 1043 158 1043 q 422 864 422 1043 q 419 740 419 800 q 428 608 422 646 l 336 608 q 335 667 335 635 m 208 675 q 321 782 321 675 l 321 799 q 181 772 217 786 q 146 725 146 758 q 164 688 146 701 q 208 675 182 675 z "},"«":{"ha":714,"x_min":14,"x_max":683,"o":"m 235 61 l 14 379 l 235 696 l 371 696 l 163 379 l 371 61 l 235 61 m 547 61 l 326 379 l 547 696 l 683 696 l 475 379 l 683 61 l 547 61 z "},"¬":{"ha":942,"x_min":81,"x_max":806,"o":"m 678 478 l 81 478 l 81 597 l 806 597 l 806 136 l 678 136 l 678 478 z "},"­":{"ha":563,"x_min":60,"x_max":501,"o":"m 501 321 l 60 321 l 60 440 l 501 440 l 501 321 z "},"®":{"ha":1146,"x_min":53,"x_max":1093,"o":"m 53 501 q 203 878 53 731 q 574 1025 353 1025 q 943 878 793 1025 q 1093 501 1093 731 q 943 128 1093 274 q 574 -18 793 -18 q 203 128 353 -18 q 53 501 53 274 m 156 501 q 276 194 156 313 q 574 75 396 75 q 872 193 754 75 q 990 501 990 311 q 872 813 990 693 q 574 932 754 932 q 276 812 396 932 q 156 501 156 692 m 703 244 l 590 456 l 565 456 l 485 456 l 485 244 l 371 244 l 371 799 l 540 799 q 738 763 674 799 q 801 626 801 728 q 701 479 801 524 l 829 244 l 703 244 m 688 625 q 655 690 688 672 q 558 708 622 708 l 485 708 l 485 543 l 565 543 q 688 625 688 543 z "},"¯":{"ha":478,"x_min":31,"x_max":447,"o":"m 447 882 l 31 882 l 31 986 l 447 986 l 447 882 z "},"°":{"ha":468,"x_min":31,"x_max":439,"o":"m 90 676 q 60 706 90 676 q 31 821 31 736 q 90 965 31 906 q 233 1025 150 1025 q 379 966 319 1025 q 439 821 439 907 q 379 676 439 736 q 233 617 319 617 q 90 676 150 617 m 160 899 q 146 883 160 899 q 132 821 132 867 q 160 743 132 775 q 233 711 189 711 q 309 743 279 711 q 339 821 339 775 q 309 899 339 867 q 233 931 279 931 q 160 899 189 931 z "},"±":{"ha":942,"x_min":108,"x_max":833,"o":"m 407 524 l 407 739 l 535 739 l 535 524 l 833 524 l 833 404 l 535 404 l 535 188 l 407 188 l 407 404 l 108 404 l 108 524 l 407 524 m 833 0 l 108 0 l 108 119 l 833 119 l 833 0 z "},"²":{"ha":483,"x_min":31,"x_max":446,"o":"m 246 1185 q 381 1144 328 1185 q 433 1035 433 1104 q 363 873 433 954 q 153 696 293 792 l 446 696 l 446 608 l 31 608 l 31 690 q 258 890 189 815 q 328 1028 328 964 q 304 1089 328 1068 q 242 1110 281 1110 q 170 1081 199 1110 q 143 992 142 1051 l 42 992 q 96 1132 40 1079 q 246 1185 151 1185 z "},"³":{"ha":501,"x_min":33,"x_max":461,"o":"m 247 675 q 326 700 296 675 q 357 768 357 725 q 225 863 357 863 l 192 863 l 192 944 l 219 944 q 344 1029 344 944 q 317 1089 344 1068 q 250 1110 290 1110 q 138 1003 153 1110 l 40 1003 q 104 1136 47 1088 q 257 1185 161 1185 q 391 1147 335 1185 q 447 1033 447 1108 q 426 960 447 993 q 368 908 404 926 q 437 852 413 889 q 461 771 461 815 q 399 643 461 688 q 246 599 338 599 q 96 653 153 599 q 33 788 39 707 l 131 788 q 167 706 139 738 q 247 675 196 675 z "},"´":{"ha":349,"x_min":31,"x_max":318,"o":"m 318 1007 l 136 846 l 31 846 l 156 1007 l 318 1007 z "},"µ":{"ha":797,"x_min":82,"x_max":696,"o":"m 207 -243 l 82 -243 q 97 -24 97 -167 l 97 747 l 224 747 l 224 308 q 263 142 224 190 q 385 93 301 93 q 521 155 472 93 q 569 332 569 217 l 569 747 l 696 747 l 696 0 l 569 0 l 569 103 q 490 15 538 49 q 390 -18 443 -18 q 224 65 283 -18 l 224 -12 q 207 -243 224 -160 z "},"¶":{"ha":724,"x_min":0,"x_max":624,"o":"m 0 746 q 85 938 0 869 q 335 1007 169 1007 l 624 1007 l 624 -124 l 518 -124 l 518 910 l 350 910 l 350 -124 l 244 -124 l 244 500 q 71 574 142 513 q 0 746 0 636 z "},"·":{"ha":340,"x_min":90,"x_max":250,"o":"m 250 294 l 90 294 l 90 454 l 250 454 l 250 294 z "},"¸":{"ha":340,"x_min":31,"x_max":310,"o":"m 31 -244 l 53 -189 q 133 -208 94 -208 q 218 -164 218 -208 q 157 -122 218 -122 q 104 -135 124 -122 l 63 -111 l 133 4 l 207 4 l 163 -67 q 204 -62 183 -62 q 282 -88 254 -62 q 310 -157 310 -114 q 264 -240 310 -208 q 160 -271 218 -271 q 31 -244 85 -271 z "},"¹":{"ha":322,"x_min":18,"x_max":244,"o":"m 244 608 l 142 608 l 142 1036 l 18 1036 l 18 1106 q 117 1119 86 1107 q 168 1175 149 1132 l 244 1175 l 244 608 z "},"º":{"ha":493,"x_min":40,"x_max":454,"o":"m 247 679 q 324 714 296 679 q 351 818 351 749 q 324 922 351 886 q 247 958 296 958 q 173 922 201 958 q 144 818 144 885 q 173 715 144 750 q 247 679 201 679 m 394 655 q 364 627 394 655 q 247 599 333 599 q 101 655 161 599 q 40 818 40 711 q 100 982 40 925 q 247 1039 160 1039 q 394 982 335 1039 q 454 818 454 925 q 394 655 454 711 z "},"»":{"ha":714,"x_min":31,"x_max":700,"o":"m 388 379 l 167 61 l 31 61 l 240 379 l 31 696 l 167 696 l 388 379 m 700 379 l 479 61 l 343 61 l 553 379 l 343 696 l 479 696 l 700 379 z "},"¼":{"ha":1125,"x_min":18,"x_max":1103,"o":"m 244 440 l 142 440 l 142 868 l 18 868 l 18 938 q 117 951 86 939 q 168 1007 149 964 l 244 1007 l 244 440 m 185 0 l 44 0 l 739 1007 l 879 1007 l 185 0 m 903 436 l 733 215 l 903 215 l 903 436 m 1103 215 l 1103 131 l 1006 131 l 1006 0 l 903 0 l 903 131 l 624 131 l 624 211 l 904 567 l 1006 567 l 1006 215 l 1103 215 z "},"½":{"ha":1083,"x_min":18,"x_max":1047,"o":"m 244 440 l 142 440 l 142 868 l 18 868 l 18 938 q 117 951 86 939 q 168 1007 149 964 l 244 1007 l 244 440 m 185 0 l 44 0 l 739 1007 l 879 1007 l 185 0 m 847 576 q 982 536 929 576 q 1035 426 1035 496 q 965 265 1035 346 q 754 88 894 183 l 1047 88 l 1047 0 l 632 0 l 632 82 q 860 281 790 207 q 929 419 929 356 q 906 481 929 460 q 843 501 882 501 q 772 472 800 501 q 744 383 743 443 l 643 383 q 697 524 642 471 q 847 576 753 576 z "},"¾":{"ha":1304,"x_min":33,"x_max":1282,"o":"m 247 507 q 326 532 296 507 q 357 600 357 557 q 225 694 357 694 l 192 694 l 192 776 l 219 776 q 344 861 344 776 q 317 921 344 900 q 250 942 290 942 q 138 835 153 942 l 40 835 q 104 968 47 919 q 257 1017 161 1017 q 391 978 335 1017 q 447 865 447 940 q 426 792 447 825 q 368 740 404 758 q 437 684 413 721 q 461 603 461 647 q 399 475 461 519 q 246 431 338 431 q 96 485 153 431 q 33 619 39 539 l 131 619 q 167 538 139 569 q 247 507 196 507 m 364 0 l 224 0 l 918 1007 l 1058 1007 l 364 0 m 1082 436 l 913 215 l 1082 215 l 1082 436 m 1282 215 l 1282 131 l 1185 131 l 1185 0 l 1082 0 l 1082 131 l 803 131 l 803 211 l 1083 567 l 1185 567 l 1185 215 l 1282 215 z "},"¿":{"ha":693,"x_min":18,"x_max":667,"o":"m 331 -262 q 110 -200 203 -262 q 18 -18 18 -137 q 33 69 18 29 q 80 146 47 110 q 133 201 113 182 q 200 256 154 219 q 229 276 207 260 q 258 299 251 293 q 281 319 265 304 q 301 344 296 333 q 311 373 306 356 q 317 410 317 390 l 317 453 l 446 453 l 446 406 q 438 347 446 375 q 422 302 429 319 q 390 262 414 285 q 357 232 365 239 q 315 201 349 225 q 275 172 281 176 q 213 121 232 139 q 172 66 193 103 q 151 -14 151 29 q 202 -115 151 -79 q 338 -151 253 -151 q 488 -94 440 -151 q 540 36 536 -36 l 667 36 q 572 -180 667 -97 q 331 -262 476 -262 m 458 588 l 299 588 l 299 747 l 458 747 l 458 588 z "},"À":{"ha":917,"x_min":0,"x_max":917,"o":"m 0 0 l 374 1007 l 538 1007 l 917 0 l 764 0 l 685 218 l 222 218 l 144 0 l 0 0 m 451 864 l 265 339 l 640 339 l 451 864 m 396 1074 l 190 1231 l 369 1231 l 522 1074 l 396 1074 z "},"Á":{"ha":917,"x_min":0,"x_max":917,"o":"m 0 0 l 374 1007 l 538 1007 l 917 0 l 764 0 l 685 218 l 222 218 l 144 0 l 0 0 m 451 864 l 265 339 l 640 339 l 451 864 m 728 1231 l 521 1074 l 396 1074 l 549 1231 l 728 1231 z "},"Â":{"ha":917,"x_min":0,"x_max":917,"o":"m 0 0 l 374 1007 l 538 1007 l 917 0 l 764 0 l 685 218 l 222 218 l 144 0 l 0 0 m 451 864 l 265 339 l 640 339 l 451 864 m 518 1231 l 701 1074 l 553 1074 l 458 1151 l 364 1074 l 215 1074 l 403 1231 l 518 1231 z "},"Ã":{"ha":917,"x_min":0,"x_max":917,"o":"m 0 0 l 374 1007 l 538 1007 l 917 0 l 764 0 l 685 218 l 222 218 l 144 0 l 0 0 m 451 864 l 265 339 l 640 339 l 451 864 m 550 1167 q 615 1229 607 1167 l 714 1229 q 656 1110 699 1147 q 553 1072 613 1072 q 449 1105 507 1072 q 364 1138 390 1138 q 301 1076 308 1138 l 203 1076 q 258 1193 215 1154 q 363 1232 301 1232 q 464 1199 407 1232 q 550 1167 521 1167 z "},"Ä":{"ha":917,"x_min":0,"x_max":917,"o":"m 0 0 l 374 1007 l 538 1007 l 917 0 l 764 0 l 685 218 l 222 218 l 144 0 l 0 0 m 451 864 l 265 339 l 640 339 l 451 864 m 236 1221 l 363 1221 l 363 1083 l 236 1083 l 236 1221 m 554 1221 l 682 1221 l 682 1083 l 554 1083 l 554 1221 z "},"Å":{"ha":917,"x_min":0,"x_max":917,"o":"m 0 0 l 374 1007 l 538 1007 l 917 0 l 764 0 l 685 218 l 222 218 l 144 0 l 0 0 m 451 864 l 265 339 l 640 339 l 451 864 m 458 1299 q 549 1266 513 1299 q 585 1181 585 1233 q 549 1096 585 1129 q 458 1063 513 1063 q 369 1096 406 1063 q 333 1181 333 1129 q 369 1265 333 1232 q 458 1299 406 1299 m 501 1223 q 492 1232 501 1223 q 458 1240 483 1240 q 416 1223 433 1240 q 399 1181 399 1206 q 416 1139 399 1156 q 458 1122 433 1122 q 501 1139 483 1122 q 518 1181 518 1156 q 501 1223 518 1206 z "},"Æ":{"ha":1458,"x_min":0,"x_max":1417,"o":"m 733 1007 l 1417 1007 l 1417 885 l 876 885 l 876 579 l 1385 579 l 1385 457 l 876 457 l 876 122 l 1417 122 l 1417 0 l 733 0 l 733 215 l 310 215 l 156 0 l 0 0 l 733 1007 m 733 804 l 399 339 l 733 339 l 733 804 z "},"Ç":{"ha":1008,"x_min":71,"x_max":964,"o":"m 826 321 l 964 321 q 814 70 932 158 q 528 -18 696 -18 q 193 127 315 -18 q 71 506 71 272 q 199 882 71 739 q 539 1025 326 1025 q 811 935 697 1025 q 958 686 925 846 l 821 686 q 723 845 799 785 q 532 906 647 906 q 304 800 393 906 q 215 506 215 694 q 304 209 215 317 q 536 101 393 101 q 727 160 653 101 q 826 321 801 219 m 378 -244 l 400 -189 q 481 -208 442 -208 q 565 -164 565 -208 q 504 -122 565 -122 q 451 -135 471 -122 l 410 -111 l 481 4 l 554 4 l 510 -67 q 551 -62 531 -62 q 629 -88 601 -62 q 657 -157 657 -114 q 611 -240 657 -208 q 507 -271 565 -271 q 378 -244 432 -271 z "},"È":{"ha":851,"x_min":119,"x_max":803,"o":"m 119 0 l 119 1007 l 803 1007 l 803 885 l 261 885 l 261 579 l 771 579 l 771 457 l 261 457 l 261 122 l 803 122 l 803 0 l 119 0 m 426 1074 l 221 1231 l 400 1231 l 553 1074 l 426 1074 z "},"É":{"ha":851,"x_min":119,"x_max":803,"o":"m 119 0 l 119 1007 l 803 1007 l 803 885 l 261 885 l 261 579 l 771 579 l 771 457 l 261 457 l 261 122 l 803 122 l 803 0 l 119 0 m 731 1231 l 524 1074 l 399 1074 l 551 1231 l 731 1231 z "},"Ê":{"ha":851,"x_min":119,"x_max":803,"o":"m 119 0 l 119 1007 l 803 1007 l 803 885 l 261 885 l 261 579 l 771 579 l 771 457 l 261 457 l 261 122 l 803 122 l 803 0 l 119 0 m 531 1231 l 714 1074 l 565 1074 l 471 1151 l 376 1074 l 228 1074 l 415 1231 l 531 1231 z "},"Ë":{"ha":851,"x_min":119,"x_max":803,"o":"m 119 0 l 119 1007 l 803 1007 l 803 885 l 261 885 l 261 579 l 771 579 l 771 457 l 261 457 l 261 122 l 803 122 l 803 0 l 119 0 m 239 1221 l 365 1221 l 365 1083 l 239 1083 l 239 1221 m 557 1221 l 685 1221 l 685 1083 l 557 1083 l 557 1221 z "},"Ì":{"ha":381,"x_min":-76,"x_max":261,"o":"m 261 1007 l 261 0 l 119 0 l 119 1007 l 261 1007 m 129 1074 l -76 1231 l 103 1231 l 256 1074 l 129 1074 z "},"Í":{"ha":381,"x_min":119,"x_max":460,"o":"m 261 1007 l 261 0 l 119 0 l 119 1007 l 261 1007 m 460 1231 l 253 1074 l 128 1074 l 281 1231 l 460 1231 z "},"Î":{"ha":381,"x_min":-51,"x_max":435,"o":"m 261 1007 l 261 0 l 119 0 l 119 1007 l 261 1007 m 251 1231 l 435 1074 l 286 1074 l 192 1151 l 97 1074 l -51 1074 l 136 1231 l 251 1231 z "},"Ï":{"ha":381,"x_min":-31,"x_max":415,"o":"m 261 1007 l 261 0 l 119 0 l 119 1007 l 261 1007 m -31 1221 l 96 1221 l 96 1083 l -31 1083 l -31 1221 m 288 1221 l 415 1221 l 415 1083 l 288 1083 l 288 1221 z "},"Ð":{"ha":1013,"x_min":31,"x_max":943,"o":"m 119 1007 l 394 1007 q 615 981 519 1007 q 787 899 711 956 q 903 743 863 843 q 943 504 943 643 q 798 117 943 233 q 394 0 653 0 l 119 0 l 119 449 l 31 449 l 31 574 l 119 574 l 119 1007 m 799 504 q 775 675 799 603 q 715 788 751 747 q 622 851 679 828 q 513 881 565 874 q 390 888 461 888 l 261 888 l 261 574 l 482 574 l 482 449 l 261 449 l 261 119 l 390 119 q 513 126 461 119 q 622 156 565 133 q 715 220 679 179 q 775 333 751 261 q 799 504 799 404 z "},"Ñ":{"ha":1049,"x_min":119,"x_max":929,"o":"m 929 0 l 722 0 l 261 860 l 261 0 l 119 0 l 119 1007 l 328 1007 l 788 150 l 788 1007 l 929 1007 l 929 0 m 643 1167 q 708 1229 700 1167 l 807 1229 q 749 1110 792 1147 q 646 1072 706 1072 q 542 1105 600 1072 q 457 1138 483 1138 q 394 1076 401 1138 l 296 1076 q 351 1193 308 1154 q 456 1232 394 1232 q 557 1199 500 1232 q 643 1167 614 1167 z "},"Ò":{"ha":1086,"x_min":71,"x_max":1015,"o":"m 308 799 q 261 746 308 799 q 215 504 215 693 q 308 208 215 315 q 543 101 400 101 q 778 208 686 101 q 871 504 871 315 q 778 799 871 693 q 543 906 686 906 q 308 799 400 906 m 887 880 q 951 807 887 880 q 1015 504 1015 735 q 887 128 1015 274 q 543 -18 758 -18 q 199 128 328 -18 q 71 504 71 274 q 199 880 71 735 q 543 1025 328 1025 q 887 880 758 1025 m 481 1074 l 275 1231 l 454 1231 l 607 1074 l 481 1074 z "},"Ó":{"ha":1086,"x_min":71,"x_max":1015,"o":"m 308 799 q 261 746 308 799 q 215 504 215 693 q 308 208 215 315 q 543 101 400 101 q 778 208 686 101 q 871 504 871 315 q 778 799 871 693 q 543 906 686 906 q 308 799 400 906 m 887 880 q 951 807 887 880 q 1015 504 1015 735 q 887 128 1015 274 q 543 -18 758 -18 q 199 128 328 -18 q 71 504 71 274 q 199 880 71 735 q 543 1025 328 1025 q 887 880 758 1025 m 813 1231 l 606 1074 l 481 1074 l 633 1231 l 813 1231 z "},"Ô":{"ha":1086,"x_min":71,"x_max":1015,"o":"m 308 799 q 261 746 308 799 q 215 504 215 693 q 308 208 215 315 q 543 101 400 101 q 778 208 686 101 q 871 504 871 315 q 778 799 871 693 q 543 906 686 906 q 308 799 400 906 m 887 880 q 951 807 887 880 q 1015 504 1015 735 q 887 128 1015 274 q 543 -18 758 -18 q 199 128 328 -18 q 71 504 71 274 q 199 880 71 735 q 543 1025 328 1025 q 887 880 758 1025 m 603 1231 l 786 1074 l 638 1074 l 543 1151 l 449 1074 l 300 1074 l 488 1231 l 603 1231 z "},"Õ":{"ha":1086,"x_min":71,"x_max":1015,"o":"m 308 799 q 261 746 308 799 q 215 504 215 693 q 308 208 215 315 q 543 101 400 101 q 778 208 686 101 q 871 504 871 315 q 778 799 871 693 q 543 906 686 906 q 308 799 400 906 m 887 880 q 951 807 887 880 q 1015 504 1015 735 q 887 128 1015 274 q 543 -18 758 -18 q 199 128 328 -18 q 71 504 71 274 q 199 880 71 735 q 543 1025 328 1025 q 887 880 758 1025 m 635 1167 q 700 1229 692 1167 l 799 1229 q 740 1110 783 1147 q 638 1072 697 1072 q 533 1105 592 1072 q 449 1138 475 1138 q 386 1076 393 1138 l 288 1076 q 343 1193 300 1154 q 447 1232 386 1232 q 549 1199 492 1232 q 635 1167 606 1167 z "},"Ö":{"ha":1086,"x_min":71,"x_max":1015,"o":"m 308 799 q 261 746 308 799 q 215 504 215 693 q 308 208 215 315 q 543 101 400 101 q 778 208 686 101 q 871 504 871 315 q 778 799 871 693 q 543 906 686 906 q 308 799 400 906 m 887 880 q 951 807 887 880 q 1015 504 1015 735 q 887 128 1015 274 q 543 -18 758 -18 q 199 128 328 -18 q 71 504 71 274 q 199 880 71 735 q 543 1025 328 1025 q 887 880 758 1025 m 321 1221 l 447 1221 l 447 1083 l 321 1083 l 321 1221 m 639 1221 l 767 1221 l 767 1083 l 639 1083 l 639 1221 z "},"×":{"ha":942,"x_min":144,"x_max":797,"o":"m 797 132 l 708 42 l 467 282 l 235 51 l 144 140 l 378 372 l 144 607 l 235 696 l 467 464 l 700 694 l 790 606 l 557 372 l 797 132 z "},"Ø":{"ha":1085,"x_min":71,"x_max":1015,"o":"m 1015 504 q 887 128 1015 274 q 543 -18 758 -18 q 238 90 357 -18 l 144 -19 l 89 31 l 185 143 q 71 504 71 288 q 199 880 71 735 q 543 1025 328 1025 q 847 918 722 1025 l 928 1014 l 983 965 l 899 865 q 1015 504 1015 728 m 871 504 q 807 758 871 654 l 324 190 q 543 101 408 101 q 778 208 686 101 q 871 504 871 315 m 215 504 q 276 251 215 354 l 761 818 q 543 906 672 906 q 308 799 400 906 q 215 504 215 693 z "},"Ù":{"ha":1015,"x_min":104,"x_max":911,"o":"m 104 1007 l 246 1007 l 246 394 q 306 174 246 243 q 506 104 367 104 q 708 180 646 104 q 769 410 769 256 l 769 1007 l 911 1007 l 911 421 q 816 89 911 196 q 506 -18 721 -18 q 199 80 293 -18 q 104 410 104 178 l 104 1007 m 444 1074 l 239 1231 l 418 1231 l 571 1074 l 444 1074 z "},"Ú":{"ha":1015,"x_min":104,"x_max":911,"o":"m 104 1007 l 246 1007 l 246 394 q 306 174 246 243 q 506 104 367 104 q 708 180 646 104 q 769 410 769 256 l 769 1007 l 911 1007 l 911 421 q 816 89 911 196 q 506 -18 721 -18 q 199 80 293 -18 q 104 410 104 178 l 104 1007 m 763 1231 l 556 1074 l 431 1074 l 583 1231 l 763 1231 z "},"Û":{"ha":1015,"x_min":104,"x_max":911,"o":"m 104 1007 l 246 1007 l 246 394 q 306 174 246 243 q 506 104 367 104 q 708 180 646 104 q 769 410 769 256 l 769 1007 l 911 1007 l 911 421 q 816 89 911 196 q 506 -18 721 -18 q 199 80 293 -18 q 104 410 104 178 l 104 1007 m 567 1231 l 750 1074 l 601 1074 l 507 1151 l 413 1074 l 264 1074 l 451 1231 l 567 1231 z "},"Ü":{"ha":1015,"x_min":104,"x_max":911,"o":"m 104 1007 l 246 1007 l 246 394 q 306 174 246 243 q 506 104 367 104 q 708 180 646 104 q 769 410 769 256 l 769 1007 l 911 1007 l 911 421 q 816 89 911 196 q 506 -18 721 -18 q 199 80 293 -18 q 104 410 104 178 l 104 1007 m 285 1221 l 411 1221 l 411 1083 l 285 1083 l 285 1221 m 603 1221 l 731 1221 l 731 1083 l 603 1083 l 603 1221 z "},"Ý":{"ha":867,"x_min":0,"x_max":867,"o":"m 0 1007 l 156 1007 l 431 515 l 711 1007 l 867 1007 l 497 390 l 497 0 l 356 0 l 356 393 l 0 1007 m 675 1231 l 468 1074 l 343 1074 l 496 1231 l 675 1231 z "},"Þ":{"ha":861,"x_min":119,"x_max":831,"o":"m 261 832 l 413 832 q 723 763 615 832 q 831 519 831 694 q 801 367 831 429 q 713 270 771 304 q 582 222 654 236 q 413 208 510 208 l 261 208 l 261 0 l 119 0 l 119 1007 l 261 1007 l 261 832 m 422 707 l 261 707 l 261 333 l 422 333 q 508 337 472 333 q 579 352 543 340 q 637 384 615 364 q 672 438 658 404 q 686 519 686 472 q 667 618 686 579 q 610 676 649 657 q 528 701 571 694 q 422 707 486 707 z "},"ß":{"ha":879,"x_min":100,"x_max":828,"o":"m 226 0 l 100 0 l 100 682 q 176 928 100 851 q 456 1024 265 1024 q 681 958 593 1024 q 769 785 769 893 q 618 567 769 628 q 828 297 828 515 q 797 149 828 213 q 713 51 767 86 q 595 -1 658 15 q 457 -18 532 -18 q 306 -3 382 -18 l 333 117 q 463 96 396 96 q 627 143 563 96 q 692 296 692 190 q 410 497 692 497 l 406 497 l 406 613 l 408 613 q 581 653 521 613 q 642 769 642 694 q 590 878 642 838 q 454 919 538 919 q 269 851 319 919 q 226 682 226 799 l 226 0 z "},"à":{"ha":776,"x_min":56,"x_max":706,"o":"m 571 313 l 571 360 q 288 307 381 342 q 196 200 196 272 q 235 114 196 146 q 340 82 274 82 q 506 136 440 82 q 571 313 571 190 m 313 -18 q 129 40 203 -18 q 56 197 56 97 q 90 307 56 261 q 195 383 124 353 q 351 429 267 413 q 561 460 436 446 l 561 478 q 392 660 561 660 q 269 621 314 660 q 221 511 225 582 l 90 511 q 187 694 99 626 q 390 763 275 763 q 617 688 544 763 q 688 454 689 613 l 686 282 q 706 0 685 100 l 578 0 q 568 103 569 54 q 313 -18 497 -18 m 342 846 l 161 1007 l 322 1007 l 449 846 l 342 846 z "},"á":{"ha":776,"x_min":56,"x_max":706,"o":"m 571 313 l 571 360 q 288 307 381 342 q 196 200 196 272 q 235 114 196 146 q 340 82 274 82 q 506 136 440 82 q 571 313 571 190 m 313 -18 q 129 40 203 -18 q 56 197 56 97 q 90 307 56 261 q 195 383 124 353 q 351 429 267 413 q 561 460 436 446 l 561 478 q 392 660 561 660 q 269 621 314 660 q 221 511 225 582 l 90 511 q 187 694 99 626 q 390 763 275 763 q 617 688 544 763 q 688 454 689 613 l 686 282 q 706 0 685 100 l 578 0 q 568 103 569 54 q 313 -18 497 -18 m 615 1007 l 433 846 l 328 846 l 453 1007 l 615 1007 z "},"â":{"ha":776,"x_min":56,"x_max":706,"o":"m 571 313 l 571 360 q 288 307 381 342 q 196 200 196 272 q 235 114 196 146 q 340 82 274 82 q 506 136 440 82 q 571 313 571 190 m 313 -18 q 129 40 203 -18 q 56 197 56 97 q 90 307 56 261 q 195 383 124 353 q 351 429 267 413 q 561 460 436 446 l 561 478 q 392 660 561 660 q 269 621 314 660 q 221 511 225 582 l 90 511 q 187 694 99 626 q 390 763 275 763 q 617 688 544 763 q 688 454 689 613 l 686 282 q 706 0 685 100 l 578 0 q 568 103 569 54 q 313 -18 497 -18 m 458 1007 l 638 846 l 504 846 l 394 921 l 285 846 l 151 846 l 335 1007 l 458 1007 z "},"ã":{"ha":776,"x_min":56,"x_max":706,"o":"m 571 313 l 571 360 q 288 307 381 342 q 196 200 196 272 q 235 114 196 146 q 340 82 274 82 q 506 136 440 82 q 571 313 571 190 m 313 -18 q 129 40 203 -18 q 56 197 56 97 q 90 307 56 261 q 195 383 124 353 q 351 429 267 413 q 561 460 436 446 l 561 478 q 392 660 561 660 q 269 621 314 660 q 221 511 225 582 l 90 511 q 187 694 99 626 q 390 763 275 763 q 617 688 544 763 q 688 454 689 613 l 686 282 q 706 0 685 100 l 578 0 q 568 103 569 54 q 313 -18 497 -18 m 472 944 q 538 1007 529 944 l 636 1007 q 578 888 621 925 q 475 850 535 850 q 371 883 429 850 q 286 917 313 917 q 224 856 231 917 l 125 856 q 181 972 138 933 q 285 1011 224 1011 q 386 978 329 1011 q 472 944 443 944 z "},"ä":{"ha":776,"x_min":56,"x_max":706,"o":"m 571 313 l 571 360 q 288 307 381 342 q 196 200 196 272 q 235 114 196 146 q 340 82 274 82 q 506 136 440 82 q 571 313 571 190 m 313 -18 q 129 40 203 -18 q 56 197 56 97 q 90 307 56 261 q 195 383 124 353 q 351 429 267 413 q 561 460 436 446 l 561 478 q 392 660 561 660 q 269 621 314 660 q 221 511 225 582 l 90 511 q 187 694 99 626 q 390 763 275 763 q 617 688 544 763 q 688 454 689 613 l 686 282 q 706 0 685 100 l 578 0 q 568 103 569 54 q 313 -18 497 -18 m 158 869 l 158 1007 l 285 1007 l 285 869 l 158 869 m 476 1007 l 604 1007 l 604 869 l 476 869 l 476 1007 z "},"å":{"ha":776,"x_min":56,"x_max":706,"o":"m 571 313 l 571 360 q 288 307 381 342 q 196 200 196 272 q 235 114 196 146 q 340 82 274 82 q 506 136 440 82 q 571 313 571 190 m 313 -18 q 129 40 203 -18 q 56 197 56 97 q 90 307 56 261 q 195 383 124 353 q 351 429 267 413 q 561 460 436 446 l 561 478 q 392 660 561 660 q 269 621 314 660 q 221 511 225 582 l 90 511 q 187 694 99 626 q 390 763 275 763 q 617 688 544 763 q 688 454 689 613 l 686 282 q 706 0 685 100 l 578 0 q 568 103 569 54 q 313 -18 497 -18 m 394 1069 q 485 1037 449 1069 q 521 951 521 1004 q 485 867 521 900 q 394 833 449 833 q 306 867 342 833 q 269 951 269 900 q 306 1036 269 1003 q 394 1069 342 1069 m 437 994 q 428 1002 437 994 q 394 1011 419 1011 q 352 994 369 1011 q 335 951 335 976 q 352 910 335 926 q 394 893 369 893 q 437 910 419 893 q 454 951 454 926 q 437 994 454 976 z "},"æ":{"ha":1319,"x_min":56,"x_max":1272,"o":"m 313 -18 q 129 40 203 -18 q 56 197 56 97 q 90 307 56 261 q 195 383 124 353 q 351 429 267 413 q 561 460 436 446 l 561 478 q 392 660 561 660 q 269 621 314 660 q 221 511 225 582 l 90 511 q 187 694 99 626 q 390 763 275 763 q 653 633 589 763 q 924 760 753 760 q 1188 637 1092 760 q 1272 332 1283 514 l 697 332 q 769 156 700 218 q 928 93 838 93 q 1132 217 1078 93 l 1263 217 q 1147 49 1236 115 q 928 -18 1058 -18 q 629 138 726 -18 q 313 -18 539 -18 m 571 313 l 571 356 l 571 360 q 288 307 381 342 q 196 200 196 272 q 235 114 196 146 q 340 82 274 82 q 506 136 440 82 q 571 313 571 190 m 924 651 q 770 599 833 651 q 699 440 707 546 l 1139 440 q 1078 588 1136 525 q 924 651 1019 651 z "},"ç":{"ha":774,"x_min":49,"x_max":731,"o":"m 410 760 q 623 681 539 760 q 722 497 707 601 l 594 497 q 528 606 581 564 q 401 649 475 649 q 249 578 311 649 q 186 374 186 507 q 249 166 186 239 q 401 93 311 93 q 532 137 478 93 q 600 243 586 181 l 731 243 q 617 58 710 135 q 397 -18 525 -18 q 143 90 238 -18 q 49 372 49 199 q 147 651 49 542 q 410 760 246 760 m 238 -244 l 260 -189 q 340 -208 301 -208 q 425 -164 425 -208 q 364 -122 425 -122 q 311 -135 331 -122 l 269 -111 l 340 4 l 414 4 l 369 -67 q 411 -62 390 -62 q 489 -88 461 -62 q 517 -157 517 -114 q 471 -240 517 -208 q 367 -271 425 -271 q 238 -244 292 -271 z "},"è":{"ha":807,"x_min":49,"x_max":760,"o":"m 760 332 l 185 332 q 256 156 188 218 q 415 93 325 93 q 619 217 565 93 l 750 217 q 635 49 724 115 q 415 -18 546 -18 q 146 92 243 -18 q 49 372 49 201 q 151 653 49 547 q 411 760 254 760 q 675 637 579 760 q 760 332 771 514 m 411 651 q 258 599 321 651 q 186 440 194 546 l 626 440 q 565 588 624 525 q 411 651 507 651 m 347 846 l 167 1007 l 328 1007 l 454 846 l 347 846 z "},"é":{"ha":807,"x_min":49,"x_max":760,"o":"m 760 332 l 185 332 q 256 156 188 218 q 415 93 325 93 q 619 217 565 93 l 750 217 q 635 49 724 115 q 415 -18 546 -18 q 146 92 243 -18 q 49 372 49 201 q 151 653 49 547 q 411 760 254 760 q 675 637 579 760 q 760 332 771 514 m 411 651 q 258 599 321 651 q 186 440 194 546 l 626 440 q 565 588 624 525 q 411 651 507 651 m 635 1007 l 453 846 l 347 846 l 472 1007 l 635 1007 z "},"ê":{"ha":807,"x_min":49,"x_max":760,"o":"m 760 332 l 185 332 q 256 156 188 218 q 415 93 325 93 q 619 217 565 93 l 750 217 q 635 49 724 115 q 415 -18 546 -18 q 146 92 243 -18 q 49 372 49 201 q 151 653 49 547 q 411 760 254 760 q 675 637 579 760 q 760 332 771 514 m 411 651 q 258 599 321 651 q 186 440 194 546 l 626 440 q 565 588 624 525 q 411 651 507 651 m 464 1007 l 643 846 l 510 846 l 400 921 l 290 846 l 157 846 l 340 1007 l 464 1007 z "},"ë":{"ha":807,"x_min":49,"x_max":760,"o":"m 760 332 l 185 332 q 256 156 188 218 q 415 93 325 93 q 619 217 565 93 l 750 217 q 635 49 724 115 q 415 -18 546 -18 q 146 92 243 -18 q 49 372 49 201 q 151 653 49 547 q 411 760 254 760 q 675 637 579 760 q 760 332 771 514 m 411 651 q 258 599 321 651 q 186 440 194 546 l 626 440 q 565 588 624 525 q 411 651 507 651 m 178 869 l 178 1007 l 304 1007 l 304 869 l 178 869 m 496 1007 l 624 1007 l 624 869 l 496 869 l 496 1007 z "},"ì":{"ha":326,"x_min":-69,"x_max":226,"o":"m 100 747 l 226 747 l 226 0 l 100 0 l 100 747 m 111 846 l -69 1007 l 92 1007 l 218 846 l 111 846 z "},"í":{"ha":326,"x_min":100,"x_max":397,"o":"m 100 747 l 226 747 l 226 0 l 100 0 l 100 747 m 397 1007 l 215 846 l 110 846 l 235 1007 l 397 1007 z "},"î":{"ha":326,"x_min":-79,"x_max":407,"o":"m 100 747 l 226 747 l 226 0 l 100 0 l 100 747 m 228 1007 l 407 846 l 274 846 l 164 921 l 54 846 l -79 846 l 104 1007 l 228 1007 z "},"ï":{"ha":326,"x_min":-58,"x_max":388,"o":"m 100 747 l 226 747 l 226 0 l 100 0 l 100 747 m -58 869 l -58 1007 l 68 1007 l 68 869 l -58 869 m 260 1007 l 388 1007 l 388 869 l 260 869 l 260 1007 z "},"ð":{"ha":796,"x_min":49,"x_max":738,"o":"m 446 979 l 543 1039 l 607 1003 l 501 938 q 738 439 738 743 q 642 99 738 217 q 388 -18 547 -18 q 140 87 231 -18 q 49 372 49 192 q 139 654 49 549 q 371 760 229 760 q 585 650 504 760 l 586 651 q 396 874 525 785 l 293 811 l 231 844 l 339 911 q 229 967 290 938 l 321 1050 q 446 979 386 1019 m 389 90 q 542 163 483 90 q 600 372 600 235 q 541 580 600 508 q 389 651 482 651 q 238 576 290 651 q 186 372 186 501 q 238 165 186 240 q 389 90 290 90 z "},"ñ":{"ha":803,"x_min":100,"x_max":714,"o":"m 226 747 l 226 635 q 468 760 303 760 q 714 472 714 760 l 714 0 l 588 0 l 588 435 q 555 594 588 538 q 424 650 522 650 q 278 588 331 650 q 226 406 226 525 l 226 0 l 100 0 l 100 747 l 226 747 m 513 944 q 578 1007 569 944 l 676 1007 q 618 888 661 925 q 515 850 575 850 q 411 883 469 850 q 326 917 353 917 q 264 856 271 917 l 165 856 q 221 972 178 933 q 325 1011 264 1011 q 426 978 369 1011 q 513 944 483 944 z "},"ò":{"ha":819,"x_min":51,"x_max":768,"o":"m 186 371 q 250 162 186 231 q 410 93 314 93 q 569 164 504 93 q 633 371 633 235 q 569 580 633 511 q 410 649 506 649 q 250 581 314 649 q 186 371 186 514 m 158 660 q 212 710 158 660 q 410 760 265 760 q 661 660 554 760 q 768 371 768 560 q 661 82 768 182 q 410 -18 554 -18 q 158 82 265 -18 q 51 371 51 182 q 158 660 51 560 m 353 846 l 172 1007 l 333 1007 l 460 846 l 353 846 z "},"ó":{"ha":819,"x_min":51,"x_max":768,"o":"m 186 371 q 250 162 186 231 q 410 93 314 93 q 569 164 504 93 q 633 371 633 235 q 569 580 633 511 q 410 649 506 649 q 250 581 314 649 q 186 371 186 514 m 158 660 q 212 710 158 660 q 410 760 265 760 q 661 660 554 760 q 768 371 768 560 q 661 82 768 182 q 410 -18 554 -18 q 158 82 265 -18 q 51 371 51 182 q 158 660 51 560 m 640 1007 l 458 846 l 353 846 l 478 1007 l 640 1007 z "},"ô":{"ha":819,"x_min":51,"x_max":768,"o":"m 186 371 q 250 162 186 231 q 410 93 314 93 q 569 164 504 93 q 633 371 633 235 q 569 580 633 511 q 410 649 506 649 q 250 581 314 649 q 186 371 186 514 m 158 660 q 212 710 158 660 q 410 760 265 760 q 661 660 554 760 q 768 371 768 560 q 661 82 768 182 q 410 -18 554 -18 q 158 82 265 -18 q 51 371 51 182 q 158 660 51 560 m 469 1007 l 649 846 l 515 846 l 406 921 l 296 846 l 163 846 l 346 1007 l 469 1007 z "},"õ":{"ha":819,"x_min":51,"x_max":768,"o":"m 186 371 q 250 162 186 231 q 410 93 314 93 q 569 164 504 93 q 633 371 633 235 q 569 580 633 511 q 410 649 506 649 q 250 581 314 649 q 186 371 186 514 m 158 660 q 212 710 158 660 q 410 760 265 760 q 661 660 554 760 q 768 371 768 560 q 661 82 768 182 q 410 -18 554 -18 q 158 82 265 -18 q 51 371 51 182 q 158 660 51 560 m 497 944 q 563 1007 554 944 l 661 1007 q 603 888 646 925 q 500 850 560 850 q 396 883 454 850 q 311 917 338 917 q 249 856 256 917 l 150 856 q 206 972 163 933 q 310 1011 249 1011 q 411 978 354 1011 q 497 944 468 944 z "},"ö":{"ha":819,"x_min":51,"x_max":768,"o":"m 186 371 q 250 162 186 231 q 410 93 314 93 q 569 164 504 93 q 633 371 633 235 q 569 580 633 511 q 410 649 506 649 q 250 581 314 649 q 186 371 186 514 m 158 660 q 212 710 158 660 q 410 760 265 760 q 661 660 554 760 q 768 371 768 560 q 661 82 768 182 q 410 -18 554 -18 q 158 82 265 -18 q 51 371 51 182 q 158 660 51 560 m 183 869 l 183 1007 l 310 1007 l 310 869 l 183 869 m 501 1007 l 629 1007 l 629 869 l 501 869 l 501 1007 z "},"÷":{"ha":942,"x_min":108,"x_max":833,"o":"m 394 44 l 394 204 l 554 204 l 554 44 l 394 44 m 394 528 l 394 688 l 554 688 l 554 528 l 394 528 m 833 299 l 108 299 l 108 418 l 833 418 l 833 299 z "},"ø":{"ha":819,"x_min":51,"x_max":768,"o":"m 410 760 q 631 686 535 760 l 683 746 l 740 697 l 685 633 q 768 371 768 529 q 661 82 768 182 q 410 -18 554 -18 q 183 58 281 -18 l 117 -18 l 63 32 l 132 111 q 51 371 51 211 q 158 660 51 560 q 410 760 265 760 m 633 371 q 599 535 633 463 l 263 149 q 410 93 324 93 q 569 164 504 93 q 633 371 633 235 m 186 371 q 218 211 186 272 l 553 594 q 410 649 494 649 q 250 581 314 649 q 186 371 186 514 z "},"ù":{"ha":789,"x_min":89,"x_max":689,"o":"m 563 0 l 563 107 q 328 -18 486 -18 q 89 269 89 -18 l 89 747 l 215 747 l 215 307 q 247 148 215 204 q 372 92 278 92 q 513 154 464 92 q 563 336 563 217 l 563 747 l 689 747 l 689 0 l 563 0 m 368 846 l 188 1007 l 349 1007 l 475 846 l 368 846 z "},"ú":{"ha":789,"x_min":89,"x_max":689,"o":"m 563 0 l 563 107 q 328 -18 486 -18 q 89 269 89 -18 l 89 747 l 215 747 l 215 307 q 247 148 215 204 q 372 92 278 92 q 513 154 464 92 q 563 336 563 217 l 563 747 l 689 747 l 689 0 l 563 0 m 628 1007 l 446 846 l 340 846 l 465 1007 l 628 1007 z "},"û":{"ha":789,"x_min":89,"x_max":689,"o":"m 563 0 l 563 107 q 328 -18 486 -18 q 89 269 89 -18 l 89 747 l 215 747 l 215 307 q 247 148 215 204 q 372 92 278 92 q 513 154 464 92 q 563 336 563 217 l 563 747 l 689 747 l 689 0 l 563 0 m 457 1007 l 636 846 l 503 846 l 393 921 l 283 846 l 150 846 l 333 1007 l 457 1007 z "},"ü":{"ha":789,"x_min":89,"x_max":689,"o":"m 563 0 l 563 107 q 328 -18 486 -18 q 89 269 89 -18 l 89 747 l 215 747 l 215 307 q 247 148 215 204 q 372 92 278 92 q 513 154 464 92 q 563 336 563 217 l 563 747 l 689 747 l 689 0 l 563 0 m 171 869 l 171 1007 l 297 1007 l 297 869 l 171 869 m 489 1007 l 617 1007 l 617 869 l 489 869 l 489 1007 z "},"ý":{"ha":647,"x_min":0,"x_max":647,"o":"m 515 747 l 647 747 l 381 -32 q 324 -160 350 -119 q 251 -222 299 -201 q 121 -243 204 -243 l 56 -243 l 56 -137 l 107 -137 q 209 -117 178 -137 q 264 -15 240 -96 l 269 0 l 0 747 l 140 747 l 331 171 l 515 747 m 554 1007 l 372 846 l 267 846 l 392 1007 l 554 1007 z "},"þ":{"ha":835,"x_min":100,"x_max":788,"o":"m 226 1007 l 226 629 q 471 760 301 760 q 696 654 604 760 q 788 371 788 549 q 696 87 788 192 q 471 -18 604 -18 q 226 113 301 -18 l 226 -243 l 100 -243 l 100 1007 l 226 1007 m 284 581 q 252 545 284 581 q 221 371 221 510 q 284 161 221 232 q 439 90 347 90 q 595 165 538 90 q 653 371 653 239 q 595 577 653 503 q 439 651 538 651 q 284 581 347 651 z "},"ÿ":{"ha":647,"x_min":0,"x_max":647,"o":"m 515 747 l 647 747 l 381 -32 q 324 -160 350 -119 q 251 -222 299 -201 q 121 -243 204 -243 l 56 -243 l 56 -137 l 107 -137 q 209 -117 178 -137 q 264 -15 240 -96 l 269 0 l 0 747 l 140 747 l 331 171 l 515 747 m 101 869 l 101 1007 l 228 1007 l 228 869 l 101 869 m 419 1007 l 547 1007 l 547 869 l 419 869 l 419 1007 z "},"Ā":{"ha":917,"x_min":0,"x_max":917,"o":"m 0 0 l 374 1007 l 538 1007 l 917 0 l 764 0 l 685 218 l 222 218 l 144 0 l 0 0 m 451 864 l 265 339 l 640 339 l 451 864 m 667 1099 l 250 1099 l 250 1203 l 667 1203 l 667 1099 z "},"ā":{"ha":776,"x_min":56,"x_max":706,"o":"m 571 313 l 571 360 q 288 307 381 342 q 196 200 196 272 q 235 114 196 146 q 340 82 274 82 q 506 136 440 82 q 571 313 571 190 m 313 -18 q 129 40 203 -18 q 56 197 56 97 q 90 307 56 261 q 195 383 124 353 q 351 429 267 413 q 561 460 436 446 l 561 478 q 392 660 561 660 q 269 621 314 660 q 221 511 225 582 l 90 511 q 187 694 99 626 q 390 763 275 763 q 617 688 544 763 q 688 454 689 613 l 686 282 q 706 0 685 100 l 578 0 q 568 103 569 54 q 313 -18 497 -18 m 603 882 l 186 882 l 186 986 l 603 986 l 603 882 z "},"Ă":{"ha":917,"x_min":0,"x_max":917,"o":"m 0 0 l 374 1007 l 538 1007 l 917 0 l 764 0 l 685 218 l 222 218 l 144 0 l 0 0 m 451 864 l 265 339 l 640 339 l 451 864 m 571 1231 l 678 1231 q 615 1110 669 1154 q 457 1065 560 1065 q 240 1231 263 1065 l 347 1231 q 458 1150 360 1150 q 571 1231 557 1150 z "},"ă":{"ha":776,"x_min":56,"x_max":706,"o":"m 571 313 l 571 360 q 288 307 381 342 q 196 200 196 272 q 235 114 196 146 q 340 82 274 82 q 506 136 440 82 q 571 313 571 190 m 313 -18 q 129 40 203 -18 q 56 197 56 97 q 90 307 56 261 q 195 383 124 353 q 351 429 267 413 q 561 460 436 446 l 561 478 q 392 660 561 660 q 269 621 314 660 q 221 511 225 582 l 90 511 q 187 694 99 626 q 390 763 275 763 q 617 688 544 763 q 688 454 689 613 l 686 282 q 706 0 685 100 l 578 0 q 568 103 569 54 q 313 -18 497 -18 m 517 1007 l 615 1007 q 393 839 593 839 q 234 888 288 839 q 175 1007 181 936 l 274 1007 q 394 922 285 922 q 517 1007 506 922 z "},"Ą":{"ha":917,"x_min":0,"x_max":917,"o":"m 0 0 l 374 1007 l 538 1007 l 917 0 q 794 -111 794 -60 q 813 -158 794 -143 q 860 -174 832 -174 q 917 -161 889 -174 l 917 -246 q 833 -261 879 -261 q 724 -229 769 -261 q 679 -129 679 -197 q 764 0 679 -62 l 685 218 l 222 218 l 144 0 l 0 0 m 451 864 l 265 339 l 640 339 l 451 864 z "},"ą":{"ha":776,"x_min":56,"x_max":706,"o":"m 571 313 l 571 360 q 288 307 381 342 q 196 200 196 272 q 235 114 196 146 q 340 82 274 82 q 506 136 440 82 q 571 313 571 190 m 578 0 q 568 103 569 54 q 313 -18 497 -18 q 129 40 203 -18 q 56 197 56 97 q 90 307 56 261 q 195 383 124 353 q 351 429 267 413 q 561 460 436 446 l 561 478 q 392 660 561 660 q 269 621 314 660 q 221 511 225 582 l 90 511 q 187 694 99 626 q 390 763 275 763 q 617 688 544 763 q 688 454 689 613 l 686 282 q 706 0 685 100 q 571 -117 571 -56 q 647 -172 571 -172 q 706 -164 675 -172 l 706 -249 q 617 -261 668 -261 q 503 -232 550 -261 q 456 -135 456 -203 q 578 0 456 -53 z "},"Ć":{"ha":1008,"x_min":71,"x_max":964,"o":"m 826 321 l 964 321 q 814 70 932 158 q 528 -18 696 -18 q 193 127 315 -18 q 71 506 71 272 q 199 882 71 739 q 539 1025 326 1025 q 811 935 697 1025 q 958 686 925 846 l 821 686 q 723 845 799 785 q 532 906 647 906 q 304 800 393 906 q 215 506 215 694 q 304 209 215 317 q 536 101 393 101 q 727 160 653 101 q 826 321 801 219 m 786 1231 l 579 1074 l 454 1074 l 607 1231 l 786 1231 z "},"ć":{"ha":774,"x_min":49,"x_max":731,"o":"m 410 760 q 623 681 539 760 q 722 497 707 601 l 594 497 q 528 606 581 564 q 401 649 475 649 q 249 578 311 649 q 186 374 186 507 q 249 166 186 239 q 401 93 311 93 q 532 137 478 93 q 600 243 586 181 l 731 243 q 617 58 710 135 q 397 -18 525 -18 q 143 90 238 -18 q 49 372 49 199 q 147 651 49 542 q 410 760 246 760 m 619 1007 l 438 846 l 332 846 l 457 1007 l 619 1007 z "},"Ĉ":{"ha":1008,"x_min":71,"x_max":964,"o":"m 826 321 l 964 321 q 814 70 932 158 q 528 -18 696 -18 q 193 127 315 -18 q 71 506 71 272 q 199 882 71 739 q 539 1025 326 1025 q 811 935 697 1025 q 958 686 925 846 l 821 686 q 723 845 799 785 q 532 906 647 906 q 304 800 393 906 q 215 506 215 694 q 304 209 215 317 q 536 101 393 101 q 727 160 653 101 q 826 321 801 219 m 597 1231 l 781 1074 l 632 1074 l 538 1151 l 443 1074 l 294 1074 l 482 1231 l 597 1231 z "},"ĉ":{"ha":774,"x_min":49,"x_max":731,"o":"m 410 760 q 623 681 539 760 q 722 497 707 601 l 594 497 q 528 606 581 564 q 401 649 475 649 q 249 578 311 649 q 186 374 186 507 q 249 166 186 239 q 401 93 311 93 q 532 137 478 93 q 600 243 586 181 l 731 243 q 617 58 710 135 q 397 -18 525 -18 q 143 90 238 -18 q 49 372 49 199 q 147 651 49 542 q 410 760 246 760 m 464 1007 l 643 846 l 510 846 l 400 921 l 290 846 l 157 846 l 340 1007 l 464 1007 z "},"Ċ":{"ha":1008,"x_min":71,"x_max":964,"o":"m 826 321 l 964 321 q 814 70 932 158 q 528 -18 696 -18 q 193 127 315 -18 q 71 506 71 272 q 199 882 71 739 q 539 1025 326 1025 q 811 935 697 1025 q 958 686 925 846 l 821 686 q 723 845 799 785 q 532 906 647 906 q 304 800 393 906 q 215 506 215 694 q 304 209 215 317 q 536 101 393 101 q 727 160 653 101 q 826 321 801 219 m 476 1222 l 603 1222 l 603 1085 l 476 1085 l 476 1222 z "},"ċ":{"ha":774,"x_min":49,"x_max":731,"o":"m 410 760 q 623 681 539 760 q 722 497 707 601 l 594 497 q 528 606 581 564 q 401 649 475 649 q 249 578 311 649 q 186 374 186 507 q 249 166 186 239 q 401 93 311 93 q 532 137 478 93 q 600 243 586 181 l 731 243 q 617 58 710 135 q 397 -18 525 -18 q 143 90 238 -18 q 49 372 49 199 q 147 651 49 542 q 410 760 246 760 m 336 1007 l 463 1007 l 463 869 l 336 869 l 336 1007 z "},"Č":{"ha":1008,"x_min":71,"x_max":964,"o":"m 826 321 l 964 321 q 814 70 932 158 q 528 -18 696 -18 q 193 127 315 -18 q 71 506 71 272 q 199 882 71 739 q 539 1025 326 1025 q 811 935 697 1025 q 958 686 925 846 l 821 686 q 723 845 799 785 q 532 906 647 906 q 304 800 393 906 q 215 506 215 694 q 304 209 215 317 q 536 101 393 101 q 727 160 653 101 q 826 321 801 219 m 478 1074 l 296 1231 l 444 1231 l 538 1153 l 633 1231 l 782 1231 l 594 1074 l 478 1074 z "},"č":{"ha":774,"x_min":49,"x_max":731,"o":"m 410 760 q 623 681 539 760 q 722 497 707 601 l 594 497 q 528 606 581 564 q 401 649 475 649 q 249 578 311 649 q 186 374 186 507 q 249 166 186 239 q 401 93 311 93 q 532 137 478 93 q 600 243 586 181 l 731 243 q 617 58 710 135 q 397 -18 525 -18 q 143 90 238 -18 q 49 372 49 199 q 147 651 49 542 q 410 760 246 760 m 336 846 l 157 1007 l 290 1007 l 399 932 l 510 1007 l 643 1007 l 458 846 l 336 846 z "},"Ď":{"ha":1014,"x_min":119,"x_max":943,"o":"m 799 504 q 775 675 799 603 q 715 788 751 747 q 622 851 679 828 q 513 881 565 874 q 390 888 461 888 l 261 888 l 261 119 l 390 119 q 513 126 461 119 q 622 156 565 133 q 715 220 679 179 q 775 333 751 261 q 799 504 799 404 m 119 1007 l 394 1007 q 615 981 519 1007 q 787 899 711 956 q 903 743 863 843 q 943 504 943 643 q 798 117 943 233 q 394 0 653 0 l 119 0 l 119 1007 m 442 1074 l 260 1231 l 408 1231 l 501 1153 l 597 1231 l 746 1231 l 558 1074 l 442 1074 z "},"ď":{"ha":942,"x_min":49,"x_max":969,"o":"m 969 1007 l 872 771 l 792 771 l 833 1007 l 969 1007 m 613 629 l 613 1007 l 739 1007 l 739 0 l 613 0 l 613 113 q 368 -18 538 -18 q 141 87 233 -18 q 49 371 49 192 q 141 654 49 549 q 368 760 233 760 q 613 629 538 760 m 555 161 q 586 197 555 161 q 618 371 618 232 q 555 581 618 510 q 400 651 492 651 q 244 577 301 651 q 186 371 186 503 q 244 165 186 239 q 400 90 301 90 q 555 161 492 90 z "},"Đ":{"ha":1013,"x_min":31,"x_max":943,"o":"m 119 1007 l 394 1007 q 615 981 519 1007 q 787 899 711 956 q 903 743 863 843 q 943 504 943 643 q 798 117 943 233 q 394 0 653 0 l 119 0 l 119 449 l 31 449 l 31 574 l 119 574 l 119 1007 m 799 504 q 775 675 799 603 q 715 788 751 747 q 622 851 679 828 q 513 881 565 874 q 390 888 461 888 l 261 888 l 261 574 l 482 574 l 482 449 l 261 449 l 261 119 l 390 119 q 513 126 461 119 q 622 156 565 133 q 715 220 679 179 q 775 333 751 261 q 799 504 799 404 z "},"đ":{"ha":839,"x_min":49,"x_max":838,"o":"m 613 629 l 613 803 l 438 803 l 438 907 l 613 907 l 613 1007 l 739 1007 l 739 907 l 838 907 l 838 803 l 739 803 l 739 0 l 613 0 l 613 113 q 368 -18 538 -18 q 141 87 233 -18 q 49 371 49 192 q 141 654 49 549 q 368 760 233 760 q 613 629 538 760 m 555 161 q 586 197 555 161 q 618 371 618 232 q 555 581 618 510 q 400 651 492 651 q 244 577 301 651 q 186 371 186 503 q 244 165 186 239 q 400 90 301 90 q 555 161 492 90 z "},"Ē":{"ha":851,"x_min":119,"x_max":803,"o":"m 119 0 l 119 1007 l 803 1007 l 803 885 l 261 885 l 261 579 l 771 579 l 771 457 l 261 457 l 261 122 l 803 122 l 803 0 l 119 0 m 674 1099 l 257 1099 l 257 1203 l 674 1203 l 674 1099 z "},"ē":{"ha":807,"x_min":49,"x_max":760,"o":"m 760 332 l 185 332 q 256 156 188 218 q 415 93 325 93 q 619 217 565 93 l 750 217 q 635 49 724 115 q 415 -18 546 -18 q 146 92 243 -18 q 49 372 49 201 q 151 653 49 547 q 411 760 254 760 q 675 637 579 760 q 760 332 771 514 m 411 651 q 258 599 321 651 q 186 440 194 546 l 626 440 q 565 588 624 525 q 411 651 507 651 m 608 882 l 192 882 l 192 986 l 608 986 l 608 882 z "},"Ĕ":{"ha":851,"x_min":119,"x_max":803,"o":"m 119 0 l 119 1007 l 803 1007 l 803 885 l 261 885 l 261 579 l 771 579 l 771 457 l 261 457 l 261 122 l 803 122 l 803 0 l 119 0 m 574 1231 l 681 1231 q 617 1110 672 1154 q 460 1065 563 1065 q 243 1231 265 1065 l 350 1231 q 461 1150 363 1150 q 574 1231 560 1150 z "},"ĕ":{"ha":807,"x_min":49,"x_max":760,"o":"m 760 332 l 185 332 q 256 156 188 218 q 415 93 325 93 q 619 217 565 93 l 750 217 q 635 49 724 115 q 415 -18 546 -18 q 146 92 243 -18 q 49 372 49 201 q 151 653 49 547 q 411 760 254 760 q 675 637 579 760 q 760 332 771 514 m 411 651 q 258 599 321 651 q 186 440 194 546 l 626 440 q 565 588 624 525 q 411 651 507 651 m 522 1007 l 621 1007 q 399 839 599 839 q 240 888 293 839 q 181 1007 186 936 l 279 1007 q 400 922 290 922 q 522 1007 511 922 z "},"Ė":{"ha":851,"x_min":119,"x_max":803,"o":"m 119 0 l 119 1007 l 803 1007 l 803 885 l 261 885 l 261 579 l 771 579 l 771 457 l 261 457 l 261 122 l 803 122 l 803 0 l 119 0 m 399 1222 l 525 1222 l 525 1085 l 399 1085 l 399 1222 z "},"ė":{"ha":807,"x_min":49,"x_max":760,"o":"m 760 332 l 185 332 q 256 156 188 218 q 415 93 325 93 q 619 217 565 93 l 750 217 q 635 49 724 115 q 415 -18 546 -18 q 146 92 243 -18 q 49 372 49 201 q 151 653 49 547 q 411 760 254 760 q 675 637 579 760 q 760 332 771 514 m 411 651 q 258 599 321 651 q 186 440 194 546 l 626 440 q 565 588 624 525 q 411 651 507 651 m 338 1007 l 464 1007 l 464 869 l 338 869 l 338 1007 z "},"Ę":{"ha":851,"x_min":119,"x_max":803,"o":"m 119 0 l 119 1007 l 803 1007 l 803 885 l 261 885 l 261 579 l 771 579 l 771 457 l 261 457 l 261 122 l 803 122 l 803 0 l 119 0 m 661 0 l 803 0 q 681 -111 681 -60 q 699 -158 681 -143 q 746 -174 718 -174 q 803 -161 775 -174 l 803 -246 q 719 -261 765 -261 q 610 -229 656 -261 q 565 -129 565 -197 q 661 0 565 -53 z "},"ę":{"ha":807,"x_min":49,"x_max":760,"o":"m 417 -18 l 415 -18 q 146 92 243 -18 q 49 372 49 201 q 151 653 49 547 q 411 760 254 760 q 675 637 579 760 q 760 332 771 514 l 185 332 q 256 156 188 218 q 415 93 325 93 q 619 217 565 93 l 750 217 q 590 21 715 85 l 593 22 q 515 -44 547 -6 q 482 -110 482 -83 q 558 -172 482 -172 q 617 -164 586 -172 l 617 -249 q 528 -261 579 -261 q 414 -231 461 -261 q 367 -128 367 -200 q 417 -18 367 -76 m 411 651 q 258 599 321 651 q 186 440 194 546 l 626 440 q 565 588 624 525 q 411 651 507 651 z "},"Ě":{"ha":851,"x_min":119,"x_max":803,"o":"m 119 0 l 119 1007 l 803 1007 l 803 885 l 261 885 l 261 579 l 771 579 l 771 457 l 261 457 l 261 122 l 803 122 l 803 0 l 119 0 m 414 1074 l 232 1231 l 381 1231 l 474 1153 l 569 1231 l 718 1231 l 531 1074 l 414 1074 z "},"ě":{"ha":807,"x_min":49,"x_max":760,"o":"m 760 332 l 185 332 q 256 156 188 218 q 415 93 325 93 q 619 217 565 93 l 750 217 q 635 49 724 115 q 415 -18 546 -18 q 146 92 243 -18 q 49 372 49 201 q 151 653 49 547 q 411 760 254 760 q 675 637 579 760 q 760 332 771 514 m 411 651 q 258 599 321 651 q 186 440 194 546 l 626 440 q 565 588 624 525 q 411 651 507 651 m 336 846 l 157 1007 l 290 1007 l 399 932 l 510 1007 l 643 1007 l 458 846 l 336 846 z "},"Ĝ":{"ha":1069,"x_min":71,"x_max":963,"o":"m 539 1025 q 811 942 697 1025 q 956 714 925 858 l 818 714 q 720 854 792 803 q 532 906 649 906 q 304 800 393 906 q 215 506 215 694 q 303 210 215 318 q 532 101 390 101 q 635 114 586 101 q 730 155 685 126 q 802 237 775 183 q 829 365 829 290 l 829 392 l 563 392 l 563 514 l 963 514 l 963 0 l 851 0 l 844 126 q 526 -18 754 -18 q 192 127 314 -18 q 71 506 71 272 q 199 882 71 739 q 539 1025 326 1025 m 597 1231 l 781 1074 l 632 1074 l 538 1151 l 443 1074 l 294 1074 l 482 1231 l 597 1231 z "},"ĝ":{"ha":829,"x_min":49,"x_max":729,"o":"m 603 629 l 603 747 l 729 747 l 729 100 q 658 -162 729 -85 q 400 -261 572 -261 q 191 -203 271 -261 q 93 -32 111 -144 l 228 -32 q 401 -150 254 -150 q 554 -94 503 -150 q 591 -33 579 -67 q 603 71 603 1 l 603 142 q 365 13 528 13 q 142 113 235 13 q 49 386 49 214 q 142 659 49 558 q 365 760 235 760 q 603 629 528 760 m 608 386 q 548 585 608 519 q 397 651 488 651 q 244 581 303 651 q 186 386 186 511 q 244 190 186 260 q 397 119 303 119 q 549 185 489 119 q 608 386 608 251 m 464 1007 l 643 846 l 510 846 l 400 921 l 290 846 l 157 846 l 340 1007 l 464 1007 z "},"Ğ":{"ha":1069,"x_min":71,"x_max":963,"o":"m 539 1025 q 811 942 697 1025 q 956 714 925 858 l 818 714 q 720 854 792 803 q 532 906 649 906 q 304 800 393 906 q 215 506 215 694 q 303 210 215 318 q 532 101 390 101 q 635 114 586 101 q 730 155 685 126 q 802 237 775 183 q 829 365 829 290 l 829 392 l 563 392 l 563 514 l 963 514 l 963 0 l 851 0 l 844 126 q 526 -18 754 -18 q 192 127 314 -18 q 71 506 71 272 q 199 882 71 739 q 539 1025 326 1025 m 647 1231 l 754 1231 q 691 1110 746 1154 q 533 1065 636 1065 q 317 1231 339 1065 l 424 1231 q 535 1150 436 1150 q 647 1231 633 1150 z "},"ğ":{"ha":829,"x_min":49,"x_max":729,"o":"m 603 629 l 603 747 l 729 747 l 729 100 q 658 -162 729 -85 q 400 -261 572 -261 q 191 -203 271 -261 q 93 -32 111 -144 l 228 -32 q 401 -150 254 -150 q 554 -94 503 -150 q 591 -33 579 -67 q 603 71 603 1 l 603 142 q 365 13 528 13 q 142 113 235 13 q 49 386 49 214 q 142 659 49 558 q 365 760 235 760 q 603 629 528 760 m 608 386 q 548 585 608 519 q 397 651 488 651 q 244 581 303 651 q 186 386 186 511 q 244 190 186 260 q 397 119 303 119 q 549 185 489 119 q 608 386 608 251 m 514 1007 l 613 1007 q 390 839 590 839 q 231 888 285 839 q 172 1007 178 936 l 271 1007 q 392 922 282 922 q 514 1007 503 922 z "},"Ġ":{"ha":1069,"x_min":71,"x_max":963,"o":"m 539 1025 q 811 942 697 1025 q 956 714 925 858 l 818 714 q 720 854 792 803 q 532 906 649 906 q 304 800 393 906 q 215 506 215 694 q 303 210 215 318 q 532 101 390 101 q 635 114 586 101 q 730 155 685 126 q 802 237 775 183 q 829 365 829 290 l 829 392 l 563 392 l 563 514 l 963 514 l 963 0 l 851 0 l 844 126 q 526 -18 754 -18 q 192 127 314 -18 q 71 506 71 272 q 199 882 71 739 q 539 1025 326 1025 m 475 1222 l 601 1222 l 601 1085 l 475 1085 l 475 1222 z "},"ġ":{"ha":829,"x_min":49,"x_max":729,"o":"m 603 629 l 603 747 l 729 747 l 729 100 q 658 -162 729 -85 q 400 -261 572 -261 q 191 -203 271 -261 q 93 -32 111 -144 l 228 -32 q 401 -150 254 -150 q 554 -94 503 -150 q 591 -33 579 -67 q 603 71 603 1 l 603 142 q 365 13 528 13 q 142 113 235 13 q 49 386 49 214 q 142 659 49 558 q 365 760 235 760 q 603 629 528 760 m 608 386 q 548 585 608 519 q 397 651 488 651 q 244 581 303 651 q 186 386 186 511 q 244 190 186 260 q 397 119 303 119 q 549 185 489 119 q 608 386 608 251 m 343 1007 l 469 1007 l 469 869 l 343 869 l 343 1007 z "},"Ģ":{"ha":1069,"x_min":71,"x_max":963,"o":"m 539 1025 q 811 942 697 1025 q 956 714 925 858 l 818 714 q 720 854 792 803 q 532 906 649 906 q 304 800 393 906 q 215 506 215 694 q 303 210 215 318 q 532 101 390 101 q 635 114 586 101 q 730 155 685 126 q 802 237 775 183 q 829 365 829 290 l 829 392 l 563 392 l 563 514 l 963 514 l 963 0 l 851 0 l 844 126 q 526 -18 754 -18 q 192 127 314 -18 q 71 506 71 272 q 199 882 71 739 q 539 1025 326 1025 m 453 -174 l 453 -50 l 585 -50 l 585 -182 l 524 -307 l 449 -307 l 503 -174 l 453 -174 z "},"ģ":{"ha":829,"x_min":49,"x_max":729,"o":"m 461 958 l 461 833 l 329 833 l 329 967 l 390 1090 l 465 1090 l 411 958 l 461 958 m 603 629 l 603 747 l 729 747 l 729 100 q 658 -162 729 -85 q 400 -261 572 -261 q 191 -203 271 -261 q 93 -32 111 -144 l 228 -32 q 401 -150 254 -150 q 554 -94 503 -150 q 591 -33 579 -67 q 603 71 603 1 l 603 142 q 365 13 528 13 q 142 113 235 13 q 49 386 49 214 q 142 659 49 558 q 365 760 235 760 q 603 629 528 760 m 608 386 q 548 585 608 519 q 397 651 488 651 q 244 581 303 651 q 186 386 186 511 q 244 190 186 260 q 397 119 303 119 q 549 185 489 119 q 608 386 608 251 z "},"Ĥ":{"ha":1051,"x_min":119,"x_max":932,"o":"m 790 1007 l 932 1007 l 932 0 l 790 0 l 790 457 l 261 457 l 261 0 l 119 0 l 119 1007 l 261 1007 l 261 579 l 790 579 l 790 1007 m 585 1231 l 768 1074 l 619 1074 l 525 1151 l 431 1074 l 282 1074 l 469 1231 l 585 1231 z "},"ĥ":{"ha":803,"x_min":-79,"x_max":714,"o":"m 226 1007 l 226 635 q 468 760 303 760 q 714 472 714 760 l 714 0 l 588 0 l 588 435 q 555 594 588 538 q 424 650 522 650 q 278 588 331 650 q 226 406 226 525 l 226 0 l 100 0 l 100 1007 l 226 1007 m 224 1231 l 407 1074 l 258 1074 l 164 1151 l 69 1074 l -79 1074 l 108 1231 l 224 1231 z "},"Ħ":{"ha":1053,"x_min":28,"x_max":1025,"o":"m 790 1007 l 932 1007 l 932 829 l 1025 829 l 1025 718 l 932 718 l 932 0 l 790 0 l 790 457 l 261 457 l 261 0 l 119 0 l 119 718 l 28 718 l 28 829 l 119 829 l 119 1007 l 261 1007 l 261 829 l 790 829 l 790 1007 m 261 579 l 790 579 l 790 718 l 261 718 l 261 579 z "},"ħ":{"ha":803,"x_min":-17,"x_max":714,"o":"m 226 1007 l 226 907 l 400 907 l 400 803 l 226 803 l 226 635 q 468 760 303 760 q 714 472 714 760 l 714 0 l 588 0 l 588 435 q 555 594 588 538 q 424 650 522 650 q 278 588 331 650 q 226 406 226 525 l 226 0 l 100 0 l 100 803 l -17 803 l -17 907 l 100 907 l 100 1007 l 226 1007 z "},"Ĩ":{"ha":381,"x_min":-64,"x_max":447,"o":"m 261 1007 l 261 0 l 119 0 l 119 1007 l 261 1007 m 283 1167 q 349 1229 340 1167 l 447 1229 q 389 1110 432 1147 q 286 1072 346 1072 q 182 1105 240 1072 q 97 1138 124 1138 q 35 1076 42 1138 l -64 1076 q -8 1193 -51 1154 q 96 1232 35 1232 q 197 1199 140 1232 q 283 1167 254 1167 z "},"ĩ":{"ha":326,"x_min":-92,"x_max":419,"o":"m 100 747 l 226 747 l 226 0 l 100 0 l 100 747 m 256 944 q 321 1007 313 944 l 419 1007 q 361 888 404 925 q 258 850 318 850 q 154 883 213 850 q 69 917 96 917 q 7 856 14 917 l -92 856 q -36 972 -79 933 q 68 1011 7 1011 q 169 978 113 1011 q 256 944 226 944 z "},"Ī":{"ha":381,"x_min":-17,"x_max":400,"o":"m 261 1007 l 261 0 l 119 0 l 119 1007 l 261 1007 m 400 1099 l -17 1099 l -17 1203 l 400 1203 l 400 1099 z "},"ī":{"ha":326,"x_min":-44,"x_max":372,"o":"m 100 747 l 226 747 l 226 0 l 100 0 l 100 747 m 372 882 l -44 882 l -44 986 l 372 986 l 372 882 z "},"Ĭ":{"ha":381,"x_min":-26,"x_max":411,"o":"m 261 1007 l 261 0 l 119 0 l 119 1007 l 261 1007 m 304 1231 l 411 1231 q 348 1110 403 1154 q 190 1065 293 1065 q -26 1231 -4 1065 l 81 1231 q 192 1150 93 1150 q 304 1231 290 1150 z "},"ĭ":{"ha":326,"x_min":-56,"x_max":385,"o":"m 100 747 l 226 747 l 226 0 l 100 0 l 100 747 m 286 1007 l 385 1007 q 163 839 363 839 q 3 888 57 839 q -56 1007 -50 936 l 43 1007 q 164 922 54 922 q 286 1007 275 922 z "},"Į":{"ha":381,"x_min":25,"x_max":263,"o":"m 261 1007 l 261 0 l 119 0 l 119 1007 l 261 1007 m 121 0 l 263 0 q 140 -111 140 -60 q 159 -158 140 -143 q 206 -174 178 -174 q 263 -161 236 -174 l 263 -246 q 179 -261 225 -261 q 70 -229 115 -261 q 25 -129 25 -197 q 121 0 25 -53 z "},"į":{"ha":326,"x_min":-25,"x_max":226,"o":"m 100 0 l 100 747 l 226 747 l 226 0 q 90 -118 90 -57 q 167 -172 90 -172 q 225 -164 194 -172 l 225 -249 q 136 -261 188 -261 q 22 -232 69 -261 q -25 -136 -25 -203 q 100 0 -25 -53 m 100 1007 l 226 1007 l 226 854 l 100 854 l 100 1007 z "},"İ":{"ha":381,"x_min":119,"x_max":261,"o":"m 261 1007 l 261 0 l 119 0 l 119 1007 l 261 1007 m 128 1222 l 254 1222 l 254 1085 l 128 1085 l 128 1222 z "},"ı":{"ha":326,"x_min":100,"x_max":226,"o":"m 100 747 l 226 747 l 226 0 l 100 0 l 100 747 z "},"Ĵ":{"ha":767,"x_min":15,"x_max":819,"o":"m 506 321 l 506 1007 l 647 1007 l 647 319 q 564 69 647 156 q 331 -18 481 -18 q 98 66 181 -18 q 15 311 15 150 l 147 311 q 199 154 147 211 q 331 97 251 97 q 506 321 506 97 m 636 1231 l 819 1074 l 671 1074 l 576 1151 l 482 1074 l 333 1074 l 521 1231 l 636 1231 z "},"ĵ":{"ha":326,"x_min":-79,"x_max":407,"o":"m 100 -40 l 100 747 l 226 747 l 226 -37 q 191 -200 226 -157 q 50 -243 156 -243 l -14 -243 l -14 -137 l 22 -137 q 85 -119 71 -137 q 100 -40 100 -100 m 228 1007 l 407 846 l 274 846 l 164 921 l 54 846 l -79 846 l 104 1007 l 228 1007 z "},"Ķ":{"ha":925,"x_min":119,"x_max":935,"o":"m 261 1007 l 261 500 l 715 1007 l 892 1007 l 515 596 l 935 0 l 765 0 l 419 492 l 261 317 l 261 0 l 119 0 l 119 1007 l 261 1007 m 435 -174 l 435 -50 l 567 -50 l 567 -182 l 506 -307 l 431 -307 l 485 -174 l 435 -174 z "},"ķ":{"ha":701,"x_min":100,"x_max":722,"o":"m 100 1007 l 226 1007 l 226 411 l 528 747 l 683 747 l 399 438 l 722 0 l 568 0 l 314 344 l 226 250 l 226 0 l 100 0 l 100 1007 m 325 -174 l 325 -50 l 457 -50 l 457 -182 l 396 -307 l 321 -307 l 375 -174 l 325 -174 z "},"Ĺ":{"ha":793,"x_min":119,"x_max":793,"o":"m 261 1007 l 261 122 l 793 122 l 793 0 l 119 0 l 119 1007 l 261 1007 m 454 1231 l 247 1074 l 122 1074 l 275 1231 l 454 1231 z "},"ĺ":{"ha":326,"x_min":100,"x_max":432,"o":"m 226 1007 l 226 0 l 100 0 l 100 1007 l 226 1007 m 432 1231 l 225 1074 l 100 1074 l 253 1231 l 432 1231 z "},"Ļ":{"ha":793,"x_min":119,"x_max":793,"o":"m 261 1007 l 261 122 l 793 122 l 793 0 l 119 0 l 119 1007 l 261 1007 m 392 -174 l 392 -50 l 524 -50 l 524 -182 l 463 -307 l 388 -307 l 442 -174 l 392 -174 z "},"ļ":{"ha":326,"x_min":94,"x_max":231,"o":"m 226 1007 l 226 0 l 100 0 l 100 1007 l 226 1007 m 99 -174 l 99 -50 l 231 -50 l 231 -182 l 169 -307 l 94 -307 l 149 -174 l 99 -174 z "},"Ľ":{"ha":793,"x_min":119,"x_max":793,"o":"m 261 1007 l 261 122 l 793 122 l 793 0 l 119 0 l 119 1007 l 261 1007 m 567 1007 l 469 771 l 389 771 l 431 1007 l 567 1007 z "},"ľ":{"ha":433,"x_min":100,"x_max":461,"o":"m 461 1007 l 364 771 l 283 771 l 325 1007 l 461 1007 m 226 1007 l 226 0 l 100 0 l 100 1007 l 226 1007 z "},"Ŀ":{"ha":793,"x_min":119,"x_max":793,"o":"m 261 1007 l 261 122 l 793 122 l 793 0 l 119 0 l 119 1007 l 261 1007 m 524 649 l 650 649 l 650 511 l 524 511 l 524 649 z "},"ŀ":{"ha":453,"x_min":100,"x_max":453,"o":"m 226 1007 l 226 0 l 100 0 l 100 1007 l 226 1007 m 326 638 l 453 638 l 453 500 l 326 500 l 326 638 z "},"Ł":{"ha":793,"x_min":0,"x_max":793,"o":"m 261 1007 l 261 574 l 524 753 l 524 626 l 261 447 l 261 122 l 793 122 l 793 0 l 119 0 l 119 350 l 0 268 l 0 394 l 119 476 l 119 1007 l 261 1007 z "},"ł":{"ha":383,"x_min":28,"x_max":356,"o":"m 254 1007 l 254 632 l 356 701 l 356 594 l 254 525 l 254 0 l 128 0 l 128 439 l 28 371 l 28 476 l 128 544 l 128 1007 l 254 1007 z "},"Ń":{"ha":1049,"x_min":119,"x_max":929,"o":"m 929 0 l 722 0 l 261 860 l 261 0 l 119 0 l 119 1007 l 328 1007 l 788 150 l 788 1007 l 929 1007 l 929 0 m 793 1231 l 586 1074 l 461 1074 l 614 1231 l 793 1231 z "},"ń":{"ha":803,"x_min":100,"x_max":714,"o":"m 226 747 l 226 635 q 468 760 303 760 q 714 472 714 760 l 714 0 l 588 0 l 588 435 q 555 594 588 538 q 424 650 522 650 q 278 588 331 650 q 226 406 226 525 l 226 0 l 100 0 l 100 747 l 226 747 m 642 1007 l 460 846 l 354 846 l 479 1007 l 642 1007 z "},"Ņ":{"ha":1049,"x_min":119,"x_max":929,"o":"m 929 0 l 722 0 l 261 860 l 261 0 l 119 0 l 119 1007 l 328 1007 l 788 150 l 788 1007 l 929 1007 l 929 0 m 460 -174 l 460 -50 l 592 -50 l 592 -182 l 531 -307 l 456 -307 l 510 -174 l 460 -174 z "},"ņ":{"ha":803,"x_min":100,"x_max":714,"o":"m 226 747 l 226 635 q 468 760 303 760 q 714 472 714 760 l 714 0 l 588 0 l 588 435 q 555 594 588 538 q 424 650 522 650 q 278 588 331 650 q 226 406 226 525 l 226 0 l 100 0 l 100 747 l 226 747 m 338 -174 l 338 -50 l 469 -50 l 469 -182 l 408 -307 l 333 -307 l 388 -174 l 338 -174 z "},"Ň":{"ha":1049,"x_min":119,"x_max":929,"o":"m 929 0 l 722 0 l 261 860 l 261 0 l 119 0 l 119 1007 l 328 1007 l 788 150 l 788 1007 l 929 1007 l 929 0 m 494 1074 l 313 1231 l 461 1231 l 554 1153 l 650 1231 l 799 1231 l 611 1074 l 494 1074 z "},"ň":{"ha":803,"x_min":100,"x_max":714,"o":"m 226 747 l 226 635 q 468 760 303 760 q 714 472 714 760 l 714 0 l 588 0 l 588 435 q 555 594 588 538 q 424 650 522 650 q 278 588 331 650 q 226 406 226 525 l 226 0 l 100 0 l 100 747 l 226 747 m 357 846 l 178 1007 l 311 1007 l 419 932 l 531 1007 l 664 1007 l 479 846 l 357 846 z "},"Ŋ":{"ha":1049,"x_min":119,"x_max":929,"o":"m 788 4 l 261 857 l 261 0 l 119 0 l 119 1007 l 332 1007 l 788 256 l 788 1007 l 929 1007 l 929 -21 q 878 -210 929 -162 q 697 -258 826 -258 l 639 -258 l 639 -132 l 669 -132 q 767 -110 747 -132 q 788 -8 788 -89 l 788 4 z "},"ŋ":{"ha":803,"x_min":100,"x_max":714,"o":"m 588 -39 l 588 435 q 555 593 588 538 q 424 649 522 649 q 278 587 331 649 q 226 406 226 525 l 226 0 l 100 0 l 100 747 l 226 747 l 226 635 q 468 760 303 760 q 714 472 714 760 l 714 -51 q 680 -206 714 -168 q 538 -243 646 -243 l 474 -243 l 474 -136 l 510 -136 q 573 -117 558 -136 q 588 -39 588 -99 z "},"Ō":{"ha":1086,"x_min":71,"x_max":1015,"o":"m 308 799 q 261 746 308 799 q 215 504 215 693 q 308 208 215 315 q 543 101 400 101 q 778 208 686 101 q 871 504 871 315 q 778 799 871 693 q 543 906 686 906 q 308 799 400 906 m 887 880 q 951 807 887 880 q 1015 504 1015 735 q 887 128 1015 274 q 543 -18 758 -18 q 199 128 328 -18 q 71 504 71 274 q 199 880 71 735 q 543 1025 328 1025 q 887 880 758 1025 m 751 1099 l 335 1099 l 335 1203 l 751 1203 l 751 1099 z "},"ō":{"ha":819,"x_min":51,"x_max":768,"o":"m 186 371 q 250 162 186 231 q 410 93 314 93 q 569 164 504 93 q 633 371 633 235 q 569 580 633 511 q 410 649 506 649 q 250 581 314 649 q 186 371 186 514 m 158 660 q 212 710 158 660 q 410 760 265 760 q 661 660 554 760 q 768 371 768 560 q 661 82 768 182 q 410 -18 554 -18 q 158 82 265 -18 q 51 371 51 182 q 158 660 51 560 m 614 882 l 197 882 l 197 986 l 614 986 l 614 882 z "},"Ŏ":{"ha":1086,"x_min":71,"x_max":1015,"o":"m 308 799 q 261 746 308 799 q 215 504 215 693 q 308 208 215 315 q 543 101 400 101 q 778 208 686 101 q 871 504 871 315 q 778 799 871 693 q 543 906 686 906 q 308 799 400 906 m 887 880 q 951 807 887 880 q 1015 504 1015 735 q 887 128 1015 274 q 543 -18 758 -18 q 199 128 328 -18 q 71 504 71 274 q 199 880 71 735 q 543 1025 328 1025 q 887 880 758 1025 m 656 1231 l 763 1231 q 699 1110 754 1154 q 542 1065 644 1065 q 325 1231 347 1065 l 432 1231 q 543 1150 444 1150 q 656 1231 642 1150 z "},"ŏ":{"ha":819,"x_min":51,"x_max":768,"o":"m 186 371 q 250 162 186 231 q 410 93 314 93 q 569 164 504 93 q 633 371 633 235 q 569 580 633 511 q 410 649 506 649 q 250 581 314 649 q 186 371 186 514 m 158 660 q 212 710 158 660 q 410 760 265 760 q 661 660 554 760 q 768 371 768 560 q 661 82 768 182 q 410 -18 554 -18 q 158 82 265 -18 q 51 371 51 182 q 158 660 51 560 m 528 1007 l 626 1007 q 404 839 604 839 q 245 888 299 839 q 186 1007 192 936 l 285 1007 q 406 922 296 922 q 528 1007 517 922 z "},"Ő":{"ha":1086,"x_min":71,"x_max":1015,"o":"m 308 799 q 261 746 308 799 q 215 504 215 693 q 308 208 215 315 q 543 101 400 101 q 778 208 686 101 q 871 504 871 315 q 778 799 871 693 q 543 906 686 906 q 308 799 400 906 m 887 880 q 951 807 887 880 q 1015 504 1015 735 q 887 128 1015 274 q 543 -18 758 -18 q 199 128 328 -18 q 71 504 71 274 q 199 880 71 735 q 543 1025 328 1025 q 887 880 758 1025 m 697 1231 l 490 1074 l 365 1074 l 518 1231 l 697 1231 m 929 1231 l 722 1074 l 597 1074 l 750 1231 l 929 1231 z "},"ő":{"ha":819,"x_min":51,"x_max":768,"o":"m 186 371 q 250 162 186 231 q 410 93 314 93 q 569 164 504 93 q 633 371 633 235 q 569 580 633 511 q 410 649 506 649 q 250 581 314 649 q 186 371 186 514 m 158 660 q 212 710 158 660 q 410 760 265 760 q 661 660 554 760 q 768 371 768 560 q 661 82 768 182 q 410 -18 554 -18 q 158 82 265 -18 q 51 371 51 182 q 158 660 51 560 m 531 1007 l 349 846 l 243 846 l 368 1007 l 531 1007 m 750 1007 l 569 846 l 463 846 l 589 1007 l 750 1007 z "},"Œ":{"ha":1575,"x_min":71,"x_max":1526,"o":"m 871 504 q 778 799 871 692 q 543 906 686 906 q 308 799 400 906 q 215 504 215 692 q 308 208 215 315 q 543 101 400 101 q 778 208 686 101 q 871 504 871 315 m 874 0 l 874 138 q 542 -18 760 -18 q 199 128 328 -18 q 71 504 71 274 q 203 878 71 732 q 544 1025 336 1025 q 874 871 760 1025 l 874 1007 l 1526 1007 l 1526 885 l 986 885 l 986 579 l 1494 579 l 1494 457 l 986 457 l 986 122 l 1526 122 l 1526 0 l 874 0 z "},"œ":{"ha":1379,"x_min":51,"x_max":1332,"o":"m 983 651 q 830 599 893 651 q 758 440 767 546 l 1199 440 q 1138 588 1196 525 q 983 651 1079 651 m 410 93 q 569 164 504 93 q 633 371 633 235 q 569 580 633 511 q 410 649 506 649 q 250 581 314 649 q 186 371 186 514 q 250 162 186 231 q 410 93 314 93 m 1192 217 l 1322 217 q 1207 49 1296 115 q 988 -18 1118 -18 q 693 138 783 -18 q 573 21 649 60 q 410 -18 497 -18 q 158 82 265 -18 q 51 371 51 182 q 158 660 51 560 q 410 760 265 760 q 574 720 499 760 q 694 601 650 681 q 983 760 789 760 q 1247 637 1151 760 q 1332 332 1343 514 l 757 332 q 830 156 763 218 q 988 93 897 93 q 1192 217 1138 93 z "},"Ŕ":{"ha":943,"x_min":119,"x_max":892,"o":"m 733 0 l 515 425 q 439 424 489 424 l 261 424 l 261 0 l 119 0 l 119 1007 l 439 1007 q 609 995 539 1007 q 739 953 679 983 q 828 863 799 922 q 858 717 858 804 q 658 447 858 501 l 892 0 l 733 0 m 450 888 l 261 888 l 261 543 l 450 543 q 555 548 514 543 q 635 569 596 553 q 694 622 675 586 q 713 714 713 658 q 699 792 713 760 q 663 842 685 824 q 606 872 642 861 q 535 885 569 882 q 450 888 500 888 m 719 1231 l 513 1074 l 388 1074 l 540 1231 l 719 1231 z "},"ŕ":{"ha":493,"x_min":100,"x_max":521,"o":"m 472 750 l 472 615 q 401 621 438 621 q 269 567 313 621 q 226 392 226 514 l 226 0 l 100 0 l 100 747 l 224 747 l 224 617 q 435 751 281 744 q 472 750 457 751 m 521 1007 l 339 846 l 233 846 l 358 1007 l 521 1007 z "},"Ŗ":{"ha":943,"x_min":119,"x_max":892,"o":"m 733 0 l 515 425 q 439 424 489 424 l 261 424 l 261 0 l 119 0 l 119 1007 l 439 1007 q 609 995 539 1007 q 739 953 679 983 q 828 863 799 922 q 858 717 858 804 q 658 447 858 501 l 892 0 l 733 0 m 450 888 l 261 888 l 261 543 l 450 543 q 555 548 514 543 q 635 569 596 553 q 694 622 675 586 q 713 714 713 658 q 699 792 713 760 q 663 842 685 824 q 606 872 642 861 q 535 885 569 882 q 450 888 500 888 m 414 -174 l 414 -50 l 546 -50 l 546 -182 l 485 -307 l 410 -307 l 464 -174 l 414 -174 z "},"ŗ":{"ha":493,"x_min":94,"x_max":472,"o":"m 472 750 l 472 615 q 401 621 438 621 q 269 567 313 621 q 226 392 226 514 l 226 0 l 100 0 l 100 747 l 224 747 l 224 617 q 435 751 281 744 q 472 750 457 751 m 99 -174 l 99 -50 l 231 -50 l 231 -182 l 169 -307 l 94 -307 l 149 -174 l 99 -174 z "},"Ř":{"ha":943,"x_min":119,"x_max":892,"o":"m 733 0 l 515 425 q 439 424 489 424 l 261 424 l 261 0 l 119 0 l 119 1007 l 439 1007 q 609 995 539 1007 q 739 953 679 983 q 828 863 799 922 q 858 717 858 804 q 658 447 858 501 l 892 0 l 733 0 m 450 888 l 261 888 l 261 543 l 450 543 q 555 548 514 543 q 635 569 596 553 q 694 622 675 586 q 713 714 713 658 q 699 792 713 760 q 663 842 685 824 q 606 872 642 861 q 535 885 569 882 q 450 888 500 888 m 417 1074 l 235 1231 l 383 1231 l 476 1153 l 572 1231 l 721 1231 l 533 1074 l 417 1074 z "},"ř":{"ha":493,"x_min":43,"x_max":529,"o":"m 472 750 l 472 615 q 401 621 438 621 q 269 567 313 621 q 226 392 226 514 l 226 0 l 100 0 l 100 747 l 224 747 l 224 617 q 435 751 281 744 q 472 750 457 751 m 222 846 l 43 1007 l 176 1007 l 285 932 l 396 1007 l 529 1007 l 344 846 l 222 846 z "},"Ś":{"ha":890,"x_min":44,"x_max":842,"o":"m 78 750 q 136 906 78 840 q 274 998 194 971 q 442 1025 354 1025 q 691 956 588 1025 q 824 750 794 888 l 686 750 q 592 868 663 831 q 436 906 521 906 q 292 869 361 906 q 222 758 222 833 q 386 604 222 640 l 503 578 q 598 554 557 567 q 688 518 639 542 q 767 465 736 494 q 820 389 799 436 q 842 283 842 342 q 730 63 842 143 q 458 -18 618 -18 q 173 71 282 -18 q 44 313 64 160 l 183 313 q 461 101 224 101 q 634 148 572 101 q 696 271 696 194 q 640 385 696 346 q 479 449 585 424 l 354 475 q 156 568 235 501 q 78 750 78 635 m 713 1231 l 506 1074 l 381 1074 l 533 1231 l 713 1231 z "},"ś":{"ha":729,"x_min":44,"x_max":669,"o":"m 660 529 l 528 529 q 351 653 499 653 q 242 629 289 653 q 194 558 194 606 q 223 492 194 515 q 308 457 251 469 l 414 436 q 601 363 532 414 q 669 214 669 313 q 583 44 669 106 q 365 -18 497 -18 q 142 58 226 -18 q 44 242 57 135 l 178 242 q 368 89 211 89 q 492 119 443 89 q 542 200 542 149 q 501 281 542 253 q 390 324 461 308 l 279 346 q 126 413 185 367 q 67 553 67 458 q 152 705 67 649 q 365 761 238 761 q 564 699 486 761 q 660 529 642 638 m 592 1007 l 410 846 l 304 846 l 429 1007 l 592 1007 z "},"Ŝ":{"ha":890,"x_min":44,"x_max":842,"o":"m 78 750 q 136 906 78 840 q 274 998 194 971 q 442 1025 354 1025 q 691 956 588 1025 q 824 750 794 888 l 686 750 q 592 868 663 831 q 436 906 521 906 q 292 869 361 906 q 222 758 222 833 q 386 604 222 640 l 503 578 q 598 554 557 567 q 688 518 639 542 q 767 465 736 494 q 820 389 799 436 q 842 283 842 342 q 730 63 842 143 q 458 -18 618 -18 q 173 71 282 -18 q 44 313 64 160 l 183 313 q 461 101 224 101 q 634 148 572 101 q 696 271 696 194 q 640 385 696 346 q 479 449 585 424 l 354 475 q 156 568 235 501 q 78 750 78 635 m 514 1231 l 697 1074 l 549 1074 l 454 1151 l 360 1074 l 211 1074 l 399 1231 l 514 1231 z "},"ŝ":{"ha":729,"x_min":44,"x_max":669,"o":"m 660 529 l 528 529 q 351 653 499 653 q 242 629 289 653 q 194 558 194 606 q 223 492 194 515 q 308 457 251 469 l 414 436 q 601 363 532 414 q 669 214 669 313 q 583 44 669 106 q 365 -18 497 -18 q 142 58 226 -18 q 44 242 57 135 l 178 242 q 368 89 211 89 q 492 119 443 89 q 542 200 542 149 q 501 281 542 253 q 390 324 461 308 l 279 346 q 126 413 185 367 q 67 553 67 458 q 152 705 67 649 q 365 761 238 761 q 564 699 486 761 q 660 529 642 638 m 435 1007 l 614 846 l 481 846 l 371 921 l 261 846 l 128 846 l 311 1007 l 435 1007 z "},"Ş":{"ha":890,"x_min":44,"x_max":842,"o":"m 78 750 q 136 906 78 840 q 274 998 194 971 q 442 1025 354 1025 q 691 956 588 1025 q 824 750 794 888 l 686 750 q 592 868 663 831 q 436 906 521 906 q 292 869 361 906 q 222 758 222 833 q 386 604 222 640 l 503 578 q 598 554 557 567 q 688 518 639 542 q 767 465 736 494 q 820 389 799 436 q 842 283 842 342 q 730 63 842 143 q 458 -18 618 -18 q 173 71 282 -18 q 44 313 64 160 l 183 313 q 461 101 224 101 q 634 148 572 101 q 696 271 696 194 q 640 385 696 346 q 479 449 585 424 l 354 475 q 156 568 235 501 q 78 750 78 635 m 304 -244 l 326 -189 q 407 -208 368 -208 q 492 -164 492 -208 q 431 -122 492 -122 q 378 -135 397 -122 l 336 -111 l 407 4 l 481 4 l 436 -67 q 478 -62 457 -62 q 556 -88 528 -62 q 583 -157 583 -114 q 538 -240 583 -208 q 433 -271 492 -271 q 304 -244 358 -271 z "},"ş":{"ha":729,"x_min":44,"x_max":669,"o":"m 660 529 l 528 529 q 351 653 499 653 q 242 629 289 653 q 194 558 194 606 q 223 492 194 515 q 308 457 251 469 l 414 436 q 601 363 532 414 q 669 214 669 313 q 583 44 669 106 q 365 -18 497 -18 q 142 58 226 -18 q 44 242 57 135 l 178 242 q 368 89 211 89 q 492 119 443 89 q 542 200 542 149 q 501 281 542 253 q 390 324 461 308 l 279 346 q 126 413 185 367 q 67 553 67 458 q 152 705 67 649 q 365 761 238 761 q 564 699 486 761 q 660 529 642 638 m 218 -244 l 240 -189 q 321 -208 282 -208 q 406 -164 406 -208 q 344 -122 406 -122 q 292 -135 311 -122 l 250 -111 l 321 4 l 394 4 l 350 -67 q 392 -62 371 -62 q 469 -88 442 -62 q 497 -157 497 -114 q 451 -240 497 -208 q 347 -271 406 -271 q 218 -244 272 -271 z "},"Š":{"ha":890,"x_min":44,"x_max":842,"o":"m 78 750 q 136 906 78 840 q 274 998 194 971 q 442 1025 354 1025 q 691 956 588 1025 q 824 750 794 888 l 686 750 q 592 868 663 831 q 436 906 521 906 q 292 869 361 906 q 222 758 222 833 q 386 604 222 640 l 503 578 q 598 554 557 567 q 688 518 639 542 q 767 465 736 494 q 820 389 799 436 q 842 283 842 342 q 730 63 842 143 q 458 -18 618 -18 q 173 71 282 -18 q 44 313 64 160 l 183 313 q 461 101 224 101 q 634 148 572 101 q 696 271 696 194 q 640 385 696 346 q 479 449 585 424 l 354 475 q 156 568 235 501 q 78 750 78 635 m 393 1074 l 211 1231 l 360 1231 l 453 1153 l 549 1231 l 697 1231 l 510 1074 l 393 1074 z "},"š":{"ha":729,"x_min":44,"x_max":669,"o":"m 660 529 l 528 529 q 351 653 499 653 q 242 629 289 653 q 194 558 194 606 q 223 492 194 515 q 308 457 251 469 l 414 436 q 601 363 532 414 q 669 214 669 313 q 583 44 669 106 q 365 -18 497 -18 q 142 58 226 -18 q 44 242 57 135 l 178 242 q 368 89 211 89 q 492 119 443 89 q 542 200 542 149 q 501 281 542 253 q 390 324 461 308 l 279 346 q 126 413 185 367 q 67 553 67 458 q 152 705 67 649 q 365 761 238 761 q 564 699 486 761 q 660 529 642 638 m 307 846 l 128 1007 l 261 1007 l 369 932 l 481 1007 l 614 1007 l 429 846 l 307 846 z "},"Ţ":{"ha":797,"x_min":0,"x_max":797,"o":"m 328 0 l 328 885 l 0 885 l 0 1007 l 797 1007 l 797 885 l 469 885 l 469 0 l 328 0 m 335 -174 l 335 -50 l 467 -50 l 467 -182 l 406 -307 l 331 -307 l 385 -174 l 335 -174 z "},"ţ":{"ha":451,"x_min":18,"x_max":404,"o":"m 136 747 l 136 935 l 263 935 l 263 747 l 404 747 l 404 646 l 263 646 l 263 203 q 276 124 263 142 q 340 106 289 106 l 404 106 l 404 0 l 313 0 q 170 36 204 0 q 136 188 136 72 l 136 646 l 18 646 l 18 747 l 136 747 m 147 -174 l 147 -50 l 279 -50 l 279 -182 l 218 -307 l 143 -307 l 197 -174 l 147 -174 z "},"Ť":{"ha":797,"x_min":0,"x_max":797,"o":"m 328 0 l 328 885 l 0 885 l 0 1007 l 797 1007 l 797 885 l 469 885 l 469 0 l 328 0 m 338 1074 l 156 1231 l 304 1231 l 397 1153 l 493 1231 l 642 1231 l 454 1074 l 338 1074 z "},"ť":{"ha":497,"x_min":18,"x_max":525,"o":"m 525 1007 l 428 799 l 347 799 l 389 1007 l 525 1007 m 136 747 l 136 935 l 263 935 l 263 747 l 404 747 l 404 646 l 263 646 l 263 203 q 276 124 263 142 q 340 106 289 106 l 404 106 l 404 0 l 313 0 q 170 36 204 0 q 136 188 136 72 l 136 646 l 18 646 l 18 747 l 136 747 z "},"Ŧ":{"ha":796,"x_min":0,"x_max":797,"o":"m 328 0 l 328 449 l 118 449 l 118 574 l 328 574 l 328 885 l 0 885 l 0 1007 l 797 1007 l 797 885 l 469 885 l 469 574 l 679 574 l 679 449 l 469 449 l 469 0 l 328 0 z "},"ŧ":{"ha":481,"x_min":33,"x_max":419,"o":"m 151 747 l 151 935 l 278 935 l 278 747 l 419 747 l 419 646 l 278 646 l 278 531 l 419 531 l 419 426 l 278 426 l 278 203 q 290 124 278 142 q 356 106 303 106 l 419 106 l 419 0 l 328 0 q 185 36 219 0 q 151 188 151 72 l 151 426 l 33 426 l 33 531 l 151 531 l 151 646 l 33 646 l 33 747 l 151 747 z "},"Ũ":{"ha":1015,"x_min":104,"x_max":911,"o":"m 104 1007 l 246 1007 l 246 394 q 306 174 246 243 q 506 104 367 104 q 708 180 646 104 q 769 410 769 256 l 769 1007 l 911 1007 l 911 421 q 816 89 911 196 q 506 -18 721 -18 q 199 80 293 -18 q 104 410 104 178 l 104 1007 m 617 1167 q 682 1229 674 1167 l 781 1229 q 722 1110 765 1147 q 619 1072 679 1072 q 515 1105 574 1072 q 431 1138 457 1138 q 368 1076 375 1138 l 269 1076 q 325 1193 282 1154 q 429 1232 368 1232 q 531 1199 474 1232 q 617 1167 588 1167 z "},"ũ":{"ha":789,"x_min":89,"x_max":689,"o":"m 563 0 l 563 107 q 328 -18 486 -18 q 89 269 89 -18 l 89 747 l 215 747 l 215 307 q 247 148 215 204 q 372 92 278 92 q 513 154 464 92 q 563 336 563 217 l 563 747 l 689 747 l 689 0 l 563 0 m 490 944 q 556 1007 547 944 l 654 1007 q 596 888 639 925 q 493 850 553 850 q 389 883 447 850 q 304 917 331 917 q 242 856 249 917 l 143 856 q 199 972 156 933 q 303 1011 242 1011 q 404 978 347 1011 q 490 944 461 944 z "},"Ū":{"ha":1015,"x_min":104,"x_max":911,"o":"m 104 1007 l 246 1007 l 246 394 q 306 174 246 243 q 506 104 367 104 q 708 180 646 104 q 769 410 769 256 l 769 1007 l 911 1007 l 911 421 q 816 89 911 196 q 506 -18 721 -18 q 199 80 293 -18 q 104 410 104 178 l 104 1007 m 715 1099 l 299 1099 l 299 1203 l 715 1203 l 715 1099 z "},"ū":{"ha":789,"x_min":89,"x_max":689,"o":"m 563 0 l 563 107 q 328 -18 486 -18 q 89 269 89 -18 l 89 747 l 215 747 l 215 307 q 247 148 215 204 q 372 92 278 92 q 513 154 464 92 q 563 336 563 217 l 563 747 l 689 747 l 689 0 l 563 0 m 601 882 l 185 882 l 185 986 l 601 986 l 601 882 z "},"Ŭ":{"ha":1015,"x_min":104,"x_max":911,"o":"m 104 1007 l 246 1007 l 246 394 q 306 174 246 243 q 506 104 367 104 q 708 180 646 104 q 769 410 769 256 l 769 1007 l 911 1007 l 911 421 q 816 89 911 196 q 506 -18 721 -18 q 199 80 293 -18 q 104 410 104 178 l 104 1007 m 619 1231 l 726 1231 q 663 1110 718 1154 q 506 1065 608 1065 q 289 1231 311 1065 l 396 1231 q 507 1150 408 1150 q 619 1231 606 1150 z "},"ŭ":{"ha":789,"x_min":89,"x_max":689,"o":"m 563 0 l 563 107 q 328 -18 486 -18 q 89 269 89 -18 l 89 747 l 215 747 l 215 307 q 247 148 215 204 q 372 92 278 92 q 513 154 464 92 q 563 336 563 217 l 563 747 l 689 747 l 689 0 l 563 0 m 515 1007 l 614 1007 q 392 839 592 839 q 233 888 286 839 q 174 1007 179 936 l 272 1007 q 393 922 283 922 q 515 1007 504 922 z "},"Ů":{"ha":1015,"x_min":104,"x_max":911,"o":"m 104 1007 l 246 1007 l 246 394 q 306 174 246 243 q 506 104 367 104 q 708 180 646 104 q 769 410 769 256 l 769 1007 l 911 1007 l 911 421 q 816 89 911 196 q 506 -18 721 -18 q 199 80 293 -18 q 104 410 104 178 l 104 1007 m 507 1299 q 597 1266 561 1299 q 633 1181 633 1233 q 597 1096 633 1129 q 507 1063 561 1063 q 418 1096 454 1063 q 382 1181 382 1129 q 418 1265 382 1232 q 507 1299 454 1299 m 549 1223 q 541 1232 549 1223 q 507 1240 532 1240 q 465 1223 482 1240 q 447 1181 447 1206 q 465 1139 447 1156 q 507 1122 482 1122 q 549 1139 532 1122 q 567 1181 567 1156 q 549 1223 567 1206 z "},"ů":{"ha":789,"x_min":89,"x_max":689,"o":"m 563 0 l 563 107 q 328 -18 486 -18 q 89 269 89 -18 l 89 747 l 215 747 l 215 307 q 247 148 215 204 q 372 92 278 92 q 513 154 464 92 q 563 336 563 217 l 563 747 l 689 747 l 689 0 l 563 0 m 393 1069 q 483 1037 447 1069 q 519 951 519 1004 q 483 867 519 900 q 393 833 447 833 q 304 867 340 833 q 268 951 268 900 q 304 1036 268 1003 q 393 1069 340 1069 m 435 994 q 427 1002 435 994 q 393 1011 418 1011 q 351 994 368 1011 q 333 951 333 976 q 351 910 333 926 q 393 893 368 893 q 435 910 418 893 q 453 951 453 926 q 435 994 453 976 z "},"Ű":{"ha":1015,"x_min":104,"x_max":911,"o":"m 104 1007 l 246 1007 l 246 394 q 306 174 246 243 q 506 104 367 104 q 708 180 646 104 q 769 410 769 256 l 769 1007 l 911 1007 l 911 421 q 816 89 911 196 q 506 -18 721 -18 q 199 80 293 -18 q 104 410 104 178 l 104 1007 m 661 1231 l 454 1074 l 329 1074 l 482 1231 l 661 1231 m 893 1231 l 686 1074 l 561 1074 l 714 1231 l 893 1231 z "},"ű":{"ha":789,"x_min":89,"x_max":738,"o":"m 518 1007 l 336 846 l 231 846 l 356 1007 l 518 1007 m 738 1007 l 557 846 l 450 846 l 576 1007 l 738 1007 m 563 0 l 563 107 q 328 -18 486 -18 q 89 269 89 -18 l 89 747 l 215 747 l 215 307 q 247 148 215 204 q 372 92 278 92 q 513 154 464 92 q 563 336 563 217 l 563 747 l 689 747 l 689 0 l 563 0 z "},"Ų":{"ha":1015,"x_min":104,"x_max":911,"o":"m 526 -261 q 417 -229 463 -261 q 372 -129 372 -197 q 442 -15 372 -65 q 185 96 265 -4 q 104 410 104 196 l 104 1007 l 246 1007 l 246 394 q 306 174 246 243 q 506 104 367 104 q 708 180 646 104 q 769 410 769 256 l 769 1007 l 911 1007 l 911 421 q 838 115 911 217 q 583 -21 765 14 q 517 -56 546 -29 q 488 -111 488 -83 q 506 -158 488 -143 q 553 -174 525 -174 q 610 -161 583 -174 l 610 -246 q 526 -261 572 -261 z "},"ų":{"ha":793,"x_min":89,"x_max":693,"o":"m 563 0 l 563 107 q 328 -18 486 -18 q 89 269 89 -18 l 89 747 l 215 747 l 215 307 q 247 148 215 204 q 372 92 278 92 q 513 154 464 92 q 563 336 563 217 l 563 747 l 689 747 l 689 0 l 563 0 m 567 0 l 693 0 q 557 -118 557 -57 q 633 -172 557 -172 q 692 -164 661 -172 l 692 -249 q 603 -261 654 -261 q 489 -232 536 -261 q 442 -136 442 -203 q 567 0 442 -53 z "},"Ŵ":{"ha":1281,"x_min":22,"x_max":1258,"o":"m 725 1007 l 924 161 l 1110 1007 l 1258 1007 l 1007 0 l 835 0 l 640 828 l 450 0 l 278 0 l 22 1007 l 178 1007 l 372 161 l 558 1007 l 725 1007 m 700 1231 l 883 1074 l 735 1074 l 640 1151 l 546 1074 l 397 1074 l 585 1231 l 700 1231 z "},"ŵ":{"ha":1000,"x_min":7,"x_max":993,"o":"m 286 194 l 435 747 l 565 747 l 714 194 l 857 747 l 993 747 l 778 0 l 663 0 l 497 601 l 338 0 l 222 0 l 7 747 l 143 747 l 286 194 m 557 1007 l 736 846 l 603 846 l 493 921 l 383 846 l 250 846 l 433 1007 l 557 1007 z "},"Ŷ":{"ha":867,"x_min":0,"x_max":867,"o":"m 0 1007 l 156 1007 l 431 515 l 711 1007 l 867 1007 l 497 390 l 497 0 l 356 0 l 356 393 l 0 1007 m 493 1231 l 676 1074 l 528 1074 l 433 1151 l 339 1074 l 190 1074 l 378 1231 l 493 1231 z "},"ŷ":{"ha":647,"x_min":0,"x_max":647,"o":"m 515 747 l 647 747 l 381 -32 q 324 -160 350 -119 q 251 -222 299 -201 q 121 -243 204 -243 l 56 -243 l 56 -137 l 107 -137 q 209 -117 178 -137 q 264 -15 240 -96 l 269 0 l 0 747 l 140 747 l 331 171 l 515 747 m 388 1007 l 567 846 l 433 846 l 324 921 l 214 846 l 81 846 l 264 1007 l 388 1007 z "},"Ÿ":{"ha":867,"x_min":0,"x_max":867,"o":"m 0 1007 l 156 1007 l 431 515 l 711 1007 l 867 1007 l 497 390 l 497 0 l 356 0 l 356 393 l 0 1007 m 211 1221 l 338 1221 l 338 1083 l 211 1083 l 211 1221 m 529 1221 l 657 1221 l 657 1083 l 529 1083 l 529 1221 z "},"Ź":{"ha":879,"x_min":57,"x_max":839,"o":"m 817 1007 l 817 885 l 225 122 l 839 122 l 839 0 l 57 0 l 57 122 l 650 885 l 103 885 l 103 1007 l 817 1007 m 717 1231 l 510 1074 l 385 1074 l 538 1231 l 717 1231 z "},"ź":{"ha":678,"x_min":46,"x_max":633,"o":"m 46 0 l 46 110 l 478 638 l 74 638 l 74 747 l 625 747 l 625 638 l 194 110 l 633 110 l 633 0 l 46 0 m 574 1007 l 392 846 l 286 846 l 411 1007 l 574 1007 z "},"Ż":{"ha":879,"x_min":57,"x_max":839,"o":"m 817 1007 l 817 885 l 225 122 l 839 122 l 839 0 l 57 0 l 57 122 l 650 885 l 103 885 l 103 1007 l 817 1007 m 401 1222 l 528 1222 l 528 1085 l 401 1085 l 401 1222 z "},"ż":{"ha":678,"x_min":46,"x_max":633,"o":"m 46 0 l 46 110 l 478 638 l 74 638 l 74 747 l 625 747 l 625 638 l 194 110 l 633 110 l 633 0 l 46 0 m 297 1007 l 424 1007 l 424 869 l 297 869 l 297 1007 z "},"Ž":{"ha":879,"x_min":57,"x_max":839,"o":"m 817 1007 l 817 885 l 225 122 l 839 122 l 839 0 l 57 0 l 57 122 l 650 885 l 103 885 l 103 1007 l 817 1007 m 400 1074 l 218 1231 l 367 1231 l 460 1153 l 556 1231 l 704 1231 l 517 1074 l 400 1074 z "},"ž":{"ha":678,"x_min":46,"x_max":633,"o":"m 46 0 l 46 110 l 478 638 l 74 638 l 74 747 l 625 747 l 625 638 l 194 110 l 633 110 l 633 0 l 46 0 m 303 846 l 124 1007 l 257 1007 l 365 932 l 476 1007 l 610 1007 l 425 846 l 303 846 z "},"Ə":{"ha":1085,"x_min":78,"x_max":1011,"o":"m 249 731 l 100 731 q 266 950 143 875 q 544 1025 389 1025 q 883 885 756 1025 q 1011 504 1011 744 q 882 123 1011 264 q 542 -18 753 -18 q 181 148 304 -18 q 78 572 57 314 l 863 572 q 761 817 851 728 q 543 906 671 906 q 354 858 431 906 q 249 731 278 810 m 543 101 q 763 192 675 101 q 863 450 851 283 l 225 450 q 318 193 228 285 q 543 101 408 101 z "},"Ș":{"ha":890,"x_min":44,"x_max":842,"o":"m 78 750 q 136 906 78 840 q 274 998 194 971 q 442 1025 354 1025 q 691 956 588 1025 q 824 750 794 888 l 686 750 q 592 868 663 831 q 436 906 521 906 q 292 869 361 906 q 222 758 222 833 q 386 604 222 640 l 503 578 q 598 554 557 567 q 688 518 639 542 q 767 465 736 494 q 820 389 799 436 q 842 283 842 342 q 730 63 842 143 q 458 -18 618 -18 q 173 71 282 -18 q 44 313 64 160 l 183 313 q 461 101 224 101 q 634 148 572 101 q 696 271 696 194 q 640 385 696 346 q 479 449 585 424 l 354 475 q 156 568 235 501 q 78 750 78 635 m 379 -174 l 379 -50 l 511 -50 l 511 -182 l 450 -307 l 375 -307 l 429 -174 l 379 -174 z "},"ș":{"ha":729,"x_min":44,"x_max":669,"o":"m 660 529 l 528 529 q 351 653 499 653 q 242 629 289 653 q 194 558 194 606 q 223 492 194 515 q 308 457 251 469 l 414 436 q 601 363 532 414 q 669 214 669 313 q 583 44 669 106 q 365 -18 497 -18 q 142 58 226 -18 q 44 242 57 135 l 178 242 q 368 89 211 89 q 492 119 443 89 q 542 200 542 149 q 501 281 542 253 q 390 324 461 308 l 279 346 q 126 413 185 367 q 67 553 67 458 q 152 705 67 649 q 365 761 238 761 q 564 699 486 761 q 660 529 642 638 m 293 -174 l 293 -50 l 425 -50 l 425 -182 l 364 -307 l 289 -307 l 343 -174 l 293 -174 z "},"Ț":{"ha":797,"x_min":0,"x_max":797,"o":"m 328 0 l 328 885 l 0 885 l 0 1007 l 797 1007 l 797 885 l 469 885 l 469 0 l 328 0 m 335 -174 l 335 -50 l 467 -50 l 467 -182 l 406 -307 l 331 -307 l 385 -174 l 335 -174 z "},"ț":{"ha":451,"x_min":18,"x_max":404,"o":"m 136 747 l 136 935 l 263 935 l 263 747 l 404 747 l 404 646 l 263 646 l 263 203 q 276 124 263 142 q 340 106 289 106 l 404 106 l 404 0 l 313 0 q 170 36 204 0 q 136 188 136 72 l 136 646 l 18 646 l 18 747 l 136 747 m 147 -174 l 147 -50 l 279 -50 l 279 -182 l 218 -307 l 143 -307 l 197 -174 l 147 -174 z "},"Ȳ":{"ha":867,"x_min":0,"x_max":867,"o":"m 0 1007 l 156 1007 l 431 515 l 711 1007 l 867 1007 l 497 390 l 497 0 l 356 0 l 356 393 l 0 1007 m 642 1099 l 225 1099 l 225 1203 l 642 1203 l 642 1099 z "},"ȳ":{"ha":647,"x_min":0,"x_max":647,"o":"m 515 747 l 647 747 l 381 -32 q 324 -160 350 -119 q 251 -222 299 -201 q 121 -243 204 -243 l 56 -243 l 56 -137 l 107 -137 q 209 -117 178 -137 q 264 -15 240 -96 l 269 0 l 0 747 l 140 747 l 331 171 l 515 747 m 532 882 l 115 882 l 115 986 l 532 986 l 532 882 z "},"ȷ":{"ha":326,"x_min":-14,"x_max":226,"o":"m 100 -40 l 100 747 l 226 747 l 226 -37 q 191 -200 226 -157 q 50 -243 156 -243 l -14 -243 l -14 -137 l 22 -137 q 85 -119 71 -137 q 100 -40 100 -100 z "},"ə":{"ha":807,"x_min":49,"x_max":760,"o":"m 49 410 l 624 410 q 552 586 621 524 q 393 649 483 649 q 189 525 243 649 l 58 525 q 174 693 85 626 q 393 760 263 760 q 663 650 565 760 q 760 369 760 540 q 657 88 760 194 q 397 -18 554 -18 q 133 105 229 -18 q 49 410 38 228 m 397 90 q 551 143 488 90 q 622 301 614 196 l 182 301 q 243 153 185 217 q 397 90 301 90 z "},"ˆ":{"ha":547,"x_min":31,"x_max":517,"o":"m 338 1007 l 517 846 l 383 846 l 274 921 l 164 846 l 31 846 l 214 1007 l 338 1007 z "},"ˇ":{"ha":547,"x_min":31,"x_max":517,"o":"m 210 846 l 31 1007 l 164 1007 l 272 932 l 383 1007 l 517 1007 l 332 846 l 210 846 z "},"˘":{"ha":501,"x_min":31,"x_max":471,"o":"m 372 1007 l 471 1007 q 249 839 449 839 q 90 888 143 839 q 31 1007 36 936 l 129 1007 q 250 922 140 922 q 372 1007 361 922 z "},"˙":{"ha":188,"x_min":31,"x_max":157,"o":"m 31 1007 l 157 1007 l 157 869 l 31 869 l 31 1007 z "},"˚":{"ha":313,"x_min":31,"x_max":282,"o":"m 156 1069 q 246 1037 210 1069 q 282 951 282 1004 q 246 867 282 900 q 156 833 210 833 q 67 867 103 833 q 31 951 31 900 q 67 1036 31 1003 q 156 1069 103 1069 m 198 994 q 189 1002 198 994 q 156 1011 181 1011 q 113 994 131 1011 q 96 951 96 976 q 113 910 96 926 q 156 893 131 893 q 198 910 181 893 q 215 951 215 926 q 198 994 215 976 z "},"˛":{"ha":336,"x_min":31,"x_max":282,"o":"m 156 0 l 282 0 q 146 -118 146 -57 q 222 -172 146 -172 q 281 -164 250 -172 l 281 -249 q 192 -261 243 -261 q 78 -232 125 -261 q 31 -136 31 -203 q 156 0 31 -53 z "},"˜":{"ha":572,"x_min":31,"x_max":542,"o":"m 378 944 q 443 1007 435 944 l 542 1007 q 483 888 526 925 q 381 850 440 850 q 276 883 335 850 q 192 917 218 917 q 129 856 136 917 l 31 856 q 86 972 43 933 q 190 1011 129 1011 q 292 978 235 1011 q 378 944 349 944 z "},"˝":{"ha":568,"x_min":31,"x_max":538,"o":"m 318 1007 l 136 846 l 31 846 l 156 1007 l 318 1007 m 538 1007 l 357 846 l 250 846 l 376 1007 l 538 1007 z "},"̦":{"ha":197,"x_min":31,"x_max":167,"o":"m 35 -174 l 35 -50 l 167 -50 l 167 -182 l 106 -307 l 31 -307 l 85 -174 l 35 -174 z "},"̬":{"ha":547,"x_min":31,"x_max":517,"o":"m 225 -192 l 31 0 l 171 0 l 272 -99 l 376 0 l 517 0 l 318 -192 l 225 -192 z "},"Δ":{"ha":968,"x_min":-7,"x_max":976,"o":"m -7 0 l 485 1010 l 976 0 l -7 0 m 781 119 l 485 736 l 189 119 l 781 119 z "},"Ω":{"ha":1103,"x_min":60,"x_max":1043,"o":"m 204 906 q 276 966 204 906 q 551 1025 349 1025 q 899 906 754 1025 q 1043 583 1043 788 q 965 345 1043 454 q 767 197 888 236 l 767 119 l 1042 119 l 1042 0 l 638 0 l 638 274 q 834 383 760 293 q 908 592 908 472 q 808 824 908 733 q 551 915 707 915 q 295 824 396 915 q 194 592 194 733 q 269 383 194 472 q 465 274 343 293 l 465 0 l 61 0 l 61 119 l 336 119 l 336 197 q 137 345 214 236 q 60 583 60 454 q 204 906 60 788 z "},"π":{"ha":899,"x_min":44,"x_max":853,"o":"m 275 0 l 147 0 l 147 628 l 44 628 l 44 747 l 844 747 l 844 628 l 739 628 l 739 203 q 752 124 739 142 q 819 107 765 107 l 853 107 l 853 0 l 792 0 q 647 36 682 0 q 613 188 613 72 l 613 628 l 275 628 l 275 0 z "},"Ё":{"ha":886,"x_min":133,"x_max":817,"o":"m 133 0 l 133 1007 l 817 1007 l 817 885 l 275 885 l 275 579 l 785 579 l 785 457 l 275 457 l 275 122 l 817 122 l 817 0 l 133 0 m 260 1221 l 386 1221 l 386 1083 l 260 1083 l 260 1221 m 578 1221 l 706 1221 l 706 1083 l 578 1083 l 578 1221 z "},"Ђ":{"ha":1046,"x_min":0,"x_max":1004,"o":"m 446 467 l 446 0 l 304 0 l 304 885 l 0 885 l 0 1007 l 807 1007 l 807 885 l 446 885 l 446 585 q 692 618 589 618 q 924 538 844 618 q 1004 310 1004 458 q 977 155 1004 221 q 902 53 950 89 q 799 1 854 18 q 678 -15 743 -15 q 553 -1 614 -15 l 567 117 q 676 104 610 104 q 868 303 868 111 q 668 501 868 501 q 446 467 567 501 z "},"Ѓ":{"ha":761,"x_min":133,"x_max":761,"o":"m 688 1231 l 481 1074 l 356 1074 l 508 1231 l 688 1231 m 761 1007 l 761 885 l 275 885 l 275 0 l 133 0 l 133 1007 l 761 1007 z "},"Є":{"ha":1035,"x_min":71,"x_max":993,"o":"m 853 335 l 993 335 q 843 76 963 171 q 544 -18 724 -18 q 197 125 322 -18 q 71 504 71 268 q 199 881 71 738 q 550 1025 328 1025 q 840 930 724 1025 q 989 671 957 835 l 847 671 q 741 847 824 788 q 544 906 658 906 q 326 817 413 906 q 222 575 239 728 l 696 575 l 696 453 l 221 453 q 320 196 232 290 q 546 101 408 101 q 747 160 664 101 q 853 335 829 219 z "},"Ѕ":{"ha":890,"x_min":44,"x_max":842,"o":"m 78 750 q 136 906 78 840 q 274 998 194 971 q 442 1025 354 1025 q 691 956 588 1025 q 824 750 794 888 l 686 750 q 592 868 663 831 q 436 906 521 906 q 292 869 361 906 q 222 758 222 833 q 386 604 222 640 l 503 578 q 598 554 557 567 q 688 518 639 542 q 767 465 736 494 q 820 389 799 436 q 842 283 842 342 q 730 63 842 143 q 458 -18 618 -18 q 173 71 282 -18 q 44 313 64 160 l 183 313 q 461 101 224 101 q 634 148 572 101 q 696 271 696 194 q 640 385 696 346 q 479 449 585 424 l 354 475 q 156 568 235 501 q 78 750 78 635 z "},"І":{"ha":408,"x_min":133,"x_max":275,"o":"m 275 1007 l 275 0 l 133 0 l 133 1007 l 275 1007 z "},"Ї":{"ha":408,"x_min":-17,"x_max":429,"o":"m 275 1007 l 275 0 l 133 0 l 133 1007 l 275 1007 m -17 1221 l 110 1221 l 110 1083 l -17 1083 l -17 1221 m 301 1221 l 429 1221 l 429 1083 l 301 1083 l 301 1221 z "},"Ј":{"ha":793,"x_min":28,"x_max":660,"o":"m 518 321 l 518 1007 l 660 1007 l 660 319 q 576 69 660 156 q 343 -18 493 -18 q 110 66 193 -18 q 28 311 28 150 l 160 311 q 212 154 160 211 q 343 97 264 97 q 518 321 518 97 z "},"Љ":{"ha":1410,"x_min":42,"x_max":1375,"o":"m 83 0 l 42 0 l 42 122 l 63 122 q 131 156 101 122 q 180 244 161 189 q 212 383 199 299 q 231 553 225 467 q 242 753 238 640 l 249 1007 l 853 1007 l 853 636 l 946 636 q 1119 622 1046 636 q 1252 575 1192 608 q 1344 477 1313 542 q 1375 318 1375 413 q 1344 161 1375 225 q 1252 63 1313 97 q 1119 14 1192 28 q 946 0 1046 0 l 711 0 l 711 885 l 383 885 l 376 710 q 352 413 369 538 q 301 192 335 289 q 214 48 268 96 q 83 0 160 0 m 853 514 l 853 122 l 951 122 q 1060 131 1014 122 q 1145 159 1106 139 q 1206 219 1185 179 q 1226 318 1226 260 q 1206 418 1226 378 q 1144 478 1185 458 q 1059 506 1104 499 q 951 514 1014 514 l 853 514 z "},"Њ":{"ha":1503,"x_min":119,"x_max":1468,"o":"m 918 636 l 1039 636 q 1212 622 1139 636 q 1345 575 1285 608 q 1437 477 1406 542 q 1468 318 1468 413 q 1437 161 1468 225 q 1345 63 1406 97 q 1212 14 1285 28 q 1039 0 1139 0 l 776 0 l 776 457 l 261 457 l 261 0 l 119 0 l 119 1007 l 261 1007 l 261 579 l 776 579 l 776 1007 l 918 1007 l 918 636 m 918 122 l 1044 122 q 1153 131 1107 122 q 1238 159 1199 139 q 1299 219 1278 179 q 1319 318 1319 260 q 1299 418 1319 378 q 1238 478 1278 458 q 1152 506 1197 499 q 1044 514 1107 514 l 918 514 l 918 122 z "},"Ћ":{"ha":1086,"x_min":0,"x_max":1003,"o":"m 690 618 q 926 544 850 618 q 1003 318 1003 471 l 1003 0 l 861 0 l 861 275 q 811 449 861 401 q 649 496 761 496 q 446 467 563 496 l 446 0 l 304 0 l 304 885 l 0 885 l 0 1007 l 807 1007 l 807 885 l 446 885 l 446 582 q 690 618 590 618 z "},"Ќ":{"ha":921,"x_min":133,"x_max":900,"o":"m 692 1231 l 485 1074 l 360 1074 l 513 1231 l 692 1231 m 731 0 l 381 458 l 275 458 l 275 0 l 133 0 l 133 1007 l 275 1007 l 275 581 l 376 581 l 715 1007 l 886 1007 l 497 531 l 900 0 l 731 0 z "},"Ў":{"ha":886,"x_min":14,"x_max":886,"o":"m 258 -19 l 154 -19 l 154 103 l 249 103 q 369 169 333 103 l 389 206 l 14 1007 l 167 1007 l 460 353 l 729 1007 l 886 1007 l 515 165 q 258 -19 429 -19 m 614 1231 l 721 1231 q 647 1108 713 1154 q 464 1063 582 1063 q 286 1108 349 1063 q 211 1231 224 1154 l 318 1231 q 465 1147 333 1147 q 614 1231 596 1147 z "},"Џ":{"ha":1032,"x_min":133,"x_max":899,"o":"m 583 0 l 583 -210 l 450 -210 l 450 0 l 133 0 l 133 1007 l 275 1007 l 275 122 l 757 122 l 757 1007 l 899 1007 l 899 0 l 583 0 z "},"А":{"ha":931,"x_min":7,"x_max":924,"o":"m 7 0 l 381 1007 l 544 1007 l 924 0 l 771 0 l 692 218 l 229 218 l 151 0 l 7 0 m 458 864 l 272 339 l 647 339 l 458 864 z "},"Б":{"ha":926,"x_min":133,"x_max":871,"o":"m 275 885 l 275 610 l 511 610 q 777 536 683 610 q 871 313 871 463 q 773 76 871 153 q 504 0 675 0 l 133 0 l 133 1007 l 810 1007 l 810 885 l 275 885 m 275 122 l 506 122 q 667 171 610 122 q 725 311 725 219 q 669 451 725 408 q 500 493 613 493 l 275 493 l 275 122 z "},"В":{"ha":950,"x_min":133,"x_max":892,"o":"m 133 0 l 133 1007 l 496 1007 q 850 758 850 1007 q 821 626 850 686 q 739 536 792 565 q 892 297 892 472 q 792 73 892 146 q 531 0 693 0 l 133 0 m 275 464 l 275 119 l 532 119 q 746 296 746 119 q 692 424 746 383 q 524 464 638 464 l 275 464 m 275 888 l 275 576 l 518 576 q 707 739 707 576 q 657 851 707 814 q 518 888 607 888 l 275 888 z "},"Г":{"ha":761,"x_min":133,"x_max":761,"o":"m 761 1007 l 761 885 l 275 885 l 275 0 l 133 0 l 133 1007 l 761 1007 z "},"Д":{"ha":1042,"x_min":35,"x_max":1000,"o":"m 1000 122 l 1000 -210 l 869 -210 l 869 0 l 165 0 l 165 -210 l 35 -210 l 35 122 l 78 122 q 239 713 231 122 l 243 1007 l 878 1007 l 878 122 l 1000 122 m 736 122 l 736 885 l 379 885 l 376 667 q 341 329 374 468 q 258 122 308 190 l 736 122 z "},"Е":{"ha":886,"x_min":133,"x_max":817,"o":"m 133 0 l 133 1007 l 817 1007 l 817 885 l 275 885 l 275 579 l 785 579 l 785 457 l 275 457 l 275 122 l 817 122 l 817 0 l 133 0 z "},"Ж":{"ha":1372,"x_min":21,"x_max":1351,"o":"m 615 0 l 615 458 l 506 458 l 189 0 l 21 0 l 382 529 l 43 1007 l 211 1007 l 507 581 l 615 581 l 615 1007 l 757 1007 l 757 581 l 865 581 l 1161 1007 l 1326 1007 l 989 528 l 1351 0 l 1183 0 l 869 458 l 757 458 l 757 0 l 615 0 z "},"З":{"ha":871,"x_min":49,"x_max":813,"o":"m 635 532 q 813 285 813 481 q 702 60 813 136 q 429 -17 592 -17 q 175 64 271 -17 q 49 289 79 144 l 188 289 q 439 103 224 103 q 609 153 550 103 q 668 289 668 203 q 440 463 668 463 l 321 463 l 321 578 l 432 578 q 576 619 522 578 q 631 739 631 661 q 579 863 631 819 q 436 906 528 906 q 286 853 349 906 q 213 703 224 800 l 72 703 q 190 938 93 851 q 443 1025 286 1025 q 680 952 585 1025 q 775 754 775 879 q 635 532 775 603 z "},"И":{"ha":1092,"x_min":133,"x_max":958,"o":"m 817 0 l 817 800 l 275 0 l 133 0 l 133 1007 l 275 1007 l 275 208 l 817 1007 l 958 1007 l 958 0 l 817 0 z "},"Й":{"ha":1092,"x_min":133,"x_max":958,"o":"m 699 1231 l 806 1231 q 732 1108 797 1154 q 549 1063 667 1063 q 371 1108 433 1063 q 296 1231 308 1154 l 403 1231 q 550 1147 418 1147 q 699 1231 681 1147 m 817 0 l 817 800 l 275 0 l 133 0 l 133 1007 l 275 1007 l 275 208 l 817 1007 l 958 1007 l 958 0 l 817 0 z "},"К":{"ha":921,"x_min":133,"x_max":900,"o":"m 731 0 l 381 458 l 275 458 l 275 0 l 133 0 l 133 1007 l 275 1007 l 275 581 l 376 581 l 715 1007 l 886 1007 l 497 531 l 900 0 l 731 0 z "},"Л":{"ha":1014,"x_min":42,"x_max":881,"o":"m 881 0 l 739 0 l 739 885 l 383 885 l 376 710 q 352 413 369 538 q 301 192 335 289 q 214 48 268 96 q 83 0 160 0 l 42 0 l 42 122 l 63 122 q 131 156 101 122 q 180 244 161 189 q 212 383 199 299 q 231 553 225 467 q 242 753 238 640 l 249 1007 l 881 1007 l 881 0 z "},"М":{"ha":1256,"x_min":133,"x_max":1122,"o":"m 703 0 l 553 0 l 275 878 l 275 0 l 133 0 l 133 1007 l 371 1007 l 628 168 l 885 1007 l 1122 1007 l 1122 0 l 981 0 l 981 878 l 703 0 z "},"Н":{"ha":1079,"x_min":133,"x_max":946,"o":"m 804 1007 l 946 1007 l 946 0 l 804 0 l 804 457 l 275 457 l 275 0 l 133 0 l 133 1007 l 275 1007 l 275 579 l 804 579 l 804 1007 z "},"О":{"ha":1086,"x_min":71,"x_max":1015,"o":"m 308 799 q 261 746 308 799 q 215 504 215 693 q 308 208 215 315 q 543 101 400 101 q 778 208 686 101 q 871 504 871 315 q 778 799 871 693 q 543 906 686 906 q 308 799 400 906 m 887 880 q 951 807 887 880 q 1015 504 1015 735 q 887 128 1015 274 q 543 -18 758 -18 q 199 128 328 -18 q 71 504 71 274 q 199 880 71 735 q 543 1025 328 1025 q 887 880 758 1025 z "},"П":{"ha":1053,"x_min":133,"x_max":919,"o":"m 919 0 l 778 0 l 778 885 l 275 885 l 275 0 l 133 0 l 133 1007 l 919 1007 l 919 0 z "},"Р":{"ha":888,"x_min":133,"x_max":867,"o":"m 133 1007 l 449 1007 q 760 942 653 1007 q 867 703 867 876 q 837 550 867 611 q 749 456 807 489 q 619 411 690 424 q 449 399 547 399 l 275 399 l 275 0 l 133 0 l 133 1007 m 460 888 l 275 888 l 275 522 l 460 522 q 565 528 525 522 q 645 551 606 533 q 703 606 685 568 q 722 703 722 643 q 703 801 722 763 q 646 857 685 839 q 565 881 607 875 q 460 888 522 888 z "},"С":{"ha":1008,"x_min":71,"x_max":964,"o":"m 826 321 l 964 321 q 814 70 932 158 q 528 -18 696 -18 q 193 127 315 -18 q 71 506 71 272 q 199 882 71 739 q 539 1025 326 1025 q 811 935 697 1025 q 958 686 925 846 l 821 686 q 723 845 799 785 q 532 906 647 906 q 304 800 393 906 q 215 506 215 694 q 304 209 215 317 q 536 101 393 101 q 727 160 653 101 q 826 321 801 219 z "},"Т":{"ha":797,"x_min":0,"x_max":797,"o":"m 328 0 l 328 885 l 0 885 l 0 1007 l 797 1007 l 797 885 l 469 885 l 469 0 l 328 0 z "},"У":{"ha":886,"x_min":14,"x_max":886,"o":"m 258 -19 l 154 -19 l 154 103 l 249 103 q 369 169 333 103 l 389 206 l 14 1007 l 167 1007 l 460 353 l 729 1007 l 886 1007 l 515 165 q 258 -19 429 -19 z "},"Ф":{"ha":1146,"x_min":53,"x_max":1093,"o":"m 644 1063 l 644 938 q 973 810 853 929 q 1093 504 1093 690 q 973 207 1093 324 q 644 82 853 90 l 644 -36 l 503 -36 l 503 82 q 174 208 294 90 q 53 510 53 326 q 174 810 53 692 q 503 938 294 929 l 503 1063 l 644 1063 m 503 200 l 503 819 q 281 729 365 811 q 197 507 197 647 q 282 290 197 371 q 503 200 367 208 m 644 819 l 644 200 q 864 290 779 208 q 949 507 949 371 q 864 728 949 646 q 644 819 779 811 z "},"Х":{"ha":953,"x_min":21,"x_max":932,"o":"m 21 0 l 394 518 l 46 1007 l 214 1007 l 479 635 l 747 1007 l 907 1007 l 558 524 l 932 0 l 765 0 l 474 407 l 181 0 l 21 0 z "},"Ц":{"ha":1061,"x_min":133,"x_max":1019,"o":"m 1019 122 l 1019 -210 l 889 -210 l 889 0 l 133 0 l 133 1007 l 275 1007 l 275 122 l 757 122 l 757 1007 l 899 1007 l 899 122 l 1019 122 z "},"Ч":{"ha":964,"x_min":83,"x_max":831,"o":"m 831 1007 l 831 0 l 689 0 l 689 394 q 429 363 539 363 q 83 669 83 363 l 83 1007 l 225 1007 l 225 706 q 285 536 225 585 q 471 488 344 488 q 689 514 575 488 l 689 1007 l 831 1007 z "},"Ш":{"ha":1444,"x_min":133,"x_max":1311,"o":"m 1311 0 l 133 0 l 133 1007 l 275 1007 l 275 122 l 644 122 l 644 1007 l 786 1007 l 786 122 l 1169 122 l 1169 1007 l 1311 1007 l 1311 0 z "},"Щ":{"ha":1475,"x_min":133,"x_max":1433,"o":"m 1433 122 l 1433 -210 l 1300 -210 l 1300 0 l 133 0 l 133 1007 l 275 1007 l 275 122 l 646 122 l 646 1007 l 786 1007 l 786 122 l 1171 122 l 1171 1007 l 1311 1007 l 1311 122 l 1433 122 z "},"Ъ":{"ha":1026,"x_min":0,"x_max":992,"o":"m 431 636 l 563 636 q 703 628 642 636 q 821 599 765 619 q 913 542 876 578 q 971 451 950 507 q 992 318 992 394 q 961 161 992 225 q 870 63 931 97 q 736 14 810 28 q 563 0 663 0 l 290 0 l 290 885 l 0 885 l 0 1007 l 431 1007 l 431 636 m 431 122 l 569 122 q 771 164 699 122 q 843 318 843 206 q 823 418 843 378 q 763 478 803 458 q 677 506 722 499 q 569 514 632 514 l 431 514 l 431 122 z "},"Ы":{"ha":1239,"x_min":133,"x_max":1106,"o":"m 1106 0 l 964 0 l 964 1007 l 1106 1007 l 1106 0 m 133 0 l 133 1007 l 275 1007 l 275 636 l 396 636 q 569 622 496 636 q 702 575 642 608 q 794 477 763 542 q 825 318 825 413 q 794 161 825 225 q 702 63 763 97 q 569 14 642 28 q 396 0 496 0 l 133 0 m 275 122 l 401 122 q 510 131 464 122 q 595 159 556 139 q 656 219 635 179 q 676 318 676 260 q 656 418 676 378 q 594 478 635 458 q 509 506 554 499 q 401 514 464 514 l 275 514 l 275 122 z "},"Ь":{"ha":888,"x_min":133,"x_max":853,"o":"m 133 0 l 133 1007 l 275 1007 l 275 636 l 424 636 q 597 622 524 636 q 730 575 669 608 q 822 477 790 542 q 853 318 853 413 q 822 161 853 225 q 730 63 790 97 q 597 14 669 28 q 424 0 524 0 l 133 0 m 275 122 l 429 122 q 538 131 492 122 q 623 159 583 139 q 683 219 663 179 q 704 318 704 260 q 683 418 704 378 q 622 478 663 458 q 537 506 582 499 q 429 514 492 514 l 275 514 l 275 122 z "},"Э":{"ha":1035,"x_min":42,"x_max":964,"o":"m 42 335 l 182 335 q 288 160 206 219 q 489 101 371 101 q 715 196 626 101 q 814 453 803 290 l 340 453 l 340 575 l 813 575 q 709 817 796 728 q 490 906 622 906 q 294 847 376 906 q 188 671 211 788 l 46 671 q 194 930 78 835 q 485 1025 311 1025 q 835 881 707 1025 q 964 504 964 738 q 838 125 964 268 q 490 -18 713 -18 q 191 77 313 -18 q 42 335 69 172 z "},"Ю":{"ha":1508,"x_min":133,"x_max":1438,"o":"m 949 1025 q 1303 882 1168 1025 q 1438 504 1438 739 q 1303 126 1438 269 q 949 -18 1168 -18 q 619 113 747 -18 q 481 458 492 244 l 275 458 l 275 0 l 133 0 l 133 1007 l 275 1007 l 275 581 l 483 581 q 628 903 503 782 q 949 1025 754 1025 m 949 101 q 1197 208 1100 101 q 1293 504 1293 315 q 1197 799 1293 693 q 949 906 1100 906 q 713 799 803 906 q 622 504 622 693 q 713 208 622 314 q 949 101 803 101 z "},"Я":{"ha":961,"x_min":61,"x_max":828,"o":"m 828 1007 l 828 0 l 686 0 l 686 378 l 539 378 q 503 379 528 378 q 475 381 479 381 l 225 0 l 61 0 l 333 414 q 117 697 117 488 q 230 936 117 865 q 547 1007 343 1007 l 828 1007 m 686 885 l 538 885 q 332 844 403 885 q 261 693 261 803 q 538 500 261 500 l 686 500 l 686 885 z "},"а":{"ha":776,"x_min":56,"x_max":706,"o":"m 571 313 l 571 360 q 288 307 381 342 q 196 200 196 272 q 235 114 196 146 q 340 82 274 82 q 506 136 440 82 q 571 313 571 190 m 313 -18 q 129 40 203 -18 q 56 197 56 97 q 90 307 56 261 q 195 383 124 353 q 351 429 267 413 q 561 460 436 446 l 561 478 q 392 660 561 660 q 269 621 314 660 q 221 511 225 582 l 90 511 q 187 694 99 626 q 390 763 275 763 q 617 688 544 763 q 688 454 689 613 l 686 282 q 706 0 685 100 l 578 0 q 568 103 569 54 q 313 -18 497 -18 z "},"б":{"ha":800,"x_min":69,"x_max":758,"o":"m 443 704 q 668 612 578 704 q 758 350 758 519 q 662 79 758 176 q 421 -18 565 -18 q 169 88 268 -18 q 69 389 69 193 l 69 475 q 159 803 72 688 q 463 961 246 918 l 708 1010 l 708 897 l 469 846 q 261 750 328 814 q 182 551 194 686 q 288 665 218 626 q 443 704 357 704 m 421 92 q 569 159 514 92 q 624 347 624 226 q 568 531 624 467 q 422 594 513 594 q 268 531 331 594 q 206 349 206 468 q 265 161 206 231 q 421 92 325 92 z "},"в":{"ha":776,"x_min":107,"x_max":735,"o":"m 107 747 l 432 747 q 704 557 704 747 q 600 393 704 436 q 735 218 735 354 q 658 53 735 107 q 454 0 582 0 l 107 0 l 107 747 m 233 433 l 424 433 q 535 458 497 433 q 572 543 572 482 q 535 617 572 597 q 419 638 497 638 l 233 638 l 233 433 m 233 329 l 233 110 l 435 110 q 603 219 603 110 q 562 305 603 281 q 431 329 521 329 l 233 329 z "},"г":{"ha":597,"x_min":107,"x_max":583,"o":"m 583 638 l 233 638 l 233 0 l 107 0 l 107 747 l 583 747 l 583 638 z "},"д":{"ha":826,"x_min":14,"x_max":806,"o":"m 806 110 l 806 -165 l 683 -165 l 683 0 l 136 0 l 136 -165 l 14 -165 l 14 110 l 47 110 q 145 203 111 110 q 188 507 179 296 l 197 747 l 701 747 l 701 110 l 806 110 m 575 110 l 575 638 l 319 638 l 313 494 q 211 110 297 192 l 575 110 z "},"е":{"ha":808,"x_min":49,"x_max":760,"o":"m 760 332 l 185 332 q 256 156 188 218 q 415 93 325 93 q 619 217 565 93 l 750 217 q 635 49 724 115 q 415 -18 546 -18 q 146 92 243 -18 q 49 372 49 201 q 151 653 49 547 q 411 760 254 760 q 675 637 579 760 q 760 332 771 514 m 411 651 q 258 599 321 651 q 186 440 194 546 l 626 440 q 565 588 624 525 q 411 651 507 651 z "},"ж":{"ha":1126,"x_min":14,"x_max":1113,"o":"m 839 394 l 1113 0 l 961 0 l 736 331 l 626 331 l 626 0 l 500 0 l 500 331 l 394 331 l 168 0 l 14 0 l 289 390 l 39 747 l 186 747 l 394 440 l 500 440 l 500 747 l 626 747 l 626 440 l 732 440 l 942 747 l 1088 747 l 839 394 z "},"з":{"ha":701,"x_min":25,"x_max":658,"o":"m 507 392 q 615 328 572 374 q 658 213 658 283 q 568 40 658 99 q 343 -18 478 -18 q 131 44 217 -18 q 25 228 44 106 l 153 228 q 351 88 183 88 q 477 120 431 88 q 524 207 524 153 q 361 329 524 329 l 242 329 l 242 433 l 354 433 q 458 463 421 433 q 494 550 494 493 q 454 627 494 601 q 349 653 414 653 q 168 517 190 653 l 38 517 q 139 700 57 636 q 342 764 221 764 q 542 708 460 764 q 625 553 625 653 q 507 392 625 449 z "},"и":{"ha":853,"x_min":107,"x_max":746,"o":"m 619 0 l 619 564 l 233 0 l 107 0 l 107 747 l 233 747 l 233 183 l 619 747 l 746 747 l 746 0 l 619 0 z "},"й":{"ha":853,"x_min":107,"x_max":746,"o":"m 554 1007 l 653 1007 q 431 839 631 839 q 272 888 325 839 q 213 1007 218 936 l 311 1007 q 432 922 322 922 q 554 1007 543 922 m 619 0 l 619 564 l 233 0 l 107 0 l 107 747 l 233 747 l 233 183 l 619 747 l 746 747 l 746 0 l 619 0 z "},"к":{"ha":758,"x_min":107,"x_max":744,"o":"m 588 0 l 331 332 l 235 332 l 235 0 l 107 0 l 107 747 l 235 747 l 235 442 l 328 442 l 565 747 l 715 747 l 433 394 l 744 0 l 588 0 z "},"л":{"ha":804,"x_min":28,"x_max":697,"o":"m 697 747 l 697 0 l 571 0 l 571 638 l 319 638 l 308 457 q 236 111 294 222 q 51 0 178 0 l 28 0 l 28 110 l 42 110 q 188 492 168 110 l 199 747 l 697 747 z "},"м":{"ha":1031,"x_min":107,"x_max":924,"o":"m 924 747 l 924 0 l 800 0 l 800 600 l 560 0 l 469 0 l 231 592 l 231 0 l 107 0 l 107 747 l 288 747 l 519 172 l 743 747 l 924 747 z "},"н":{"ha":836,"x_min":107,"x_max":729,"o":"m 729 0 l 603 0 l 603 326 l 233 326 l 233 0 l 107 0 l 107 747 l 233 747 l 233 436 l 603 436 l 603 747 l 729 747 l 729 0 z "},"о":{"ha":819,"x_min":51,"x_max":768,"o":"m 186 371 q 250 162 186 231 q 410 93 314 93 q 569 164 504 93 q 633 371 633 235 q 569 580 633 511 q 410 649 506 649 q 250 581 314 649 q 186 371 186 514 m 158 660 q 212 710 158 660 q 410 760 265 760 q 661 660 554 760 q 768 371 768 560 q 661 82 768 182 q 410 -18 554 -18 q 158 82 265 -18 q 51 371 51 182 q 158 660 51 560 z "},"п":{"ha":829,"x_min":107,"x_max":722,"o":"m 722 747 l 722 0 l 596 0 l 596 638 l 233 638 l 233 0 l 107 0 l 107 747 l 722 747 z "},"р":{"ha":846,"x_min":107,"x_max":797,"o":"m 107 747 l 233 747 l 233 629 q 478 760 308 760 q 705 654 613 760 q 797 371 797 549 q 705 87 797 192 q 478 -18 613 -18 q 233 113 308 -18 l 233 -243 l 107 -243 l 107 747 m 291 581 q 259 545 291 581 q 228 371 228 510 q 291 161 228 232 q 446 90 354 90 q 602 165 544 90 q 660 371 660 239 q 602 577 660 503 q 446 651 544 651 q 291 581 354 651 z "},"с":{"ha":774,"x_min":49,"x_max":731,"o":"m 410 760 q 623 681 539 760 q 722 497 707 601 l 594 497 q 528 606 581 564 q 401 649 475 649 q 249 578 311 649 q 186 374 186 507 q 249 166 186 239 q 401 93 311 93 q 532 137 478 93 q 600 243 586 181 l 731 243 q 617 58 710 135 q 397 -18 525 -18 q 143 90 238 -18 q 49 372 49 199 q 147 651 49 542 q 410 760 246 760 z "},"т":{"ha":679,"x_min":21,"x_max":658,"o":"m 658 638 l 403 638 l 403 0 l 276 0 l 276 638 l 21 638 l 21 747 l 658 747 l 658 638 z "},"у":{"ha":661,"x_min":7,"x_max":654,"o":"m 63 -243 l 63 -137 l 114 -137 q 216 -117 185 -137 q 271 -15 247 -96 l 276 0 l 7 747 l 147 747 l 338 171 l 522 747 l 654 747 l 388 -32 q 331 -160 357 -119 q 258 -222 306 -201 q 128 -243 211 -243 l 63 -243 z "},"ф":{"ha":993,"x_min":49,"x_max":944,"o":"m 560 1007 l 560 746 q 838 650 732 746 q 944 371 944 554 q 838 88 944 183 q 560 -7 731 -7 l 560 -243 l 433 -243 l 433 -7 q 155 88 261 -7 q 49 371 49 182 q 156 650 49 554 q 433 746 263 746 l 433 1007 l 560 1007 m 433 101 l 433 638 q 252 569 321 638 q 183 367 183 500 q 251 168 183 235 q 433 101 318 101 m 560 638 l 560 101 q 742 168 674 101 q 810 367 810 235 q 742 569 810 500 q 560 638 675 638 z "},"х":{"ha":728,"x_min":14,"x_max":714,"o":"m 689 747 l 435 390 l 714 0 l 563 0 l 360 285 l 158 0 l 14 0 l 289 385 l 31 747 l 182 747 l 364 490 l 547 747 l 689 747 z "},"ц":{"ha":826,"x_min":107,"x_max":806,"o":"m 701 110 l 806 110 l 806 -179 l 686 -179 l 686 0 l 107 0 l 107 747 l 233 747 l 233 110 l 575 110 l 575 747 l 701 747 l 701 110 z "},"ч":{"ha":764,"x_min":69,"x_max":657,"o":"m 657 0 l 531 0 l 531 303 q 308 272 403 272 q 129 328 189 272 q 69 504 69 385 l 69 747 l 196 747 l 196 531 q 234 416 196 450 q 354 382 272 382 q 531 407 426 382 l 531 747 l 657 747 l 657 0 z "},"ш":{"ha":1135,"x_min":107,"x_max":1028,"o":"m 1028 747 l 1028 0 l 107 0 l 107 747 l 233 747 l 233 110 l 504 110 l 504 747 l 631 747 l 631 110 l 901 110 l 901 747 l 1028 747 z "},"щ":{"ha":1153,"x_min":107,"x_max":1132,"o":"m 1132 110 l 1132 -179 l 1013 -179 l 1013 0 l 107 0 l 107 747 l 233 747 l 233 110 l 504 110 l 504 747 l 631 747 l 631 110 l 901 110 l 901 747 l 1028 747 l 1028 110 l 1132 110 z "},"ъ":{"ha":811,"x_min":21,"x_max":776,"o":"m 351 483 l 496 483 q 709 426 642 483 q 776 247 776 368 q 704 58 776 115 q 496 0 632 0 l 225 0 l 225 638 l 21 638 l 21 747 l 351 747 l 351 483 m 351 110 l 485 110 q 612 142 571 110 q 653 247 653 174 q 613 347 653 319 q 481 374 572 374 l 351 374 l 351 110 z "},"ы":{"ha":1014,"x_min":107,"x_max":907,"o":"m 376 0 l 107 0 l 107 747 l 233 747 l 233 483 l 378 483 q 590 426 522 483 q 657 247 657 368 q 585 58 657 115 q 376 0 513 0 m 233 374 l 233 110 l 365 110 q 492 142 451 110 q 533 247 533 174 q 493 347 533 319 q 361 374 453 374 l 233 374 m 907 0 l 781 0 l 781 747 l 907 747 l 907 0 z "},"ь":{"ha":725,"x_min":107,"x_max":690,"o":"m 233 483 l 411 483 q 624 426 557 483 q 690 247 690 368 q 618 58 690 115 q 410 0 546 0 l 107 0 l 107 747 l 233 747 l 233 483 m 233 110 l 399 110 q 526 142 485 110 q 567 247 567 174 q 526 346 567 318 q 396 374 485 374 l 233 374 l 233 110 z "},"э":{"ha":786,"x_min":43,"x_max":738,"o":"m 43 250 l 169 250 q 241 137 186 181 q 381 93 296 93 q 532 152 468 93 q 604 322 596 211 l 275 322 l 275 432 l 604 432 q 532 594 593 535 q 379 653 471 653 q 248 611 301 653 q 175 494 194 569 l 50 494 q 165 694 74 624 q 383 764 257 764 q 642 656 546 764 q 738 372 738 549 q 646 88 738 194 q 388 -18 554 -18 q 167 50 260 -18 q 43 250 74 118 z "},"ю":{"ha":1131,"x_min":107,"x_max":1079,"o":"m 721 760 q 972 660 865 760 q 1079 371 1079 560 q 972 82 1079 182 q 721 -18 865 -18 q 494 70 593 -18 q 382 326 394 158 l 233 326 l 233 0 l 107 0 l 107 747 l 233 747 l 233 436 l 385 436 q 499 678 403 596 q 721 760 596 760 m 721 93 q 880 164 815 93 q 944 371 944 235 q 881 580 944 511 q 721 649 817 649 q 574 581 633 649 q 515 371 515 514 q 575 162 515 231 q 721 93 635 93 z "},"я":{"ha":767,"x_min":21,"x_max":660,"o":"m 660 747 l 660 0 l 533 0 l 533 265 l 401 265 q 381 267 388 265 l 178 0 l 21 0 l 247 301 q 89 517 89 356 q 162 689 89 631 q 367 747 235 747 l 660 747 m 533 638 l 374 638 q 218 508 218 638 q 385 375 218 375 l 533 375 l 533 638 z "},"ё":{"ha":808,"x_min":49,"x_max":760,"o":"m 200 869 l 200 1007 l 326 1007 l 326 869 l 200 869 m 518 1007 l 646 1007 l 646 869 l 518 869 l 518 1007 m 760 332 l 185 332 q 256 156 188 218 q 415 93 325 93 q 619 217 565 93 l 750 217 q 635 49 724 115 q 415 -18 546 -18 q 146 92 243 -18 q 49 372 49 201 q 151 653 49 547 q 411 760 254 760 q 675 637 579 760 q 760 332 771 514 m 411 651 q 258 599 321 651 q 186 440 194 546 l 626 440 q 565 588 624 525 q 411 651 507 651 z "},"ђ":{"ha":831,"x_min":21,"x_max":761,"o":"m 761 290 l 761 -42 q 719 -201 761 -158 q 567 -243 678 -243 l 514 -243 l 514 -133 l 532 -133 q 617 -112 599 -133 q 635 -22 635 -90 l 635 257 q 601 424 635 365 q 475 482 568 482 q 331 407 383 482 q 279 197 279 332 l 279 0 l 153 0 l 153 701 l 21 701 l 21 803 l 153 803 l 153 1007 l 279 1007 l 279 803 l 538 803 l 538 701 l 279 701 l 279 429 q 368 540 306 493 q 519 586 431 586 q 704 511 647 586 q 761 290 761 436 z "},"ѓ":{"ha":597,"x_min":107,"x_max":599,"o":"m 583 638 l 233 638 l 233 0 l 107 0 l 107 747 l 583 747 l 583 638 m 599 1007 l 417 846 l 311 846 l 436 1007 l 599 1007 z "},"є":{"ha":786,"x_min":49,"x_max":743,"o":"m 617 250 l 743 250 q 619 50 713 118 q 399 -18 526 -18 q 140 88 232 -18 q 49 372 49 194 q 144 656 49 549 q 403 764 240 764 q 621 694 529 764 q 736 494 713 624 l 611 494 q 538 611 592 569 q 407 653 485 653 q 254 594 315 653 q 182 432 193 535 l 503 432 l 503 322 l 182 322 q 254 152 190 211 q 406 93 318 93 q 545 137 490 93 q 617 250 600 181 z "},"ѕ":{"ha":729,"x_min":44,"x_max":669,"o":"m 660 529 l 528 529 q 351 653 499 653 q 242 629 289 653 q 194 558 194 606 q 223 492 194 515 q 308 457 251 469 l 414 436 q 601 363 532 414 q 669 214 669 313 q 583 44 669 106 q 365 -18 497 -18 q 142 58 226 -18 q 44 242 57 135 l 178 242 q 368 89 211 89 q 492 119 443 89 q 542 200 542 149 q 501 281 542 253 q 390 324 461 308 l 279 346 q 126 413 185 367 q 67 553 67 458 q 152 705 67 649 q 365 761 238 761 q 564 699 486 761 q 660 529 642 638 z "},"і":{"ha":336,"x_min":107,"x_max":233,"o":"m 107 747 l 233 747 l 233 0 l 107 0 l 107 747 m 107 1007 l 233 1007 l 233 854 l 107 854 l 107 1007 z "},"ї":{"ha":340,"x_min":-51,"x_max":394,"o":"m -51 869 l -51 1007 l 75 1007 l 75 869 l -51 869 m 267 1007 l 394 1007 l 394 869 l 267 869 l 267 1007 m 107 747 l 233 747 l 233 0 l 107 0 l 107 747 z "},"ј":{"ha":333,"x_min":-7,"x_max":233,"o":"m 107 -40 l 107 747 l 233 747 l 233 -37 q 198 -200 233 -157 q 57 -243 163 -243 l -7 -243 l -7 -137 l 29 -137 q 92 -119 78 -137 q 107 -40 107 -100 m 107 1007 l 233 1007 l 233 854 l 107 854 l 107 1007 z "},"љ":{"ha":1128,"x_min":28,"x_max":1093,"o":"m 697 483 l 814 483 q 1026 426 958 483 q 1093 247 1093 368 q 1021 58 1093 115 q 813 0 949 0 l 571 0 l 571 638 l 319 638 l 308 457 q 236 111 294 222 q 51 0 178 0 l 28 0 l 28 110 l 42 110 q 188 492 168 110 l 199 747 l 697 747 l 697 483 m 697 110 l 801 110 q 928 142 888 110 q 969 247 969 174 q 929 347 969 319 q 797 374 889 374 l 697 374 l 697 110 z "},"њ":{"ha":1160,"x_min":107,"x_max":1125,"o":"m 729 483 l 846 483 q 1058 426 990 483 q 1125 247 1125 368 q 1053 58 1125 115 q 844 0 981 0 l 603 0 l 603 326 l 233 326 l 233 0 l 107 0 l 107 747 l 233 747 l 233 436 l 603 436 l 603 747 l 729 747 l 729 483 m 729 110 l 833 110 q 960 142 919 110 q 1001 247 1001 174 q 961 347 1001 319 q 829 374 921 374 l 729 374 l 729 110 z "},"ћ":{"ha":838,"x_min":21,"x_max":768,"o":"m 768 0 l 642 0 l 642 257 q 608 424 642 365 q 479 482 574 482 q 331 407 383 482 q 279 197 279 332 l 279 0 l 153 0 l 153 701 l 21 701 l 21 803 l 153 803 l 153 1007 l 279 1007 l 279 803 l 538 803 l 538 701 l 279 701 l 279 429 q 367 540 306 494 q 524 586 429 586 q 710 511 653 586 q 768 290 768 436 l 768 0 z "},"ќ":{"ha":758,"x_min":107,"x_max":744,"o":"m 603 1007 l 421 846 l 315 846 l 440 1007 l 603 1007 m 588 0 l 331 332 l 235 332 l 235 0 l 107 0 l 107 747 l 235 747 l 235 442 l 328 442 l 565 747 l 715 747 l 433 394 l 744 0 l 588 0 z "},"ў":{"ha":661,"x_min":7,"x_max":654,"o":"m 458 1007 l 557 1007 q 335 839 535 839 q 176 888 229 839 q 117 1007 122 936 l 215 1007 q 336 922 226 922 q 458 1007 447 922 m 63 -243 l 63 -137 l 114 -137 q 216 -117 185 -137 q 271 -15 247 -96 l 276 0 l 7 747 l 147 747 l 338 171 l 522 747 l 654 747 l 388 -32 q 331 -160 357 -119 q 258 -222 306 -201 q 128 -243 211 -243 l 63 -243 z "},"џ":{"ha":808,"x_min":107,"x_max":701,"o":"m 701 0 l 464 0 l 464 -179 l 344 -179 l 344 0 l 107 0 l 107 747 l 233 747 l 233 110 l 575 110 l 575 747 l 701 747 l 701 0 z "},"Ѣ":{"ha":996,"x_min":28,"x_max":961,"o":"m 379 607 l 531 607 q 704 594 631 607 q 838 548 778 581 q 930 456 899 515 q 961 308 961 396 q 930 158 961 219 q 839 62 899 96 q 705 14 779 28 q 531 0 631 0 l 238 0 l 238 761 l 28 761 l 28 876 l 238 876 l 238 1007 l 379 1007 l 379 876 l 678 876 l 678 761 l 379 761 l 379 607 m 379 122 l 538 122 q 741 162 671 122 q 811 308 811 201 q 797 385 811 353 q 760 436 783 417 q 701 467 738 456 q 627 481 665 478 q 538 485 589 485 l 379 485 l 379 122 z "},"ѣ":{"ha":788,"x_min":21,"x_max":753,"o":"m 299 494 l 472 494 q 685 436 617 494 q 753 254 753 378 q 472 0 753 0 l 172 0 l 172 669 l 21 669 l 21 771 l 172 771 l 172 1007 l 299 1007 l 299 771 l 524 771 l 524 669 l 299 669 l 299 494 m 299 110 l 461 110 q 588 143 547 110 q 629 253 629 176 q 588 356 629 328 q 457 385 546 385 l 299 385 l 299 110 z "},"Ѳ":{"ha":1118,"x_min":71,"x_max":1047,"o":"m 558 1025 q 913 882 778 1025 q 1047 504 1047 739 q 913 126 1047 269 q 558 -18 778 -18 q 204 126 338 -18 q 71 504 71 271 q 204 881 71 736 q 558 1025 338 1025 m 558 906 q 335 819 426 906 q 225 582 244 733 l 892 582 q 783 819 875 733 q 558 906 692 906 m 324 197 q 371 149 324 197 q 558 101 418 101 q 793 197 699 101 q 896 460 888 292 l 222 460 q 324 197 231 293 z "},"ѳ":{"ha":822,"x_min":51,"x_max":771,"o":"m 51 374 q 153 663 51 563 q 410 764 256 764 q 668 663 565 764 q 771 374 771 563 q 668 83 771 183 q 410 -18 565 -18 q 153 83 256 -18 q 51 374 51 183 m 185 432 l 636 432 q 564 596 625 539 q 410 653 503 653 q 256 595 317 653 q 185 432 196 538 m 636 322 l 183 322 q 253 153 192 213 q 410 93 315 93 q 567 153 506 93 q 636 322 628 213 z "},"Ѵ":{"ha":997,"x_min":7,"x_max":976,"o":"m 451 165 l 668 778 q 772 951 710 894 q 932 1007 833 1007 l 976 1007 l 976 885 l 956 885 q 858 855 892 885 q 797 749 824 825 l 524 0 l 368 0 l 7 1007 l 157 1007 l 451 165 z "},"ѵ":{"ha":764,"x_min":0,"x_max":764,"o":"m 358 135 l 511 564 q 597 706 544 664 q 744 747 649 747 l 764 747 l 764 638 l 756 638 q 675 613 706 638 q 618 518 644 589 l 419 0 l 285 0 l 0 747 l 139 747 l 358 135 z "},"Ґ":{"ha":761,"x_min":133,"x_max":761,"o":"m 761 885 l 275 885 l 275 0 l 133 0 l 133 1007 l 631 1007 l 631 1217 l 761 1217 l 761 885 z "},"ґ":{"ha":597,"x_min":107,"x_max":583,"o":"m 583 638 l 233 638 l 233 0 l 107 0 l 107 747 l 461 747 l 461 919 l 583 919 l 583 638 z "},"Ғ":{"ha":775,"x_min":21,"x_max":775,"o":"m 289 885 l 289 588 l 543 588 l 543 472 l 289 472 l 289 0 l 147 0 l 147 472 l 21 472 l 21 588 l 147 588 l 147 1007 l 775 1007 l 775 885 l 289 885 z "},"ғ":{"ha":611,"x_min":21,"x_max":597,"o":"m 247 638 l 247 440 l 456 440 l 456 339 l 247 339 l 247 0 l 119 0 l 119 339 l 21 339 l 21 440 l 119 440 l 119 747 l 597 747 l 597 638 l 247 638 z "},"Җ":{"ha":1404,"x_min":21,"x_max":1383,"o":"m 1253 -210 l 1253 0 l 1183 0 l 869 458 l 757 458 l 757 0 l 615 0 l 615 458 l 506 458 l 189 0 l 21 0 l 382 529 l 43 1007 l 211 1007 l 507 581 l 615 581 l 615 1007 l 757 1007 l 757 581 l 865 581 l 1161 1007 l 1326 1007 l 989 528 l 1264 126 l 1383 126 l 1383 -210 l 1253 -210 z "},"җ":{"ha":1163,"x_min":14,"x_max":1158,"o":"m 1158 -179 l 1039 -179 l 1039 0 l 961 0 l 736 331 l 626 331 l 626 0 l 500 0 l 500 331 l 394 331 l 168 0 l 14 0 l 289 390 l 39 747 l 186 747 l 394 440 l 500 440 l 500 747 l 626 747 l 626 440 l 732 440 l 942 747 l 1088 747 l 839 394 l 1036 110 l 1158 110 l 1158 -179 z "},"Қ":{"ha":943,"x_min":133,"x_max":922,"o":"m 922 -210 l 792 -210 l 792 0 l 731 0 l 381 458 l 275 458 l 275 0 l 133 0 l 133 1007 l 275 1007 l 275 581 l 376 581 l 715 1007 l 886 1007 l 497 531 l 804 126 l 922 126 l 922 -210 z "},"қ":{"ha":778,"x_min":107,"x_max":774,"o":"m 774 -179 l 654 -179 l 654 0 l 588 0 l 331 332 l 235 332 l 235 0 l 107 0 l 107 747 l 235 747 l 235 442 l 328 442 l 565 747 l 707 747 l 425 394 l 650 110 l 774 110 l 774 -179 z "},"Ң":{"ha":1111,"x_min":133,"x_max":1069,"o":"m 1069 126 l 1069 -210 l 939 -210 l 939 0 l 806 0 l 806 457 l 275 457 l 275 0 l 133 0 l 133 1007 l 275 1007 l 275 579 l 806 579 l 806 1007 l 947 1007 l 947 126 l 1069 126 z "},"ң":{"ha":854,"x_min":107,"x_max":833,"o":"m 833 110 l 833 -179 l 714 -179 l 714 0 l 603 0 l 603 326 l 233 326 l 233 0 l 107 0 l 107 747 l 233 747 l 233 436 l 603 436 l 603 747 l 729 747 l 729 110 l 833 110 z "},"Ү":{"ha":867,"x_min":0,"x_max":867,"o":"m 0 1007 l 156 1007 l 431 515 l 711 1007 l 867 1007 l 497 390 l 497 0 l 356 0 l 356 393 l 0 1007 z "},"ү":{"ha":731,"x_min":14,"x_max":717,"o":"m 431 -243 l 304 -243 l 304 -18 l 14 747 l 153 747 l 371 128 l 583 747 l 717 747 l 431 -14 l 431 -243 z "},"Ұ":{"ha":867,"x_min":0,"x_max":867,"o":"m 497 0 l 356 0 l 356 297 l 169 297 l 169 419 l 340 419 l 0 1007 l 156 1007 l 431 515 l 711 1007 l 867 1007 l 515 419 l 706 419 l 706 297 l 497 297 l 497 0 z "},"ұ":{"ha":731,"x_min":14,"x_max":717,"o":"m 443 21 l 578 21 l 578 -81 l 431 -81 l 431 -243 l 304 -243 l 304 -81 l 157 -81 l 157 21 l 289 21 l 14 747 l 153 747 l 371 128 l 583 747 l 717 747 l 443 21 z "},"Ҳ":{"ha":1017,"x_min":21,"x_max":996,"o":"m 996 -210 l 865 -210 l 865 0 l 790 0 l 489 407 l 185 0 l 21 0 l 407 518 l 46 1007 l 213 1007 l 492 632 l 771 1007 l 936 1007 l 574 521 l 865 126 l 996 126 l 996 -210 z "},"ҳ":{"ha":758,"x_min":14,"x_max":754,"o":"m 754 -179 l 635 -179 l 635 0 l 563 0 l 360 285 l 158 0 l 14 0 l 289 385 l 31 747 l 182 747 l 364 490 l 547 747 l 689 747 l 435 390 l 635 110 l 754 110 l 754 -179 z "},"Ҷ":{"ha":996,"x_min":83,"x_max":954,"o":"m 954 126 l 954 -210 l 824 -210 l 824 0 l 689 0 l 689 394 q 421 363 553 363 q 83 669 83 363 l 83 1007 l 225 1007 l 225 706 q 284 534 225 583 q 469 485 343 485 q 689 511 572 485 l 689 1007 l 831 1007 l 831 126 l 954 126 z "},"ҷ":{"ha":782,"x_min":69,"x_max":761,"o":"m 761 110 l 761 -179 l 642 -179 l 642 0 l 531 0 l 531 303 q 308 272 407 272 q 69 504 69 272 l 69 747 l 196 747 l 196 532 q 233 415 196 450 q 354 381 271 381 q 531 408 413 381 l 531 747 l 657 747 l 657 110 l 761 110 z "},"Һ":{"ha":965,"x_min":133,"x_max":882,"o":"m 535 644 q 882 338 882 649 l 882 0 l 740 0 l 740 301 q 680 474 740 424 q 493 522 619 525 q 275 496 381 519 l 275 0 l 133 0 l 133 1007 l 275 1007 l 275 613 q 535 644 415 643 z "},"һ":{"ha":828,"x_min":107,"x_max":721,"o":"m 233 1007 l 233 635 q 475 760 310 760 q 721 472 721 760 l 721 0 l 594 0 l 594 435 q 562 594 594 538 q 431 650 529 650 q 285 588 338 650 q 233 406 233 525 l 233 0 l 107 0 l 107 1007 l 233 1007 z "},"Ӏ":{"ha":408,"x_min":133,"x_max":275,"o":"m 275 1007 l 275 0 l 133 0 l 133 1007 l 275 1007 z "},"ӏ":{"ha":340,"x_min":107,"x_max":233,"o":"m 233 1007 l 233 0 l 107 0 l 107 1007 l 233 1007 z "},"Ә":{"ha":1061,"x_min":83,"x_max":990,"o":"m 531 1025 q 868 882 746 1025 q 990 504 990 739 q 869 126 990 269 q 540 -18 747 -18 q 196 135 317 -18 q 83 569 75 288 l 836 569 q 738 815 819 725 q 533 906 657 906 q 345 853 425 906 q 233 697 265 800 l 92 697 q 248 938 131 851 q 531 1025 365 1025 m 529 101 q 743 194 660 101 q 838 447 826 286 l 228 447 q 319 193 236 285 q 529 101 403 101 z "},"ә":{"ha":800,"x_min":49,"x_max":751,"o":"m 393 -18 q 130 105 225 -18 q 49 410 35 228 l 614 410 q 550 587 614 521 q 392 653 486 653 q 189 529 243 653 l 58 529 q 172 697 85 631 q 389 764 258 764 q 657 654 563 764 q 751 369 751 544 q 651 88 751 194 q 393 -18 550 -18 m 240 153 q 268 122 240 153 q 393 90 296 90 q 549 146 490 90 q 613 301 608 201 l 182 301 q 240 153 185 215 z "},"Ӣ":{"ha":1076,"x_min":133,"x_max":958,"o":"m 817 0 l 817 800 l 275 0 l 133 0 l 133 1007 l 275 1007 l 275 208 l 817 1007 l 958 1007 l 958 0 l 817 0 m 772 1099 l 356 1099 l 356 1203 l 772 1203 l 772 1099 z "},"ӣ":{"ha":853,"x_min":107,"x_max":746,"o":"m 619 0 l 619 564 l 233 0 l 107 0 l 107 747 l 233 747 l 233 183 l 619 747 l 746 747 l 746 0 l 619 0 m 650 882 l 233 882 l 233 986 l 650 986 l 650 882 z "},"Ө":{"ha":1118,"x_min":71,"x_max":1047,"o":"m 558 1025 q 913 882 778 1025 q 1047 504 1047 739 q 913 126 1047 269 q 558 -18 778 -18 q 204 126 338 -18 q 71 504 71 271 q 204 881 71 736 q 558 1025 338 1025 m 324 197 q 371 149 324 197 q 558 101 418 101 q 793 197 699 101 q 896 460 888 292 l 222 460 q 324 197 231 293 m 558 906 q 335 819 426 906 q 225 582 244 733 l 892 582 q 783 819 875 733 q 558 906 692 906 z "},"ө":{"ha":822,"x_min":51,"x_max":771,"o":"m 410 764 q 668 663 565 764 q 771 374 771 563 q 668 83 771 183 q 410 -18 565 -18 q 153 83 256 -18 q 51 374 51 183 q 153 663 51 563 q 410 764 256 764 m 636 322 l 183 322 q 253 153 192 213 q 410 93 315 93 q 567 153 506 93 q 636 322 628 213 m 564 596 q 533 624 564 596 q 410 653 503 653 q 256 595 317 653 q 185 432 196 538 l 636 432 q 564 596 625 539 z "},"Ӯ":{"ha":886,"x_min":14,"x_max":886,"o":"m 258 -19 l 154 -19 l 154 103 l 249 103 q 369 169 333 103 l 389 206 l 14 1007 l 167 1007 l 460 353 l 729 1007 l 886 1007 l 515 165 q 258 -19 429 -19 m 676 1099 l 260 1099 l 260 1203 l 676 1203 l 676 1099 z "},"ӯ":{"ha":675,"x_min":7,"x_max":654,"o":"m 63 -243 l 63 -137 l 114 -137 q 216 -117 185 -137 q 271 -15 247 -96 l 276 0 l 7 747 l 147 747 l 338 171 l 522 747 l 654 747 l 388 -32 q 331 -160 357 -119 q 258 -222 306 -201 q 128 -243 211 -243 l 63 -243 m 554 882 l 138 882 l 138 986 l 554 986 l 554 882 z "},"؀":{"ha":1389,"x_min":0,"x_max":1360,"o":"m 1360 -115 l 1335 -239 q 640 -299 1001 -299 l 32 -299 l 0 -174 l 640 -174 l 725 -174 q 682 -76 682 -139 q 783 88 682 3 q 1144 318 885 172 l 1144 181 q 873 15 946 71 q 800 -82 800 -40 q 852 -147 800 -125 q 999 -162 904 -169 l 997 -162 q 1021 -161 1006 -161 q 1360 -115 1175 -147 z "},"؁":{"ha":3368,"x_min":49,"x_max":3367,"o":"m 361 114 q 415 108 390 114 q 460 88 440 103 q 495 62 481 74 q 526 26 510 50 q 551 -12 543 1 q 576 -55 560 -25 q 597 -94 592 -85 q 625 -142 615 -126 q 653 -178 635 -158 q 692 -207 671 -199 q 739 -215 713 -215 q 886 -104 851 -215 q 917 65 903 -42 l 1025 65 q 990 -125 1010 -53 l 988 -135 q 1342 -193 1156 -175 q 1824 -215 1564 -215 q 3367 -25 2581 -215 l 3367 -140 q 1814 -340 2569 -340 q 1324 -314 1549 -340 q 938 -240 1118 -292 q 890 -289 915 -272 q 735 -340 822 -340 q 601 -297 653 -340 q 507 -171 550 -254 q 487 -132 501 -160 q 466 -93 472 -104 q 447 -62 460 -82 q 422 -33 433 -42 q 395 -18 411 -25 q 361 -11 379 -11 q 253 -63 300 -11 q 149 -249 207 -115 l 49 -201 q 194 42 124 -29 q 361 114 265 114 z "},"؂":{"ha":1221,"x_min":76,"x_max":1221,"o":"m 167 267 q 213 313 167 267 q 392 358 258 358 q 615 269 525 358 q 704 32 704 179 l 704 -172 l 1221 -174 l 1193 -299 l 500 -299 q 76 28 76 -299 q 167 267 76 176 m 586 -172 l 586 19 q 531 173 586 113 q 389 233 475 233 q 251 178 306 233 q 196 35 196 122 q 478 -172 196 -171 l 586 -172 z "},"؃":{"ha":2126,"x_min":0,"x_max":2063,"o":"m 953 125 l 1060 125 q 1025 -82 1046 -1 l 1024 -83 q 1051 -94 1033 -87 q 1076 -103 1069 -100 l 1101 -111 q 1332 149 1238 50 q 1576 360 1482 307 q 1769 414 1671 414 q 1979 330 1896 414 q 2063 118 2063 246 q 1910 -184 2063 -69 q 1506 -299 1758 -299 q 1046 -212 1263 -299 l 975 -183 q 918 -239 949 -217 q 742 -299 839 -299 l 32 -299 l 0 -174 l 742 -174 q 858 -147 817 -174 q 919 -56 899 -119 q 953 125 942 17 m 1333 -162 q 1489 -174 1414 -174 q 1819 -99 1694 -174 q 1943 99 1943 -25 q 1888 234 1943 179 q 1753 289 1833 289 q 1590 233 1674 289 q 1374 35 1506 178 q 1218 -142 1325 -17 q 1333 -162 1271 -154 z "},"؉":{"ha":929,"x_min":64,"x_max":867,"o":"m 64 835 l 168 940 l 275 835 l 171 731 l 64 835 m 656 151 l 760 256 l 867 151 l 763 46 l 656 151 m 382 151 l 486 256 l 593 151 l 489 46 l 382 151 m 478 1007 l 601 1007 l 204 0 l 81 0 l 478 1007 z "},"؋":{"ha":1504,"x_min":76,"x_max":1443,"o":"m 1146 674 q 1358 583 1272 674 q 1443 360 1443 493 q 1344 97 1443 193 q 1074 0 1244 0 l 813 0 l 810 0 l 704 0 l 704 -382 l 586 -382 l 586 0 l 451 0 q 177 87 278 0 q 76 326 76 174 q 167 566 76 475 q 392 657 258 657 q 615 567 525 657 q 704 331 704 478 l 704 125 l 778 125 l 782 125 l 810 125 l 813 125 l 936 125 q 899 189 924 151 q 836 383 836 288 q 926 589 836 504 q 1146 674 1015 674 m 586 125 l 586 318 q 531 472 586 411 q 389 532 475 532 q 251 476 306 532 q 196 333 196 421 q 478 125 196 125 l 586 125 m 1053 125 l 1086 125 q 1260 182 1196 125 q 1324 344 1324 239 q 1272 491 1324 435 q 1135 547 1219 547 q 1006 496 1057 547 q 954 368 954 444 q 1004 219 954 306 q 1039 154 1026 182 l 1053 125 m 1043 878 l 1147 983 l 1254 878 l 1150 774 l 1043 878 z "},"،":{"ha":318,"x_min":81,"x_max":246,"o":"m 164 365 l 246 365 q 213 277 242 354 q 169 160 185 200 l 236 160 l 236 0 l 81 0 l 81 172 l 164 365 z "},"؍":{"ha":517,"x_min":-4,"x_max":517,"o":"m 393 1007 l 517 1007 l 119 0 l -4 0 l 393 1007 z "},"؎":{"ha":1340,"x_min":76,"x_max":1313,"o":"m 167 566 q 213 611 167 566 q 392 657 258 657 q 615 567 525 657 q 704 331 704 478 l 704 128 q 886 139 769 131 q 1313 183 1069 153 l 1288 60 q 500 0 818 0 q 76 326 76 0 q 167 566 76 475 m 586 125 l 586 318 q 531 472 586 411 q 389 532 475 532 q 251 476 306 532 q 196 333 196 421 q 478 125 196 125 l 586 125 z "},"؏":{"ha":863,"x_min":0,"x_max":850,"o":"m 446 747 q 685 692 544 747 l 685 579 q 460 624 551 624 q 312 576 368 624 q 256 447 256 528 q 320 314 256 372 q 529 265 385 256 q 743 297 629 285 l 717 171 q 319 74 442 142 q 196 -96 196 7 q 200 -131 196 -114 q 354 -14 286 -58 q 608 71 490 71 q 781 13 713 71 q 850 -135 850 -46 q 758 -315 850 -247 q 496 -382 665 -382 q 225 -319 344 -382 q 168 -283 200 -307 q 64 -382 135 -314 l 0 -312 l 104 -214 q 76 -107 76 -167 q 221 147 76 49 q 324 203 264 178 q 265 232 292 215 q 136 456 136 319 q 225 663 136 579 q 446 747 314 747 m 289 -217 q 500 -257 371 -257 q 670 -224 608 -257 q 732 -136 732 -192 q 695 -65 732 -93 q 603 -37 658 -37 q 393 -106 503 -37 q 263 -203 338 -140 q 274 -209 265 -204 q 289 -217 283 -214 z "},"ؕ":{"ha":0,"x_min":-224,"x_max":246,"o":"m -136 979 l -60 979 l -60 846 l -62 828 q 110 935 36 935 q 207 899 168 935 q 246 808 246 863 q 179 699 246 739 q -3 660 113 660 l -178 660 l -224 740 l -136 740 l -136 979 m -68 740 l -6 740 q 153 808 153 740 q 136 842 153 829 q 92 856 119 856 q -42 767 43 856 l -68 740 z "},"؛":{"ha":328,"x_min":81,"x_max":246,"o":"m 81 160 l 236 160 l 236 0 l 81 0 l 81 160 m 164 850 l 246 850 q 213 762 242 839 q 169 644 185 685 l 236 644 l 236 485 l 81 485 l 81 657 l 164 850 z "},"؟":{"ha":657,"x_min":35,"x_max":643,"o":"m 328 1007 q 643 838 503 1007 l 561 763 q 328 882 446 882 q 204 844 254 882 q 154 738 154 806 q 183 657 154 692 q 296 563 211 622 q 419 447 383 500 q 456 301 456 394 l 344 261 l 331 261 l 331 299 q 302 402 331 363 q 206 486 274 442 q 35 743 35 597 q 119 934 35 861 q 328 1007 204 1007 m 317 160 l 472 160 l 472 0 l 317 0 l 317 160 z "},"ء":{"ha":696,"x_min":35,"x_max":661,"o":"m 476 125 l 661 125 l 631 0 l 286 0 q 35 -40 174 0 l 35 78 q 167 115 128 108 q 214 122 196 121 q 178 156 193 139 q 122 307 122 221 q 202 492 122 415 q 399 569 282 569 q 599 519 478 569 l 599 408 q 417 446 486 446 q 290 403 339 446 q 240 297 240 361 q 363 143 240 190 q 476 125 404 128 z "},"آ":{"ha":354,"x_min":-49,"x_max":367,"o":"m 125 833 l 243 833 l 243 0 l 125 0 l 125 833 m 79 1047 q 167 1022 110 1047 q 256 996 225 996 q 367 1032 318 996 l 365 940 q 258 906 319 906 q 174 931 226 906 q 96 957 122 957 q 28 903 36 957 l -49 903 q -15 1006 -49 965 q 79 1047 19 1047 z "},"أ":{"ha":354,"x_min":1,"x_max":356,"o":"m 125 833 l 243 833 l 243 0 l 125 0 l 125 833 m 204 993 l 356 993 l 331 910 l 106 910 q 1 893 54 910 l 1 974 q 57 989 40 988 l 99 993 l 88 1007 q 67 1072 67 1039 q 104 1162 67 1126 q 197 1197 142 1197 q 303 1169 242 1197 l 303 1089 q 215 1110 249 1110 q 165 1094 185 1110 q 146 1050 146 1078 q 164 1010 146 1026 q 204 993 181 996 z "},"ؤ":{"ha":729,"x_min":63,"x_max":653,"o":"m 368 660 q 560 581 488 660 q 642 361 633 501 q 653 51 653 157 q 534 -206 656 -114 q 167 -299 413 -299 l 167 -185 q 447 -124 351 -185 q 542 46 542 -64 l 542 49 q 460 17 499 26 q 350 0 401 0 q 142 85 221 0 q 63 313 63 171 q 147 563 63 467 q 368 660 232 660 m 529 278 l 525 347 q 474 486 518 438 q 357 535 429 535 q 230 473 279 535 q 181 318 181 411 q 368 125 181 125 q 478 136 422 125 q 538 154 504 142 l 535 200 q 529 278 532 253 m 393 892 l 532 892 l 501 790 l 328 790 q 181 767 256 790 l 181 864 q 256 886 235 882 l 264 889 l 258 893 q 233 964 233 925 q 273 1059 233 1021 q 379 1097 313 1097 q 481 1071 426 1097 l 481 978 q 386 996 422 996 q 338 982 357 996 q 319 944 319 968 q 342 904 319 918 q 393 892 360 894 z "},"إ":{"ha":354,"x_min":-56,"x_max":299,"o":"m 125 1007 l 243 1007 l 243 0 l 125 0 l 125 1007 m 146 -269 l 299 -269 l 274 -353 l 49 -353 q -56 -369 -3 -353 l -56 -289 q 0 -272 -19 -276 q 42 -269 22 -269 l 29 -254 q 8 -190 8 -225 q 46 -101 8 -136 q 139 -67 83 -67 q 244 -93 188 -67 l 244 -174 q 157 -153 186 -153 q 107 -169 126 -153 q 88 -212 88 -186 q 107 -253 88 -236 q 146 -269 124 -268 z "},"ئ":{"ha":968,"x_min":28,"x_max":901,"o":"m 733 674 q 901 639 817 674 l 901 514 q 715 549 806 549 q 582 508 635 549 q 529 401 529 467 q 556 321 529 357 q 646 244 583 285 l 753 176 q 901 -32 901 83 q 792 -225 901 -151 q 483 -299 682 -299 q 168 -205 281 -299 q 56 79 56 -111 q 118 396 56 211 l 229 396 q 167 100 167 235 q 254 -108 167 -40 q 529 -175 342 -175 q 719 -137 650 -175 q 789 -42 789 -99 q 767 10 789 -14 q 676 79 746 35 l 576 142 q 456 253 493 196 q 418 388 418 310 q 508 592 418 511 q 733 674 597 674 m 240 618 l 379 618 l 349 517 l 175 517 q 28 493 103 517 l 28 590 q 103 613 82 608 l 111 615 l 106 619 q 81 690 81 650 q 120 785 81 747 q 226 824 160 824 q 328 797 274 824 l 328 704 q 233 722 269 722 q 185 708 204 722 q 167 671 167 694 q 189 631 167 644 q 240 618 207 621 z "},"ا":{"ha":354,"x_min":125,"x_max":243,"o":"m 125 1007 l 243 1007 l 243 0 l 125 0 l 125 1007 z "},"ب":{"ha":1140,"x_min":57,"x_max":1064,"o":"m 86 539 l 197 539 q 175 347 175 418 q 235 178 175 231 q 435 125 294 125 l 778 125 q 792 111 792 125 l 792 15 q 778 0 792 0 l 408 0 q 149 82 240 0 q 57 317 57 164 q 86 539 57 417 m 904 674 l 1022 674 q 1064 265 1064 382 q 992 70 1064 140 q 781 0 921 0 q 767 15 767 0 l 767 111 q 781 125 767 125 q 910 160 871 125 q 950 269 950 194 q 904 674 950 363 m 478 -203 l 582 -99 l 689 -203 l 585 -308 l 478 -203 z "},"ة":{"ha":701,"x_min":56,"x_max":653,"o":"m 374 747 l 506 747 q 626 415 599 499 q 653 269 653 331 q 567 64 653 146 q 347 -18 482 -18 q 137 57 218 -18 q 56 250 56 132 q 146 489 56 383 q 401 672 232 588 l 374 747 m 246 446 q 171 274 171 365 q 216 151 171 194 q 347 107 261 107 q 484 153 433 107 q 535 276 535 199 q 454 538 535 333 q 440 575 442 572 q 246 446 314 518 m 210 953 l 314 1058 l 419 956 l 524 1058 l 629 953 l 524 849 l 419 950 l 315 849 l 210 953 z "},"ت":{"ha":1140,"x_min":57,"x_max":1064,"o":"m 86 539 l 197 539 q 175 347 175 418 q 235 178 175 231 q 435 125 294 125 l 778 125 q 792 111 792 125 l 792 15 q 778 0 792 0 l 408 0 q 149 82 240 0 q 57 317 57 164 q 86 539 57 417 m 904 674 l 1022 674 q 1064 265 1064 382 q 992 70 1064 140 q 781 0 921 0 q 767 15 767 0 l 767 111 q 781 125 767 125 q 910 160 871 125 q 950 269 950 194 q 904 674 950 363 m 357 735 l 461 840 l 567 738 l 671 840 l 776 735 l 671 631 l 567 732 l 463 631 l 357 735 z "},"ث":{"ha":1140,"x_min":57,"x_max":1064,"o":"m 86 539 l 197 539 q 175 347 175 418 q 235 178 175 231 q 435 125 294 125 l 778 125 q 792 111 792 125 l 792 15 q 778 0 792 0 l 408 0 q 149 82 240 0 q 57 317 57 164 q 86 539 57 417 m 904 674 l 1022 674 q 1064 265 1064 382 q 992 70 1064 140 q 781 0 921 0 q 767 15 767 0 l 767 111 q 781 125 767 125 q 910 160 871 125 q 950 269 950 194 q 904 674 950 363 m 571 735 l 678 842 l 783 735 l 678 631 l 571 735 m 344 735 l 449 842 l 556 735 l 450 631 l 344 735 m 481 903 l 564 988 l 649 903 l 565 819 l 481 903 z "},"ج":{"ha":885,"x_min":56,"x_max":843,"o":"m 271 747 q 375 724 324 747 q 476 663 426 701 q 577 583 526 625 q 699 498 628 542 q 843 426 769 454 l 811 308 q 504 263 650 308 q 267 133 358 217 q 175 -50 175 50 q 249 -204 175 -151 q 457 -257 322 -257 q 774 -206 593 -257 l 774 -317 q 450 -382 585 -382 q 158 -300 261 -382 q 56 -61 56 -218 q 157 185 56 78 q 442 349 258 292 q 653 393 531 378 q 568 447 610 417 q 505 499 554 458 q 438 550 456 539 q 385 584 421 561 q 321 615 349 607 q 264 622 293 622 q 97 589 193 622 l 97 700 q 271 747 174 747 m 392 8 l 496 113 l 603 8 l 499 -97 l 392 8 z "},"ح":{"ha":885,"x_min":56,"x_max":843,"o":"m 271 747 q 375 724 324 747 q 476 663 426 701 q 577 583 526 625 q 699 498 628 542 q 843 426 769 454 l 811 308 q 504 263 650 308 q 267 133 358 217 q 175 -50 175 50 q 249 -204 175 -151 q 457 -257 322 -257 q 774 -206 593 -257 l 774 -317 q 450 -382 585 -382 q 158 -300 261 -382 q 56 -61 56 -218 q 157 185 56 78 q 442 349 258 292 q 653 393 531 378 q 568 447 610 417 q 505 499 554 458 q 438 550 456 539 q 385 584 421 561 q 321 615 349 607 q 264 622 293 622 q 97 589 193 622 l 97 700 q 271 747 174 747 z "},"خ":{"ha":885,"x_min":56,"x_max":843,"o":"m 271 747 q 375 724 324 747 q 476 663 426 701 q 577 583 526 625 q 699 498 628 542 q 843 426 769 454 l 811 308 q 504 263 650 308 q 267 133 358 217 q 175 -50 175 50 q 249 -204 175 -151 q 457 -257 322 -257 q 774 -206 593 -257 l 774 -317 q 450 -382 585 -382 q 158 -300 261 -382 q 56 -61 56 -218 q 157 185 56 78 q 442 349 258 292 q 653 393 531 378 q 568 447 610 417 q 505 499 554 458 q 438 550 456 539 q 385 584 421 561 q 321 615 349 607 q 264 622 293 622 q 97 589 193 622 l 97 700 q 271 747 174 747 m 485 871 l 589 976 l 696 871 l 592 767 l 485 871 z "},"د":{"ha":649,"x_min":21,"x_max":586,"o":"m 317 674 l 436 674 q 586 225 586 378 q 518 60 586 119 q 326 0 450 0 q 21 47 200 0 l 21 165 q 303 125 226 125 q 474 233 474 125 q 317 674 474 350 z "},"ذ":{"ha":649,"x_min":21,"x_max":586,"o":"m 317 674 l 436 674 q 586 225 586 378 q 518 60 586 119 q 326 0 450 0 q 21 47 200 0 l 21 165 q 303 125 226 125 q 474 233 474 125 q 317 674 474 350 m 256 878 l 360 983 l 467 878 l 363 774 l 256 878 z "},"ر":{"ha":407,"x_min":-21,"x_max":331,"o":"m 167 611 l 285 611 q 331 36 331 274 q 235 -211 331 -124 q -21 -299 140 -299 l -21 -185 q 152 -126 86 -185 q 218 42 218 -68 q 167 611 218 247 z "},"ز":{"ha":407,"x_min":-21,"x_max":331,"o":"m 167 611 l 285 611 q 331 36 331 274 q 235 -211 331 -124 q -21 -299 140 -299 l -21 -185 q 152 -126 86 -185 q 218 42 218 -68 q 167 611 218 247 m 108 825 l 213 931 l 319 825 l 215 721 l 108 825 z "},"س":{"ha":1753,"x_min":56,"x_max":1676,"o":"m 628 611 l 746 611 q 781 357 763 503 q 794 163 792 261 q 864 139 817 151 q 963 125 918 125 q 1055 143 1022 125 q 1108 200 1088 161 q 1144 514 1144 278 l 1254 514 q 1240 278 1254 367 q 1214 168 1229 211 q 1290 139 1260 149 q 1393 125 1338 125 q 1561 267 1561 125 q 1517 674 1561 383 l 1635 674 q 1676 263 1676 388 q 1602 72 1676 143 q 1407 0 1528 0 q 1275 24 1343 0 q 1163 79 1229 40 q 1104 32 1135 49 q 969 0 1044 0 q 857 19 918 0 q 788 47 829 29 q 771 -36 781 3 q 641 -229 735 -160 q 400 -299 547 -299 q 146 -201 236 -299 q 56 79 56 -103 q 118 396 56 211 l 229 396 q 167 100 167 235 q 411 -174 167 -174 q 617 -99 551 -174 q 682 138 682 -24 q 628 611 682 246 z "},"ش":{"ha":1753,"x_min":56,"x_max":1676,"o":"m 628 611 l 746 611 q 781 357 763 503 q 794 163 792 261 q 864 139 817 151 q 963 125 918 125 q 1055 143 1022 125 q 1108 200 1088 161 q 1144 514 1144 278 l 1254 514 q 1240 278 1254 367 q 1214 168 1229 211 q 1290 139 1260 149 q 1393 125 1338 125 q 1561 267 1561 125 q 1517 674 1561 383 l 1635 674 q 1676 263 1676 388 q 1602 72 1676 143 q 1407 0 1528 0 q 1275 24 1343 0 q 1163 79 1229 40 q 1104 32 1135 49 q 969 0 1044 0 q 857 19 918 0 q 788 47 829 29 q 771 -36 781 3 q 641 -229 735 -160 q 400 -299 547 -299 q 146 -201 236 -299 q 56 79 56 -103 q 118 396 56 211 l 229 396 q 167 100 167 235 q 411 -174 167 -174 q 617 -99 551 -174 q 682 138 682 -24 q 628 611 682 246 m 1200 764 l 1307 871 l 1413 764 l 1307 660 l 1200 764 m 974 764 l 1078 871 l 1185 764 l 1079 660 l 974 764 m 1110 932 l 1193 1017 l 1278 932 l 1194 849 l 1110 932 z "},"ص":{"ha":1740,"x_min":56,"x_max":1678,"o":"m 628 611 l 746 611 q 781 357 763 503 l 785 314 q 939 474 863 400 q 1178 663 1072 606 q 1385 719 1283 719 q 1594 635 1510 719 q 1678 424 1678 551 q 1524 117 1678 235 q 1119 0 1371 0 q 833 31 993 0 l 786 39 q 771 -36 782 3 q 641 -229 735 -160 q 400 -299 547 -299 q 146 -201 236 -299 q 56 79 56 -103 q 118 396 56 211 l 229 396 q 167 100 167 235 q 411 -174 167 -174 q 617 -99 551 -174 q 682 138 682 -24 q 628 611 682 246 m 844 143 q 1103 125 978 125 q 1433 203 1307 125 q 1558 404 1558 282 q 1503 540 1558 485 q 1368 594 1449 594 q 1185 537 1279 594 q 963 354 1092 479 q 793 186 936 331 q 794 150 794 174 q 844 143 824 144 z "},"ض":{"ha":1740,"x_min":56,"x_max":1678,"o":"m 628 611 l 746 611 q 781 357 763 503 l 785 314 q 939 474 863 400 q 1178 663 1072 606 q 1385 719 1283 719 q 1594 635 1510 719 q 1678 424 1678 551 q 1524 117 1678 235 q 1119 0 1371 0 q 833 31 993 0 l 786 39 q 771 -36 782 3 q 641 -229 735 -160 q 400 -299 547 -299 q 146 -201 236 -299 q 56 79 56 -103 q 118 396 56 211 l 229 396 q 167 100 167 235 q 411 -174 167 -174 q 617 -99 551 -174 q 682 138 682 -24 q 628 611 682 246 m 844 143 q 1103 125 978 125 q 1433 203 1307 125 q 1558 404 1558 282 q 1503 540 1558 485 q 1368 594 1449 594 q 1185 537 1279 594 q 963 354 1092 479 q 793 186 936 331 q 794 150 794 174 q 844 143 824 144 m 963 878 l 1067 983 l 1174 878 l 1069 774 l 963 878 z "},"ط":{"ha":1204,"x_min":21,"x_max":1142,"o":"m 254 1007 l 372 1007 l 372 611 q 358 447 372 535 q 343 356 354 417 q 408 426 390 408 q 660 658 565 596 q 851 719 756 719 q 1058 635 975 719 q 1142 424 1142 551 q 988 117 1142 235 q 583 0 835 0 q 21 60 260 0 l 21 178 q 168 151 113 158 q 254 253 194 185 l 254 1007 m 567 125 q 897 203 771 125 q 1022 404 1022 282 q 968 540 1022 485 q 835 594 914 594 q 675 533 758 594 q 453 319 592 472 l 290 138 q 567 125 426 125 z "},"ظ":{"ha":1204,"x_min":21,"x_max":1142,"o":"m 254 1007 l 372 1007 l 372 611 q 358 447 372 535 q 343 356 354 417 q 408 426 390 408 q 660 658 565 596 q 851 719 756 719 q 1058 635 975 719 q 1142 424 1142 551 q 988 117 1142 235 q 583 0 835 0 q 21 60 260 0 l 21 178 q 168 151 113 158 q 254 253 194 185 l 254 1007 m 567 125 q 897 203 771 125 q 1022 404 1022 282 q 968 540 1022 485 q 835 594 914 594 q 675 533 758 594 q 453 319 592 472 l 290 138 q 567 125 426 125 m 500 878 l 604 983 l 711 878 l 607 774 l 500 878 z "},"ع":{"ha":832,"x_min":76,"x_max":797,"o":"m 446 747 q 685 692 544 747 l 685 579 q 460 624 551 624 q 310 576 368 624 q 253 450 253 529 q 290 349 253 397 q 404 278 328 301 q 529 265 456 264 q 743 297 629 285 l 717 171 q 317 76 438 142 q 196 -97 196 10 q 476 -257 196 -257 q 797 -206 621 -257 l 797 -317 q 469 -382 601 -382 q 178 -310 281 -382 q 76 -107 76 -237 q 221 150 76 51 q 325 204 264 179 q 269 232 300 213 q 170 332 207 272 q 133 457 133 392 q 224 663 133 579 q 446 747 314 747 z "},"غ":{"ha":832,"x_min":76,"x_max":797,"o":"m 446 747 q 685 692 544 747 l 685 579 q 460 624 551 624 q 310 576 368 624 q 253 450 253 529 q 290 349 253 397 q 404 278 328 301 q 529 265 456 264 q 743 297 629 285 l 717 171 q 317 76 438 142 q 196 -97 196 10 q 476 -257 196 -257 q 797 -206 621 -257 l 797 -317 q 469 -382 601 -382 q 178 -310 281 -382 q 76 -107 76 -237 q 221 150 76 51 q 325 204 264 179 q 269 232 300 213 q 170 332 207 272 q 133 457 133 392 q 224 663 133 579 q 446 747 314 747 m 360 942 l 464 1047 l 571 942 l 467 838 l 360 942 z "},"ـ":{"ha":269,"x_min":-14,"x_max":283,"o":"m 0 125 l 269 125 q 283 111 283 125 l 283 15 q 269 0 283 0 l 0 0 q -14 15 -14 0 l -14 111 q 0 125 -14 125 z "},"ف":{"ha":1313,"x_min":57,"x_max":1250,"o":"m 86 539 l 197 539 q 175 347 175 418 q 235 178 175 231 q 435 125 294 125 l 778 125 q 792 111 792 125 l 792 15 q 778 0 792 0 l 408 0 q 149 82 240 0 q 57 317 57 164 q 86 539 57 417 m 953 674 q 1165 583 1079 674 q 1250 360 1250 493 q 1151 97 1250 193 q 881 0 1051 0 l 589 0 q 575 15 575 1 l 575 111 q 589 125 575 125 l 743 125 q 706 189 731 151 q 643 383 643 288 q 733 589 643 504 q 953 674 822 674 m 860 125 l 893 125 q 1067 182 1003 125 q 1131 344 1131 239 q 1078 491 1131 435 q 942 547 1026 547 q 813 496 864 547 q 761 368 761 444 q 811 219 761 306 q 846 154 833 182 l 860 125 m 832 878 l 936 983 l 1043 878 l 939 774 l 832 878 z "},"ق":{"ha":1047,"x_min":56,"x_max":971,"o":"m 686 660 q 878 581 806 660 q 960 361 951 501 q 971 56 971 154 q 847 -205 971 -111 q 490 -299 722 -299 q 169 -205 283 -299 q 56 79 56 -111 q 118 396 56 211 l 229 396 q 167 100 167 235 q 254 -108 167 -40 q 529 -175 342 -175 q 771 -112 682 -175 q 860 46 860 -49 l 860 49 q 778 17 817 26 q 668 0 719 0 q 460 85 539 0 q 381 313 381 171 q 465 563 381 467 q 686 660 550 660 m 847 278 l 843 347 q 792 486 836 438 q 675 535 747 535 q 548 473 597 535 q 499 318 499 411 q 686 125 499 125 q 796 136 740 125 q 856 154 822 142 l 853 200 q 847 278 850 253 m 469 876 l 574 982 l 679 879 l 783 982 l 889 876 l 783 772 l 679 874 l 575 772 l 469 876 z "},"ك":{"ha":1168,"x_min":57,"x_max":1050,"o":"m 197 539 l 86 539 q 57 317 57 417 q 149 82 57 164 q 408 0 240 0 l 778 0 q 792 15 792 0 l 792 111 q 778 125 792 125 l 435 125 q 235 178 294 125 q 175 347 175 231 q 197 539 175 418 m 932 1007 l 1050 1007 l 1050 265 q 978 70 1050 140 q 767 0 907 0 q 753 15 753 0 l 753 111 q 767 125 753 125 q 894 160 856 125 q 932 269 932 194 l 932 1007 m 749 599 l 610 599 q 558 611 576 601 q 536 651 536 625 q 555 689 536 675 q 603 703 574 703 q 697 685 639 703 l 697 778 q 596 804 643 804 q 490 766 529 804 q 450 671 450 728 q 475 600 450 631 l 481 596 l 472 593 q 397 571 451 589 l 397 474 q 544 497 472 497 l 718 497 l 749 599 z "},"ل":{"ha":915,"x_min":56,"x_max":797,"o":"m 679 1007 l 797 1007 l 797 142 q 699 -178 797 -58 q 407 -299 601 -299 q 147 -201 239 -299 q 56 79 56 -103 q 118 396 56 211 l 229 396 q 167 100 167 235 q 229 -101 167 -29 q 418 -174 292 -174 q 617 -98 556 -174 q 679 142 679 -22 l 679 1007 z "},"م":{"ha":743,"x_min":49,"x_max":722,"o":"m 338 674 q 518 587 433 674 q 722 289 603 500 l 658 151 q 513 151 572 153 q 392 143 453 150 q 294 123 332 136 q 226 89 257 110 q 181 35 194 68 q 167 -42 167 3 q 213 -382 167 -101 l 94 -382 q 49 -25 49 -90 q 508 272 49 264 q 608 271 575 272 q 533 389 565 346 q 322 549 419 549 q 122 454 238 549 l 122 565 q 338 674 228 674 z "},"ن":{"ha":871,"x_min":56,"x_max":794,"o":"m 628 611 l 746 611 q 794 138 794 288 q 695 -179 794 -60 q 400 -299 596 -299 q 146 -201 236 -299 q 56 79 56 -103 q 118 396 56 211 l 229 396 q 167 100 167 235 q 411 -174 167 -174 q 617 -99 551 -174 q 682 138 682 -24 q 628 611 682 246 m 318 654 l 422 760 l 529 654 l 425 550 l 318 654 z "},"ه":{"ha":701,"x_min":56,"x_max":653,"o":"m 374 747 l 506 747 q 626 415 599 499 q 653 269 653 331 q 567 64 653 146 q 347 -18 482 -18 q 137 57 218 -18 q 56 250 56 132 q 146 489 56 383 q 401 672 232 588 l 374 747 m 246 446 q 171 274 171 365 q 216 151 171 194 q 347 107 261 107 q 484 153 433 107 q 535 276 535 199 q 454 538 535 333 q 440 575 442 572 q 246 446 314 518 z "},"و":{"ha":729,"x_min":63,"x_max":653,"o":"m 368 660 q 560 581 488 660 q 642 361 633 501 q 653 51 653 157 q 534 -206 656 -114 q 167 -299 413 -299 l 167 -185 q 447 -124 351 -185 q 542 46 542 -64 l 542 49 q 460 17 499 26 q 350 0 401 0 q 142 85 221 0 q 63 313 63 171 q 147 563 63 467 q 368 660 232 660 m 529 278 l 525 347 q 474 486 518 438 q 357 535 429 535 q 230 473 279 535 q 181 318 181 411 q 368 125 181 125 q 478 136 422 125 q 538 154 504 142 l 535 200 q 529 278 532 253 z "},"ى":{"ha":968,"x_min":56,"x_max":901,"o":"m 733 674 q 901 639 817 674 l 901 514 q 715 549 806 549 q 582 508 635 549 q 529 401 529 467 q 556 321 529 357 q 646 244 583 285 l 753 176 q 901 -32 901 83 q 792 -225 901 -151 q 483 -299 682 -299 q 168 -205 281 -299 q 56 79 56 -111 q 118 396 56 211 l 229 396 q 167 100 167 235 q 254 -108 167 -40 q 529 -175 342 -175 q 719 -137 650 -175 q 789 -42 789 -99 q 767 10 789 -14 q 676 79 746 35 l 576 142 q 456 253 493 196 q 418 388 418 310 q 508 592 418 511 q 733 674 597 674 z "},"ي":{"ha":968,"x_min":56,"x_max":901,"o":"m 733 674 q 901 639 817 674 l 901 514 q 715 549 806 549 q 582 508 635 549 q 529 401 529 467 q 556 321 529 357 q 646 244 583 285 l 753 176 q 901 -32 901 83 q 792 -225 901 -151 q 483 -299 682 -299 q 168 -205 281 -299 q 56 79 56 -111 q 118 396 56 211 l 229 396 q 167 100 167 235 q 254 -108 167 -40 q 529 -175 342 -175 q 719 -137 650 -175 q 789 -42 789 -99 q 767 10 789 -14 q 676 79 746 35 l 576 142 q 456 253 493 196 q 418 388 418 310 q 508 592 418 511 q 733 674 597 674 m 336 -483 l 440 -379 l 546 -481 l 650 -379 l 756 -483 l 650 -589 l 546 -486 l 442 -589 l 336 -483 z "},"ً":{"ha":0,"x_min":-157,"x_max":182,"o":"m -157 976 l 144 1036 l 158 968 l -143 908 l -157 976 m -133 854 l 168 914 l 182 846 l -119 786 l -133 854 z "},"ٌ":{"ha":0,"x_min":-235,"x_max":239,"o":"m 106 1107 q 201 1067 164 1107 q 239 968 239 1028 q 204 869 239 908 q 108 819 169 831 l -168 768 l -218 835 q -168 869 -181 851 q -156 911 -156 886 q -235 967 -162 961 l -219 1035 q -121 1000 -158 1031 q -83 919 -83 969 q -111 844 -83 885 l -10 867 l -24 889 q -40 957 -40 919 q 1 1064 -40 1021 q 106 1107 43 1107 m 56 881 l 92 889 q 169 967 169 906 q 150 1017 169 997 q 99 1036 131 1036 q 47 1014 67 1036 q 26 956 26 992 q 39 906 26 928 l 56 881 z "},"ٍ":{"ha":0,"x_min":-157,"x_max":182,"o":"m -157 -122 l 144 -62 l 158 -131 l -143 -190 l -157 -122 m -133 -244 l 168 -185 l 182 -253 l -119 -312 l -133 -244 z "},"َ":{"ha":0,"x_min":-149,"x_max":167,"o":"m -149 899 l 153 957 l 167 889 l -135 831 l -149 899 z "},"ُ":{"ha":0,"x_min":-176,"x_max":217,"o":"m 83 1106 q 179 1066 142 1106 q 217 968 217 1026 q 182 869 217 908 q 86 819 147 831 l -164 775 l -176 840 l -33 867 l -46 888 q -62 956 -62 919 q -22 1064 -62 1022 q 83 1106 19 1106 m 33 881 l 69 888 q 147 967 147 904 q 128 1015 147 996 q 76 1035 108 1035 q 24 1013 44 1035 q 4 954 4 990 q 17 906 4 928 q 33 881 22 893 z "},"ِ":{"ha":0,"x_min":-149,"x_max":167,"o":"m -149 -169 l 153 -111 l 167 -179 l -135 -237 l -149 -169 z "},"ّ":{"ha":0,"x_min":-217,"x_max":218,"o":"m 125 997 l 192 1022 q 218 900 218 946 q 189 807 218 840 q 107 774 160 774 q 46 790 72 774 q 21 813 31 799 q -7 767 13 786 q -83 738 -36 738 q -204 856 -187 738 l -217 940 l -149 950 l -136 872 q -81 807 -125 807 q -31 867 -31 807 q -33 893 -31 874 l -46 967 l 24 979 l 36 910 q 101 844 49 840 q 147 906 147 851 q 125 997 147 943 z "},"ْ":{"ha":0,"x_min":-133,"x_max":143,"o":"m 10 1044 q 108 1005 72 1044 q 143 894 143 965 q 103 789 143 828 q -4 750 63 750 q -133 894 -133 750 q -94 1004 -133 964 q 10 1044 -54 1044 m 4 978 q -43 958 -22 978 q -64 897 -64 938 q -46 833 -64 850 q 4 815 -28 815 q 74 893 74 815 q 54 957 74 936 q 4 978 35 978 z "},"ٓ":{"ha":0,"x_min":-204,"x_max":211,"o":"m -76 1007 q 12 981 -46 1007 q 100 956 69 956 q 211 992 163 956 l 210 900 q 103 865 164 865 q 19 891 71 865 q -60 917 -33 917 q -128 863 -119 917 l -204 863 q -170 966 -204 925 q -76 1007 -136 1007 z "},"ٔ":{"ha":0,"x_min":-157,"x_max":197,"o":"m 46 974 l 197 974 l 172 890 l -53 890 q -157 874 -104 890 l -157 954 q -101 969 -118 968 l -60 974 l -71 988 q -92 1053 -92 1019 q -54 1142 -92 1107 q 39 1178 -17 1178 q 144 1150 83 1178 l 144 1069 q 57 1090 90 1090 q 7 1074 26 1090 q -12 1031 -12 1058 q 6 990 -12 1007 q 46 974 22 976 z "},"ٕ":{"ha":0,"x_min":-183,"x_max":171,"o":"m 18 -250 l 171 -250 l 146 -333 l -79 -333 q -183 -350 -131 -333 l -183 -269 q -128 -253 -147 -257 q -86 -250 -106 -250 l -99 -235 q -119 -171 -119 -206 q -82 -82 -119 -117 q 11 -47 -44 -47 q 117 -74 60 -47 l 117 -154 q 29 -133 58 -133 q -21 -150 -1 -133 q -40 -193 -40 -167 q -21 -233 -40 -217 q 18 -250 -4 -249 z "},"ٖ":{"ha":0,"x_min":-53,"x_max":47,"o":"m 47 -197 l 47 -325 l -36 -297 l -36 -197 q -53 -72 -36 -128 l 28 -72 q 47 -197 47 -126 z "},"٘":{"ha":0,"x_min":-165,"x_max":161,"o":"m 76 983 l 161 985 l 161 839 q 117 711 161 757 q -4 665 74 665 q -122 704 -79 665 q -165 811 -165 743 q -146 932 -165 871 l -62 932 q -82 835 -82 867 q -62 777 -83 799 q -4 756 -40 756 q 54 778 32 756 q 76 836 76 800 l 76 983 z "},"٠":{"ha":353,"x_min":69,"x_max":283,"o":"m 69 417 l 175 524 l 283 415 l 176 311 l 69 417 z "},"١":{"ha":376,"x_min":104,"x_max":272,"o":"m 104 924 l 224 944 l 272 0 l 154 0 l 104 924 z "},"٢":{"ha":642,"x_min":104,"x_max":676,"o":"m 218 944 l 676 944 l 642 819 l 224 819 l 267 0 l 149 0 l 104 840 l 218 944 z "},"٣":{"ha":836,"x_min":104,"x_max":781,"o":"m 104 924 l 224 944 l 238 676 q 313 658 272 658 q 400 793 410 658 l 390 924 l 501 944 l 511 790 q 503 679 515 728 q 582 658 542 658 q 653 689 632 658 q 668 793 674 719 l 658 924 l 769 944 l 781 790 q 739 600 788 667 q 592 533 690 533 q 451 582 519 533 q 329 533 403 533 q 244 551 279 533 l 243 551 l 272 0 l 154 0 l 104 924 z "},"٤":{"ha":690,"x_min":56,"x_max":642,"o":"m 371 958 q 582 908 456 958 l 582 796 q 389 835 475 835 q 245 792 297 835 q 193 678 193 750 q 234 580 193 618 q 339 533 275 542 q 407 535 375 531 l 551 569 l 578 454 l 338 392 q 210 326 254 369 q 167 225 167 283 q 369 107 168 107 q 642 142 496 107 l 621 22 q 363 -18 475 -18 q 135 42 214 -18 q 56 210 56 101 q 151 418 56 338 q 226 469 181 446 q 157 511 189 483 q 78 692 78 576 q 162 882 78 806 q 371 958 246 958 z "},"٥":{"ha":817,"x_min":63,"x_max":754,"o":"m 408 944 q 650 783 546 944 q 754 358 754 621 q 665 81 754 179 q 410 -18 575 -18 q 158 84 253 -18 q 63 357 63 186 q 105 647 63 513 q 228 863 147 781 q 408 944 308 944 m 401 819 q 290 755 342 819 q 210 588 239 690 q 181 375 181 486 q 237 172 181 238 q 410 107 293 107 q 578 174 519 107 q 636 372 636 240 q 570 687 636 554 q 401 819 504 819 z "},"٦":{"ha":617,"x_min":-35,"x_max":506,"o":"m -4 944 l 393 944 l 506 833 l 463 0 l 344 0 l 386 819 l -35 819 l -4 944 z "},"٧":{"ha":722,"x_min":-21,"x_max":743,"o":"m 606 944 l 743 944 l 438 -1 l 300 -18 l -21 944 l 117 944 l 369 136 l 606 944 z "},"٨":{"ha":722,"x_min":-21,"x_max":743,"o":"m 117 0 l -21 0 l 285 946 l 422 963 l 743 0 l 606 0 l 353 808 l 117 0 z "},"٩":{"ha":749,"x_min":35,"x_max":644,"o":"m 369 958 l 532 958 l 644 846 l 601 0 l 483 0 l 501 361 q 433 339 469 347 q 338 326 381 326 q 119 410 203 326 q 35 629 35 493 q 132 864 35 769 q 369 958 229 958 m 283 817 q 190 742 225 793 q 154 626 154 692 q 208 497 154 543 q 357 451 261 451 q 450 461 406 451 q 507 478 481 468 l 525 833 l 367 833 q 283 817 322 833 z "},"٪":{"ha":664,"x_min":72,"x_max":601,"o":"m 72 833 l 176 939 l 283 833 l 179 729 l 72 833 m 389 151 l 493 256 l 600 151 l 496 46 l 389 151 m 478 1007 l 601 1007 l 204 0 l 81 0 l 478 1007 z "},"٫":{"ha":318,"x_min":72,"x_max":238,"o":"m 154 -204 l 72 -204 q 105 -116 76 -193 q 149 1 133 -39 l 82 1 l 82 161 l 238 161 l 238 -11 l 154 -204 z "},"٬":{"ha":310,"x_min":72,"x_max":238,"o":"m 154 -204 l 72 -204 q 105 -116 76 -193 q 149 1 133 -39 l 82 1 l 82 161 l 238 161 l 238 -11 l 154 -204 z "},"٭":{"ha":506,"x_min":24,"x_max":488,"o":"m 208 603 l 300 603 l 300 444 l 457 499 l 488 413 l 331 360 l 426 228 l 354 174 l 254 308 l 161 175 l 83 228 l 179 358 l 24 413 l 54 500 l 208 444 l 208 603 z "},"ٮ":{"ha":1140,"x_min":57,"x_max":1064,"o":"m 86 539 l 197 539 q 175 347 175 418 q 235 178 175 231 q 435 125 294 125 l 778 125 q 792 111 792 125 l 792 15 q 778 0 792 0 l 408 0 q 149 82 240 0 q 57 317 57 164 q 86 539 57 417 m 904 674 l 1022 674 q 1064 265 1064 382 q 992 70 1064 140 q 781 0 921 0 q 767 15 767 0 l 767 111 q 781 125 767 125 q 910 160 871 125 q 950 269 950 194 q 904 674 950 363 z "},"ٯ":{"ha":1047,"x_min":56,"x_max":971,"o":"m 686 660 q 878 581 806 660 q 960 361 951 501 q 971 56 971 154 q 847 -205 971 -111 q 490 -299 722 -299 q 169 -205 283 -299 q 56 79 56 -111 q 118 396 56 211 l 229 396 q 167 100 167 235 q 254 -108 167 -40 q 529 -175 342 -175 q 771 -112 682 -175 q 860 46 860 -49 l 860 49 q 778 17 817 26 q 668 0 719 0 q 460 85 539 0 q 381 313 381 171 q 465 563 381 467 q 686 660 550 660 m 847 278 l 843 347 q 792 486 836 438 q 675 535 747 535 q 548 473 597 535 q 499 318 499 411 q 686 125 499 125 q 796 136 740 125 q 856 154 822 142 l 853 200 q 847 278 850 253 z "},"ٰ":{"ha":0,"x_min":-49,"x_max":51,"o":"m -49 958 l -49 1086 l 35 1058 l 35 958 q 51 833 35 889 l -29 833 q -49 958 -49 888 z "},"ٱ":{"ha":354,"x_min":-37,"x_max":375,"o":"m 125 833 l 243 833 l 243 0 l 125 0 l 125 833 m 249 1129 q 339 1094 303 1129 q 375 1007 375 1060 q 320 904 375 940 q 163 868 265 868 q -37 910 68 868 l -12 985 q 40 967 -4 982 q 147 1086 103 1049 q 249 1129 196 1129 m 160 951 q 281 1007 281 951 q 267 1036 281 1025 q 233 1047 253 1047 q 126 979 190 1047 l 104 954 q 160 951 146 951 z "},"ٹ":{"ha":1140,"x_min":57,"x_max":1064,"o":"m 86 539 l 197 539 q 175 347 175 418 q 235 178 175 231 q 435 125 294 125 l 778 125 q 792 111 792 125 l 792 15 q 778 0 792 0 l 408 0 q 149 82 240 0 q 57 317 57 164 q 86 539 57 417 m 904 674 l 1022 674 q 1064 265 1064 382 q 992 70 1064 140 q 781 0 921 0 q 767 15 767 0 l 767 111 q 781 125 767 125 q 910 160 871 125 q 950 269 950 194 q 904 674 950 363 m 424 933 l 500 933 l 500 800 l 497 782 q 669 889 596 889 q 767 853 728 889 q 806 763 806 817 q 739 653 806 693 q 557 614 672 614 l 382 614 l 336 694 l 424 694 l 424 933 m 492 694 l 554 694 q 713 763 713 694 q 696 797 713 783 q 651 810 679 810 q 518 721 603 810 l 492 694 z "},"پ":{"ha":1140,"x_min":57,"x_max":1064,"o":"m 86 539 l 197 539 q 175 347 175 418 q 235 178 175 231 q 435 125 294 125 l 778 125 q 792 111 792 125 l 792 15 q 778 0 792 0 l 408 0 q 149 82 240 0 q 57 317 57 164 q 86 539 57 417 m 904 674 l 1022 674 q 1064 265 1064 382 q 992 70 1064 140 q 781 0 921 0 q 767 15 767 0 l 767 111 q 781 125 767 125 q 910 160 871 125 q 950 269 950 194 q 904 674 950 363 m 607 -210 l 714 -106 l 819 -210 l 714 -317 l 607 -210 m 518 -381 l 601 -296 l 686 -381 l 603 -464 l 518 -381 m 381 -210 l 485 -106 l 592 -210 l 486 -317 l 381 -210 z "},"چ":{"ha":904,"x_min":63,"x_max":850,"o":"m 278 747 q 382 724 331 747 q 483 663 433 701 q 584 583 533 625 q 706 498 635 542 q 850 426 776 454 l 818 308 q 363 200 546 308 q 181 -61 181 92 q 285 -262 181 -164 l 182 -308 q 63 -61 63 -203 q 163 183 63 76 q 444 349 264 290 q 660 393 536 378 q 578 446 617 417 q 513 497 563 457 q 446 549 464 536 q 392 584 428 561 q 328 615 356 607 q 271 622 300 622 q 104 589 200 622 l 104 700 q 278 747 181 747 m 564 -99 l 671 6 l 776 -99 l 671 -206 l 564 -99 m 338 -99 l 442 6 l 549 -99 l 443 -206 l 338 -99 m 475 -269 l 558 -185 l 643 -269 l 560 -353 l 475 -269 z "},"ڈ":{"ha":649,"x_min":21,"x_max":596,"o":"m 317 674 l 436 674 q 586 225 586 378 q 518 60 586 119 q 326 0 450 0 q 21 47 200 0 l 21 165 q 303 125 226 125 q 474 233 474 125 q 317 674 474 350 m 214 1068 l 290 1068 l 290 935 l 288 917 q 460 1024 386 1024 q 557 988 518 1024 q 596 897 596 951 q 529 788 596 828 q 347 749 463 749 l 172 749 l 126 829 l 214 829 l 214 1068 m 282 829 l 344 829 q 503 897 503 829 q 486 931 503 918 q 442 944 469 944 q 308 856 393 944 l 282 829 z "},"ڑ":{"ha":407,"x_min":-32,"x_max":438,"o":"m 167 611 l 285 611 q 331 36 331 274 q 235 -211 331 -124 q -21 -299 140 -299 l -21 -185 q 152 -126 86 -185 q 218 42 218 -68 q 167 611 218 247 m 56 1007 l 132 1007 l 132 874 l 129 856 q 301 963 228 963 q 399 926 360 963 q 438 836 438 890 q 371 727 438 767 q 189 688 304 688 l 14 688 l -32 768 l 56 768 l 56 1007 m 124 768 l 186 768 q 344 836 344 768 q 328 870 344 857 q 283 883 311 883 q 150 794 235 883 l 124 768 z "},"ژ":{"ha":407,"x_min":-21,"x_max":432,"o":"m 167 611 l 285 611 q 331 36 331 274 q 235 -211 331 -124 q -21 -299 140 -299 l -21 -185 q 152 -126 86 -185 q 218 42 218 -68 q 167 611 218 247 m 219 825 l 326 932 l 432 825 l 326 721 l 219 825 m -7 825 l 97 932 l 204 825 l 99 721 l -7 825 m 129 993 l 213 1078 l 297 993 l 214 910 l 129 993 z "},"ڡ":{"ha":1313,"x_min":57,"x_max":1250,"o":"m 86 539 l 197 539 q 175 347 175 418 q 235 178 175 231 q 435 125 294 125 l 778 125 q 792 111 792 125 l 792 15 q 778 0 792 0 l 408 0 q 149 82 240 0 q 57 317 57 164 q 86 539 57 417 m 953 674 q 1165 583 1079 674 q 1250 360 1250 493 q 1151 97 1250 193 q 881 0 1051 0 l 589 0 q 575 15 575 1 l 575 111 q 589 125 575 125 l 743 125 q 706 189 731 151 q 643 383 643 288 q 733 589 643 504 q 953 674 822 674 m 860 125 l 893 125 q 1067 182 1003 125 q 1131 344 1131 239 q 1078 491 1131 435 q 942 547 1026 547 q 813 496 864 547 q 761 368 761 444 q 811 219 761 306 q 846 154 833 182 l 860 125 z "},"ڤ":{"ha":1313,"x_min":57,"x_max":1250,"o":"m 86 539 l 197 539 q 175 347 175 418 q 235 178 175 231 q 435 125 294 125 l 778 125 q 792 111 792 125 l 792 15 q 778 0 792 0 l 408 0 q 149 82 240 0 q 57 317 57 164 q 86 539 57 417 m 953 674 q 1165 583 1079 674 q 1250 360 1250 493 q 1151 97 1250 193 q 881 0 1051 0 l 589 0 q 575 15 575 1 l 575 111 q 589 125 575 125 l 743 125 q 706 189 731 151 q 643 383 643 288 q 733 589 643 504 q 953 674 822 674 m 860 125 l 893 125 q 1067 182 1003 125 q 1131 344 1131 239 q 1078 491 1131 435 q 942 547 1026 547 q 813 496 864 547 q 761 368 761 444 q 811 219 761 306 q 846 154 833 182 l 860 125 m 954 882 l 1061 989 l 1167 882 l 1061 778 l 954 882 m 728 882 l 832 989 l 939 882 l 833 778 l 728 882 m 864 1050 l 947 1135 l 1032 1050 l 949 967 l 864 1050 z "},"ک":{"ha":1254,"x_min":57,"x_max":1206,"o":"m 99 611 l 210 611 q 175 347 175 439 q 235 178 175 231 q 435 125 294 125 l 767 125 q 781 111 781 125 l 781 15 q 767 0 781 0 l 408 0 q 149 82 240 0 q 57 318 57 164 q 99 611 57 428 m 1017 1104 l 1194 1104 l 1194 1099 l 681 693 l 922 588 q 1206 278 1206 464 q 1107 76 1206 153 q 840 0 1008 0 l 447 0 q 433 15 433 0 l 433 111 q 447 125 433 125 l 851 125 q 1020 167 953 125 q 1088 272 1088 208 q 1037 376 1088 329 q 864 478 986 424 l 531 625 l 531 719 l 1017 1104 z "},"ڪ":{"ha":1254,"x_min":31,"x_max":1190,"o":"m 521 1007 l 678 1007 l 307 597 l 851 597 q 1098 516 1006 597 q 1190 294 1190 435 q 1105 82 1190 164 q 883 0 1019 0 l 329 0 q 174 23 239 0 q 31 103 108 46 l 92 204 q 210 142 157 160 q 329 125 264 125 l 867 125 q 1017 169 963 125 q 1072 292 1072 213 q 1017 426 1072 379 q 858 472 961 472 l 242 472 l 172 597 l 521 1007 z "},"گ":{"ha":1254,"x_min":57,"x_max":1206,"o":"m 99 611 l 210 611 q 175 347 175 439 q 235 178 175 231 q 435 125 294 125 l 767 125 q 781 111 781 125 l 781 15 q 767 0 781 0 l 408 0 q 149 82 240 0 q 57 318 57 164 q 99 611 57 428 m 1017 1104 l 1194 1104 l 1194 1099 l 681 693 l 922 588 q 1206 278 1206 464 q 1107 76 1206 153 q 840 0 1008 0 l 447 0 q 433 15 433 0 l 433 111 q 447 125 433 125 l 851 125 q 1020 167 953 125 q 1088 272 1088 208 q 1037 376 1088 329 q 864 478 986 424 l 531 625 l 531 719 l 1017 1104 m 789 1104 l 789 1099 l 426 808 l 375 869 l 664 1104 l 789 1104 z "},"ں":{"ha":871,"x_min":56,"x_max":794,"o":"m 628 611 l 746 611 q 794 138 794 288 q 695 -179 794 -60 q 400 -299 596 -299 q 146 -201 236 -299 q 56 79 56 -103 q 118 396 56 211 l 229 396 q 167 100 167 235 q 411 -174 167 -174 q 617 -99 551 -174 q 682 138 682 -24 q 628 611 682 246 z "},"ھ":{"ha":1143,"x_min":21,"x_max":1081,"o":"m 431 806 l 431 931 q 908 790 736 931 q 1081 419 1081 650 q 1006 92 1081 290 l 889 -18 q 661 6 775 -18 q 496 51 585 24 q 378 18 435 31 q 208 0 296 0 q 21 32 124 0 l 21 150 q 201 125 121 125 q 279 131 246 125 l 292 133 q 233 190 260 157 q 175 367 175 268 q 261 585 175 497 q 474 674 347 674 q 687 587 603 674 q 771 368 771 500 q 710 196 771 274 q 644 129 683 163 q 651 128 650 129 q 890 107 794 107 q 963 408 963 263 q 931 556 963 486 q 836 682 899 625 q 669 772 774 739 q 431 806 564 806 m 604 225 q 653 358 653 285 q 602 495 653 442 q 469 549 551 549 q 342 497 392 549 q 293 358 293 444 q 338 226 293 286 q 463 142 383 168 q 604 225 556 169 z "},"ہ":{"ha":701,"x_min":56,"x_max":653,"o":"m 374 747 l 506 747 q 626 415 599 499 q 653 269 653 331 q 567 64 653 146 q 347 -18 482 -18 q 137 57 218 -18 q 56 250 56 132 q 146 489 56 383 q 401 672 232 588 l 374 747 m 246 446 q 171 274 171 365 q 216 151 171 194 q 347 107 261 107 q 484 153 433 107 q 535 276 535 199 q 454 538 535 333 q 440 575 442 572 q 246 446 314 518 z "},"ۂ":{"ha":701,"x_min":56,"x_max":653,"o":"m 374 747 l 506 747 q 626 415 599 499 q 653 269 653 331 q 567 64 653 146 q 347 -18 482 -18 q 137 57 218 -18 q 56 250 56 132 q 146 489 56 383 q 401 672 232 588 l 374 747 m 246 446 q 171 274 171 365 q 216 151 171 194 q 347 107 261 107 q 484 153 433 107 q 535 276 535 199 q 454 538 535 333 q 440 575 442 572 q 246 446 314 518 m 460 918 l 611 918 l 586 835 l 361 835 q 257 818 310 835 l 257 899 q 313 914 296 913 l 354 918 l 343 932 q 322 997 322 964 q 360 1087 322 1051 q 453 1122 397 1122 q 558 1094 497 1122 l 558 1014 q 471 1035 504 1035 q 421 1019 440 1035 q 401 975 401 1003 q 419 935 401 951 q 460 918 436 921 z "},"ۃ":{"ha":701,"x_min":56,"x_max":653,"o":"m 374 747 l 506 747 q 626 415 599 499 q 653 269 653 331 q 567 64 653 146 q 347 -18 482 -18 q 137 57 218 -18 q 56 250 56 132 q 146 489 56 383 q 401 672 232 588 l 374 747 m 246 446 q 171 274 171 365 q 216 151 171 194 q 347 107 261 107 q 484 153 433 107 q 535 276 535 199 q 454 538 535 333 q 440 575 442 572 q 246 446 314 518 m 210 953 l 314 1058 l 419 956 l 524 1058 l 629 953 l 524 849 l 419 950 l 315 849 l 210 953 z "},"ی":{"ha":968,"x_min":56,"x_max":901,"o":"m 733 674 q 901 639 817 674 l 901 514 q 715 549 806 549 q 582 508 635 549 q 529 401 529 467 q 556 321 529 357 q 646 244 583 285 l 753 176 q 901 -32 901 83 q 792 -225 901 -151 q 483 -299 682 -299 q 168 -205 281 -299 q 56 79 56 -111 q 118 396 56 211 l 229 396 q 167 100 167 235 q 254 -108 167 -40 q 529 -175 342 -175 q 719 -137 650 -175 q 789 -42 789 -99 q 767 10 789 -14 q 676 79 746 35 l 576 142 q 456 253 493 196 q 418 388 418 310 q 508 592 418 511 q 733 674 597 674 z "},"ے":{"ha":1150,"x_min":69,"x_max":1129,"o":"m 313 674 l 431 674 l 431 611 q 406 523 431 560 q 306 407 382 486 l 260 357 q 203 289 218 314 q 189 236 189 264 q 241 151 189 178 q 408 125 293 125 l 1129 125 l 1078 0 l 426 0 q 69 215 69 0 q 95 322 69 272 q 182 435 121 371 l 228 482 q 296 561 279 536 q 313 614 313 586 l 313 674 z "},"ۓ":{"ha":1150,"x_min":69,"x_max":1129,"o":"m 313 674 l 431 674 l 431 611 q 406 523 431 560 q 306 407 382 486 l 260 357 q 203 289 218 314 q 189 236 189 264 q 241 151 189 178 q 408 125 293 125 l 1129 125 l 1078 0 l 426 0 q 69 215 69 0 q 95 322 69 272 q 182 435 121 371 l 228 482 q 296 561 279 536 q 313 614 313 586 l 313 674 m 403 885 l 542 885 l 511 783 l 338 783 q 190 760 265 783 l 190 857 q 265 879 244 875 l 274 882 l 268 886 q 243 957 243 917 q 283 1052 243 1014 q 389 1090 322 1090 q 490 1064 436 1090 l 490 971 q 396 989 432 989 q 348 975 367 989 q 329 938 329 961 q 351 897 329 911 q 403 885 369 888 z "},"۔":{"ha":318,"x_min":81,"x_max":236,"o":"m 81 160 l 236 160 l 236 0 l 81 0 l 81 160 z "},"۰":{"ha":353,"x_min":69,"x_max":283,"o":"m 69 417 l 175 524 l 283 415 l 176 311 l 69 417 z "},"۱":{"ha":376,"x_min":104,"x_max":272,"o":"m 104 924 l 224 944 l 272 0 l 154 0 l 104 924 z "},"۲":{"ha":642,"x_min":104,"x_max":676,"o":"m 218 944 l 676 944 l 642 819 l 224 819 l 267 0 l 149 0 l 104 840 l 218 944 z "},"۳":{"ha":836,"x_min":104,"x_max":781,"o":"m 104 924 l 224 944 l 238 676 q 313 658 272 658 q 400 793 410 658 l 390 924 l 501 944 l 511 790 q 503 679 515 728 q 582 658 542 658 q 653 689 632 658 q 668 793 674 719 l 658 924 l 769 944 l 781 790 q 739 600 788 667 q 592 533 690 533 q 451 582 519 533 q 329 533 403 533 q 244 551 279 533 l 243 551 l 272 0 l 154 0 l 104 924 z "},"۴":{"ha":685,"x_min":104,"x_max":706,"o":"m 104 924 l 224 944 l 239 653 l 413 653 q 353 785 353 707 q 406 908 353 858 q 535 958 458 958 q 664 925 590 958 l 664 811 q 554 833 601 833 q 465 758 465 833 q 508 682 465 711 q 608 653 551 653 l 706 653 l 672 532 l 244 532 l 272 0 l 154 0 l 104 924 z "},"۵":{"ha":836,"x_min":63,"x_max":774,"o":"m 219 901 l 297 992 q 660 603 547 779 q 774 257 774 426 q 719 58 774 133 q 569 -18 665 -18 q 465 13 513 -18 q 413 75 431 36 q 368 14 397 39 q 264 -18 325 -18 q 122 52 181 -18 q 63 235 63 122 q 200 636 63 421 q 331 804 258 722 q 219 901 274 857 m 306 601 q 174 264 174 410 q 203 150 174 193 q 278 107 232 107 q 365 261 365 107 l 461 282 q 558 107 461 107 q 635 148 607 107 q 663 261 663 189 q 551 560 663 399 q 410 726 494 642 q 306 601 350 664 z "},"۶":{"ha":613,"x_min":49,"x_max":590,"o":"m 456 542 l 564 568 l 590 450 l 364 389 q 259 327 294 369 q 210 211 224 285 l 168 0 l 49 0 l 89 214 q 186 426 117 358 q 250 474 210 450 l 240 478 q 96 699 96 544 q 179 885 96 811 q 385 958 263 958 q 590 906 460 958 l 590 794 q 396 835 471 835 q 262 794 313 835 q 211 683 211 753 q 278 562 211 607 q 456 542 344 517 l 365 450 q 250 474 300 454 q 282 489 267 483 q 419 533 342 515 l 435 536 l 449 540 l 456 542 z "},"۷":{"ha":722,"x_min":-21,"x_max":743,"o":"m 606 944 l 743 944 l 438 -1 l 300 -18 l -21 944 l 117 944 l 369 136 l 606 944 z "},"۸":{"ha":722,"x_min":-21,"x_max":743,"o":"m 117 0 l -21 0 l 285 946 l 422 963 l 743 0 l 606 0 l 353 808 l 117 0 z "},"۹":{"ha":749,"x_min":35,"x_max":644,"o":"m 369 958 l 532 958 l 644 846 l 601 0 l 483 0 l 501 361 q 433 339 469 347 q 338 326 381 326 q 119 410 203 326 q 35 629 35 493 q 132 864 35 769 q 369 958 229 958 m 283 817 q 190 742 225 793 q 154 626 154 692 q 208 497 154 543 q 357 451 261 451 q 450 461 406 451 q 507 478 481 468 l 525 833 l 367 833 q 283 817 322 833 z "},"۾":{"ha":1035,"x_min":-56,"x_max":985,"o":"m 703 640 q 898 510 832 640 q 985 129 964 381 l 892 -18 q 618 8 749 -18 q 401 75 494 31 l 392 64 q 315 -6 365 29 q 172 -74 257 -46 q -56 -136 88 -103 l -56 -18 q 250 88 174 38 q 360 219 322 135 q 385 283 368 238 q 411 351 401 328 q 540 574 474 507 q 703 640 606 640 m 657 126 q 875 108 765 108 q 818 408 863 304 q 696 514 771 514 q 594 465 638 514 q 500 285 551 417 l 472 217 l 460 185 q 657 126 549 146 m 575 -197 l 575 -325 l 492 -297 l 492 -197 q 475 -72 492 -128 l 556 -72 q 575 -197 575 -126 m 758 -197 l 758 -325 l 675 -297 l 675 -197 q 658 -72 675 -128 l 739 -72 q 758 -197 758 -126 z "},"Ẁ":{"ha":1281,"x_min":22,"x_max":1258,"o":"m 725 1007 l 924 161 l 1110 1007 l 1258 1007 l 1007 0 l 835 0 l 640 828 l 450 0 l 278 0 l 22 1007 l 178 1007 l 372 161 l 558 1007 l 725 1007 m 578 1074 l 372 1231 l 551 1231 l 704 1074 l 578 1074 z "},"ẁ":{"ha":1000,"x_min":7,"x_max":993,"o":"m 286 194 l 435 747 l 565 747 l 714 194 l 857 747 l 993 747 l 778 0 l 663 0 l 497 601 l 338 0 l 222 0 l 7 747 l 143 747 l 286 194 m 440 846 l 260 1007 l 421 1007 l 547 846 l 440 846 z "},"Ẃ":{"ha":1281,"x_min":22,"x_max":1258,"o":"m 725 1007 l 924 161 l 1110 1007 l 1258 1007 l 1007 0 l 835 0 l 640 828 l 450 0 l 278 0 l 22 1007 l 178 1007 l 372 161 l 558 1007 l 725 1007 m 910 1231 l 703 1074 l 578 1074 l 731 1231 l 910 1231 z "},"ẃ":{"ha":1000,"x_min":7,"x_max":993,"o":"m 286 194 l 435 747 l 565 747 l 714 194 l 857 747 l 993 747 l 778 0 l 663 0 l 497 601 l 338 0 l 222 0 l 7 747 l 143 747 l 286 194 m 728 1007 l 546 846 l 440 846 l 565 1007 l 728 1007 z "},"Ẅ":{"ha":1281,"x_min":22,"x_max":1258,"o":"m 725 1007 l 924 161 l 1110 1007 l 1258 1007 l 1007 0 l 835 0 l 640 828 l 450 0 l 278 0 l 22 1007 l 178 1007 l 372 161 l 558 1007 l 725 1007 m 418 1221 l 544 1221 l 544 1083 l 418 1083 l 418 1221 m 736 1221 l 864 1221 l 864 1083 l 736 1083 l 736 1221 z "},"ẅ":{"ha":1000,"x_min":7,"x_max":993,"o":"m 286 194 l 435 747 l 565 747 l 714 194 l 857 747 l 993 747 l 778 0 l 663 0 l 497 601 l 338 0 l 222 0 l 7 747 l 143 747 l 286 194 m 271 869 l 271 1007 l 397 1007 l 397 869 l 271 869 m 589 1007 l 717 1007 l 717 869 l 589 869 l 589 1007 z "},"Ị":{"ha":381,"x_min":119,"x_max":261,"o":"m 261 1007 l 261 0 l 119 0 l 119 1007 l 261 1007 m 128 -106 l 254 -106 l 254 -243 l 128 -243 l 128 -106 z "},"ị":{"ha":326,"x_min":100,"x_max":226,"o":"m 100 747 l 226 747 l 226 0 l 100 0 l 100 747 m 100 1007 l 226 1007 l 226 854 l 100 854 l 100 1007 m 100 -106 l 226 -106 l 226 -243 l 100 -243 l 100 -106 z "},"Ọ":{"ha":1086,"x_min":71,"x_max":1015,"o":"m 308 799 q 261 746 308 799 q 215 504 215 693 q 308 208 215 315 q 543 101 400 101 q 778 208 686 101 q 871 504 871 315 q 778 799 871 693 q 543 906 686 906 q 308 799 400 906 m 887 880 q 951 807 887 880 q 1015 504 1015 735 q 887 128 1015 274 q 543 -18 758 -18 q 199 128 328 -18 q 71 504 71 274 q 199 880 71 735 q 543 1025 328 1025 q 887 880 758 1025 m 481 -106 l 607 -106 l 607 -243 l 481 -243 l 481 -106 z "},"ọ":{"ha":819,"x_min":51,"x_max":768,"o":"m 186 371 q 250 162 186 231 q 410 93 314 93 q 569 164 504 93 q 633 371 633 235 q 569 580 633 511 q 410 649 506 649 q 250 581 314 649 q 186 371 186 514 m 158 660 q 212 710 158 660 q 410 760 265 760 q 661 660 554 760 q 768 371 768 560 q 661 82 768 182 q 410 -18 554 -18 q 158 82 265 -18 q 51 371 51 182 q 158 660 51 560 m 343 -106 l 469 -106 l 469 -243 l 343 -243 l 343 -106 z "},"Ụ":{"ha":1015,"x_min":104,"x_max":911,"o":"m 104 1007 l 246 1007 l 246 394 q 306 174 246 243 q 506 104 367 104 q 708 180 646 104 q 769 410 769 256 l 769 1007 l 911 1007 l 911 421 q 816 89 911 196 q 506 -18 721 -18 q 199 80 293 -18 q 104 410 104 178 l 104 1007 m 444 -106 l 571 -106 l 571 -243 l 444 -243 l 444 -106 z "},"ụ":{"ha":789,"x_min":89,"x_max":689,"o":"m 563 0 l 563 107 q 328 -18 486 -18 q 89 269 89 -18 l 89 747 l 215 747 l 215 307 q 247 148 215 204 q 372 92 278 92 q 513 154 464 92 q 563 336 563 217 l 563 747 l 689 747 l 689 0 l 563 0 m 331 -106 l 457 -106 l 457 -243 l 331 -243 l 331 -106 z "},"Ỳ":{"ha":867,"x_min":0,"x_max":867,"o":"m 0 1007 l 156 1007 l 431 515 l 711 1007 l 867 1007 l 497 390 l 497 0 l 356 0 l 356 393 l 0 1007 m 399 1074 l 193 1231 l 372 1231 l 525 1074 l 399 1074 z "},"ỳ":{"ha":647,"x_min":0,"x_max":647,"o":"m 515 747 l 647 747 l 381 -32 q 324 -160 350 -119 q 251 -222 299 -201 q 121 -243 204 -243 l 56 -243 l 56 -137 l 107 -137 q 209 -117 178 -137 q 264 -15 240 -96 l 269 0 l 0 747 l 140 747 l 331 171 l 515 747 m 299 846 l 118 1007 l 279 1007 l 406 846 l 299 846 z "},"–":{"ha":711,"x_min":53,"x_max":660,"o":"m 660 321 l 53 321 l 53 440 l 660 440 l 660 321 z "},"—":{"ha":1004,"x_min":44,"x_max":960,"o":"m 960 321 l 44 321 l 44 440 l 960 440 l 960 321 z "},"‘":{"ha":339,"x_min":90,"x_max":256,"o":"m 250 814 l 250 654 l 90 654 l 90 825 l 175 1007 l 256 1007 l 183 814 l 250 814 z "},"’":{"ha":340,"x_min":85,"x_max":250,"o":"m 90 847 l 90 1007 l 250 1007 l 250 836 l 165 654 l 85 654 l 158 847 l 90 847 z "},"‚":{"ha":339,"x_min":85,"x_max":250,"o":"m 90 0 l 90 160 l 250 160 l 250 -11 l 165 -193 l 85 -193 l 158 0 l 90 0 z "},"“":{"ha":572,"x_min":90,"x_max":488,"o":"m 250 814 l 250 654 l 90 654 l 90 825 l 175 1007 l 256 1007 l 183 814 l 250 814 m 482 814 l 482 654 l 322 654 l 322 825 l 407 1007 l 488 1007 l 415 814 l 482 814 z "},"”":{"ha":572,"x_min":85,"x_max":482,"o":"m 322 847 l 322 1007 l 482 1007 l 482 836 l 397 654 l 317 654 l 390 847 l 322 847 m 90 847 l 90 1007 l 250 1007 l 250 836 l 165 654 l 85 654 l 158 847 l 90 847 z "},"„":{"ha":586,"x_min":85,"x_max":496,"o":"m 90 0 l 90 160 l 250 160 l 250 -11 l 165 -193 l 85 -193 l 158 0 l 90 0 m 336 0 l 336 160 l 496 160 l 496 -11 l 411 -193 l 331 -193 l 404 0 l 336 0 z "},"†":{"ha":785,"x_min":44,"x_max":739,"o":"m 456 0 l 328 0 l 328 583 l 44 583 l 44 703 l 328 703 l 328 1007 l 456 1007 l 456 703 l 739 703 l 739 583 l 456 583 l 456 0 z "},"‡":{"ha":785,"x_min":44,"x_max":739,"o":"m 456 389 l 739 389 l 739 269 l 456 269 l 456 0 l 328 0 l 328 269 l 44 269 l 44 389 l 328 389 l 328 613 l 44 613 l 44 732 l 328 732 l 328 1007 l 456 1007 l 456 732 l 739 732 l 739 613 l 456 613 l 456 389 z "},"•":{"ha":621,"x_min":60,"x_max":560,"o":"m 60 388 q 132 561 60 489 q 304 633 204 633 q 486 562 413 633 q 560 388 560 490 q 487 206 560 279 q 304 133 414 133 q 131 207 203 133 q 60 388 60 281 z "},"…":{"ha":1021,"x_min":90,"x_max":931,"o":"m 590 0 l 431 0 l 431 160 l 590 160 l 590 0 m 931 0 l 771 0 l 771 160 l 931 160 l 931 0 m 250 0 l 90 0 l 90 160 l 250 160 l 250 0 z "},"‰":{"ha":1940,"x_min":51,"x_max":1893,"o":"m 1664 -10 q 1496 70 1554 -10 q 1438 283 1438 150 q 1496 497 1438 417 q 1664 576 1554 576 q 1834 497 1775 576 q 1893 283 1893 417 q 1834 70 1893 150 q 1664 -10 1775 -10 m 1664 67 q 1788 283 1788 67 q 1664 501 1788 501 q 1574 444 1606 501 q 1543 283 1543 388 q 1574 123 1543 179 q 1664 67 1606 67 m 278 431 q 110 510 168 431 q 51 724 51 590 q 110 937 51 857 q 278 1017 168 1017 q 448 937 389 1017 q 507 724 507 857 q 448 510 507 590 q 278 431 389 431 m 278 507 q 401 724 401 507 q 278 942 401 942 q 188 885 219 942 q 157 724 157 828 q 188 563 157 619 q 278 507 219 507 m 417 0 l 276 0 l 971 1007 l 1111 1007 l 417 0 m 1111 -10 q 943 70 1001 -10 q 885 283 885 150 q 943 497 885 417 q 1111 576 1001 576 q 1281 497 1222 576 q 1340 283 1340 417 q 1281 70 1340 150 q 1111 -10 1222 -10 m 1111 67 q 1235 283 1235 67 q 1111 501 1235 501 q 1022 444 1053 501 q 990 283 990 388 q 1022 123 990 179 q 1111 67 1053 67 z "},"‹":{"ha":401,"x_min":14,"x_max":371,"o":"m 235 61 l 14 379 l 235 696 l 371 696 l 163 379 l 371 61 l 235 61 z "},"›":{"ha":401,"x_min":31,"x_max":388,"o":"m 388 379 l 167 61 l 31 61 l 240 379 l 31 696 l 167 696 l 388 379 z "},"⁄":{"ha":279,"x_min":-278,"x_max":557,"o":"m -137 0 l -278 0 l 417 1007 l 557 1007 l -137 0 z "},"⁰":{"ha":554,"x_min":51,"x_max":507,"o":"m 278 599 q 110 678 168 599 q 51 892 51 758 q 110 1105 51 1025 q 278 1185 168 1185 q 448 1105 389 1185 q 507 892 507 1025 q 448 678 507 758 q 278 599 389 599 m 278 675 q 401 892 401 675 q 278 1110 401 1110 q 188 1053 219 1110 q 157 892 157 996 q 188 731 157 788 q 278 675 219 675 z "},"⁴":{"ha":524,"x_min":22,"x_max":501,"o":"m 301 1044 l 132 824 l 301 824 l 301 1044 m 501 824 l 501 739 l 404 739 l 404 608 l 301 608 l 301 739 l 22 739 l 22 819 l 303 1175 l 404 1175 l 404 824 l 501 824 z "}}}
